<?xml version="1.0" encoding="utf-8"?>
<!-- Generator: Adobe Illustrator 16.0.0, SVG Export Plug-In . SVG Version: 6.00 Build 0)  -->
<!DOCTYPE svg PUBLIC "-//W3C//DTD SVG 1.1//EN" "http://www.w3.org/Graphics/SVG/1.1/DTD/svg11.dtd">
<svg version="1.1" id="Capa_1" xmlns="http://www.w3.org/2000/svg" xmlns:xlink="http://www.w3.org/1999/xlink" x="0px" y="0px"
	 width="33.875px" height="32.54px" viewBox="5.275 0 33.875 32.54" enable-background="new 5.275 0 33.875 32.54"
	 xml:space="preserve">
<g>
	<path fill="#FFFFFF" d="M22.15,32.54c8.971,0,16.27-7.299,16.27-16.27C38.419,7.299,31.121,0,22.15,0
		C13.179,0,5.88,7.299,5.88,16.27C5.88,25.241,13.179,32.54,22.15,32.54z M22.15,2.227c7.743,0,14.043,6.3,14.043,14.043
		s-6.3,14.043-14.043,14.043S8.107,24.013,8.107,16.27S14.407,2.227,22.15,2.227z"/>
	<path fill="#FFFFFF" d="M19.965,23.239c0.435,0.435,1.14,0.435,1.575,0c0.435-0.436,0.435-1.141,0-1.575l-4.279-4.279l12.392-0.001
		c0.615,0,1.113-0.499,1.113-1.114c0-0.615-0.498-1.113-1.113-1.113L17.26,15.157l4.28-4.28c0.435-0.435,0.435-1.14,0-1.575
		c-0.217-0.217-0.502-0.326-0.788-0.326c-0.285,0-0.57,0.109-0.787,0.326l-6.181,6.181c-0.209,0.209-0.326,0.492-0.326,0.788
		s0.117,0.579,0.326,0.788L19.965,23.239z"/>
</g>
</svg>
