<?xml version="1.0" encoding="utf-8"?>
<!-- Generator: Adobe Illustrator 16.0.0, SVG Export Plug-In . SVG Version: 6.00 Build 0)  -->
<!DOCTYPE svg PUBLIC "-//W3C//DTD SVG 1.1//EN" "http://www.w3.org/Graphics/SVG/1.1/DTD/svg11.dtd">
<svg version="1.1" id="Capa_1" xmlns="http://www.w3.org/2000/svg" xmlns:xlink="http://www.w3.org/1999/xlink" x="0px" y="0px"
	 width="33.875px" height="32.54px" viewBox="5.275 0 33.875 32.54" enable-background="new 5.275 0 33.875 32.54"
	 xml:space="preserve">
<g>
	<path fill="#FFFFFF" d="M22.149,0.002c-8.969,0-16.269,7.299-16.269,16.27c-0.001,8.971,7.299,16.27,16.269,16.27
		c8.973-0.001,16.271-7.299,16.271-16.27C38.419,7.301,31.121,0.001,22.149,0.002z M22.15,30.315c-7.743,0-14.043-6.3-14.043-14.042
		C8.108,8.53,14.408,2.229,22.15,2.23c7.745-0.001,14.044,6.299,14.042,14.042C36.192,24.015,29.893,30.316,22.15,30.315z"/>
	<path fill="#FFFFFF" d="M24.335,9.303c-0.437-0.434-1.141-0.435-1.577,0c-0.433,0.436-0.435,1.141,0.002,1.576l4.278,4.28H14.648
		c-0.615,0-1.113,0.499-1.114,1.114c0.001,0.614,0.498,1.114,1.115,1.115l12.392-0.002l-4.281,4.28
		c-0.433,0.434-0.436,1.139,0,1.573c0.218,0.218,0.503,0.328,0.788,0.326c0.284,0.001,0.57-0.107,0.788-0.325l6.18-6.181
		c0.209-0.209,0.327-0.492,0.326-0.786c0-0.297-0.117-0.58-0.326-0.79L24.335,9.303z"/>
</g>
</svg>
