<?xml version="1.0" encoding="utf-8"?>
<!-- Generator: Adobe Illustrator 23.0.1, SVG Export Plug-In . SVG Version: 6.00 Build 0)  -->
<svg version="1.1" id="Layer_1" xmlns="http://www.w3.org/2000/svg" xmlns:xlink="http://www.w3.org/1999/xlink" x="0px" y="0px"
	 viewBox="0 0 604 74.2" style="enable-background:new 0 0 604 74.2;" xml:space="preserve">
<style type="text/css">
	.st0{fill:#FF9DCC;}
</style>
<g>
	<path class="st0" d="M9.1,2.2c1-0.3,2-0.5,3.2-0.6c1.1-0.1,2.4-0.2,3.8-0.2c0.3,0,0.6,0,1.2,0.1c0.5,0.1,0.9,0.1,1.2,0.1
		c0.4,0.1,0.8,0.1,1,0.2c0.3,0.1,0.6,0.2,1.1,0.2l1-0.3c0.2,0,0.4,0.1,0.7,0.3c0.2,0.2,0.6,0.3,0.9,0.5c0.2-0.1,0.5-0.3,0.8-0.4
		c0.4,0,0.6,0.1,0.9,0.4c0.2,0.3,0.4,0.7,0.4,1.2c0,0.4,0,0.8,0,1.1c0,0.4,0,0.8-0.1,1.2c0,0.2,0,0.5,0,0.9c0,0.4,0.1,0.7,0.1,0.9
		c0,0.3-0.1,0.4-0.2,0.6c-0.1,0.1-0.3,0.2-0.5,0.2c-0.9,0-1.8-0.1-2.7-0.2c-0.9-0.2-1.8-0.4-2.6-0.7c-0.8,0.1-1.4,0.2-2,0.3
		c-0.4,0-0.8,0.1-1,0.2c-0.2,0.1-0.3,0.2-0.3,0.4c0.1,0.2,0.2,0.3,0.4,0.5c0.2,0.2,0.4,0.4,0.6,0.5c0.2,0.1,0.4,0.4,0.6,0.8
		c0.2,0.4,0.4,0.9,0.7,1.6c0.1,0.3,0.2,0.5,0.2,0.7c0,0.2,0.1,0.5,0.1,0.7c0,0.5,0,1.1-0.1,1.9c-0.1,0.7-0.2,1.4-0.3,1.8
		c-0.2,0.9-0.4,1.7-0.5,2.3c-0.1,0.6-0.2,1.1-0.3,1.4c0,0.2-0.1,0.5-0.1,0.9c0,0.3,0,0.7-0.1,1.1c0,0.4-0.1,0.8-0.3,1.3
		c-0.2,0.5-0.3,1.1-0.5,1.8c0,0.3,0,0.7-0.1,1.1c-0.1,0.4-0.2,0.9-0.3,1.4c-0.1,0.3-0.2,0.7-0.3,1c-0.2,0.4-0.3,0.8-0.4,1.4
		c0,0.4,0.1,0.7,0.1,1.1c-0.1,0.7-0.2,1.3-0.3,2.1c-0.1,1-0.3,2-0.4,3.1c-0.1,1-0.3,2-0.4,3c-0.1,0.3-0.3,0.6-0.5,1
		c0,0.2,0,0.4,0.1,0.8c0.1,0.3,0.1,0.6,0.1,0.8c0,0.3,0,0.6-0.1,1.2c-0.1,0.5-0.1,0.9-0.1,1.1c0,0.4,0,1.1,0,2.1c0,0.9,0,1.7,0,2.1
		c0.1,0.4,0.2,0.8,0.3,1.2c-0.1,0.3-0.1,0.6-0.2,0.8c-0.1,0.2-0.2,0.4-0.3,0.5c-0.4,0.3-0.8,0.5-1.2,0.6c-0.2,0.2-0.4,0.4-0.6,0.6
		c-0.2,0.1-0.3,0.2-0.4,0.2c-0.5,0-0.9-0.1-1.1-0.2c-0.2-0.1-0.3-0.3-0.3-0.6c0-0.8,0.1-1.5,0.2-2.3c0-0.1-0.1-0.2-0.2-0.4
		c-0.1-0.2-0.1-0.4-0.3-0.7c-0.1-1.8-0.3-3.7-0.5-5.7c0.1-1.4,0.1-2.8,0.1-4.2c0-0.7,0-1.5,0.1-2.5c0.1-1,0.2-2.2,0.3-3.5
		c0.2-1.3,0.3-2.5,0.4-3.5c0.1-1,0.1-1.8,0.1-2.4c0-0.3,0-0.6,0.1-1.1c0.1-0.4,0.1-1,0.2-1.6c0.1-0.5,0.1-1,0.2-1.5
		c0.1-0.4,0.1-0.8,0.1-1.2c0-0.2,0-0.4,0-0.6c0-0.2,0-0.4-0.1-0.6c0.2-0.6,0.4-1.1,0.5-1.4c0.1-0.4,0.2-0.6,0.2-0.7
		c-0.1-0.3-0.2-0.6-0.3-0.9c0.1-0.3,0.3-0.9,0.5-1.8c0.2-0.9,0.3-2,0.5-3.4c0-0.3,0-0.6,0-1c0-0.4,0-0.9,0-1.5l-0.2-0.6
		c-0.1,0-0.3-0.1-0.5-0.2c-0.2-0.1-0.6-0.1-0.9-0.2L9.9,8.9C9.6,9,9.3,9,9,9.1s-0.7,0.2-1,0.2c-2.5,0.7-4.9,1.4-7.3,2
		c-0.2,0-0.3-0.1-0.5-0.2C0.1,11,0,10.8,0,10.5c0-0.1,0.1-0.4,0.2-0.7C0.3,9.4,0.5,9,0.7,8.4c0-0.8,0.1-1.5,0.2-2.1
		c0.1-0.5,0.2-1,0.2-1.2c0.2-0.5,0.5-1,0.9-1.3C2.4,3.4,2.9,3.2,3.4,3c1.1-0.4,2.1-0.6,3.1-0.7C7.4,2.2,8.3,2.1,9.1,2.2z"/>
	<path class="st0" d="M22,41.8c0.5-0.4,0.9-0.8,1.2-1.1c0.3-0.3,0.5-0.5,0.7-0.7c0.4-0.4,0.7-0.7,0.9-1c0.2-0.3,0.4-0.6,0.4-0.9
		c0.2-0.8,0.5-1.8,0.7-3c0.3-1.2,0.7-2.6,1.1-4.2c0.2-0.5,0.4-1.1,0.7-1.8c0.2-0.7,0.5-1.5,0.8-2.4c0.3-1.2,0.6-2.3,1.1-3.2
		c0.4-1,0.9-1.8,1.4-2.6c0.2-0.2,0.3-0.5,0.5-0.8c0.2-0.3,0.3-0.7,0.5-1.1c0.2-0.4,0.4-0.8,0.7-1.3c0.3-0.5,0.6-1.1,1-1.8
		c1-1.4,1.8-2.6,2.6-3.7c0.7-1,1.3-1.8,1.8-2.4c0.9-1,1.7-2,2.6-2.9c0.9-0.9,1.7-1.7,2.6-2.5c0.8-0.7,1.5-1.2,2.1-1.5
		s1.1-0.5,1.4-0.5c0.3,0.3,0.6,0.5,0.7,0.8c0.2,0,0.3,0,0.5-0.1c0.6,0,1.1,0.2,1.3,0.7c0.3,0.5,0.4,1.2,0.4,2.2c0,0.2,0,0.5-0.1,0.8
		c-0.1,0.3-0.2,0.8-0.3,1.3c-0.2,0.2-0.3,0.4-0.4,0.6c-0.1,0.3-0.1,0.5-0.2,0.8c0,0.3-0.1,0.6-0.1,0.9c0,0.2-0.1,0.4-0.2,0.6
		c-0.3,0.6-0.6,1.3-1,2.1c-0.4,0.8-0.7,1.8-1.1,2.9c-0.2,0.4-0.5,0.9-0.9,1.6c-0.4,0.7-0.8,1.4-1.3,2.2c-0.2,0.4-0.5,1-0.9,1.7
		c-0.4,0.7-0.8,1.4-1.4,2.3c-0.1,0.3-0.4,0.7-0.7,1.1c-0.3,0.4-0.8,0.8-1.2,1.4c-0.1,0.4-0.5,1-1.2,2c-0.7,0.9-1.6,2.1-2.7,3.6
		c-0.6,0.7-1.3,1.6-2.2,2.7c-0.9,1.1-1.9,2.4-3.1,3.9c-0.4,1.8-0.8,3.4-1,4.7c-0.2,1.4-0.3,2.6-0.3,3.6c0,0.4,0,0.7,0.1,0.9
		c0.1,0.2,0.2,0.3,0.3,0.3c0.1-0.2,0.3-0.4,0.5-0.6c0.2-0.2,0.5-0.5,0.7-0.7c0.4-0.4,1-1.1,1.6-2.2c0.6-1.1,1.3-2.5,2.1-4.2
		c0.7-1.6,1.3-2.8,1.8-3.6c0.5-0.8,1-1.3,1.3-1.5l1.2-0.5c0.2-0.1,0.4-0.2,0.6-0.2c0.2-0.1,0.3-0.1,0.5-0.1c0.3,0,0.6,0.2,0.9,0.6
		c0.3,0.4,0.5,0.9,0.6,1.6c0.3,1.2,0.6,2.1,0.7,2.8c0.2,0.7,0.3,1,0.3,1.2c0.3,0.7,0.7,1.2,1.1,1.6c0.4,0.3,1,0.5,1.6,0.5
		c0.7-0.1,1.6-0.3,2.6-0.5c0.2,0.5,0.4,1,0.7,1.5c0.2,0.5,0.5,1.1,0.8,1.7c-0.6,0.4-1.1,0.7-1.7,1.1c-0.6,0.4-1.2,0.7-1.7,1.1
		c-0.4,0.2-0.9,0.4-1.6,0.5c-0.7,0.1-1.5,0.2-2.5,0.2c-1.4,0-2.6-0.7-3.4-2c-0.8-1.4-1.3-2-1.4-2h-0.2c-0.4,0.5-0.8,1-1.2,1.5
		c-0.4,0.5-0.8,1-1.2,1.6c-0.3,0.5-0.6,1.2-1.1,1.9c-0.5,0.7-1,1.5-1.7,2.3c-0.8,0.9-1.5,1.7-2.1,2.1c-0.6,0.5-1.1,0.7-1.5,0.7
		c-0.9,0-1.6-0.1-2.1-0.3c-0.5-0.2-0.8-0.5-0.9-0.9c-0.3-1.3-0.5-2.5-0.7-3.5c-0.2-1-0.2-1.8-0.2-2.5c0-0.2,0-0.4,0-0.6
		c0-0.2,0-0.3,0.1-0.5c0.1-0.3,0.2-0.6,0.2-1c0-0.1,0-0.2-0.1-0.3c-0.1-0.1-0.2-0.1-0.3-0.1c-0.1,0.1-0.2,0.2-0.3,0.3
		c-0.1,0.1-0.3,0.2-0.5,0.4c-0.1-0.3-0.3-0.7-0.5-1.3C22.7,43.3,22.4,42.6,22,41.8z M45.1,9c-0.3,0-0.8,0.5-1.6,1.4
		c-0.8,0.9-1.8,2.3-3,4.1c-0.7,1-1.4,2-2,3c-0.7,1-1.3,2-2,3c-0.3,0.3-0.5,0.6-0.6,0.9c-0.1,0.3-0.2,0.6-0.2,0.9
		c-0.5,1.3-0.9,2.6-1.4,3.7c-0.4,1.3-0.8,2.2-1,2.9c-0.3,0.7-0.4,1.1-0.5,1.2l0.2,0.2c0.5-0.4,0.9-0.9,1.2-1.3
		c0.5-0.5,1-1.2,1.7-2.1c0.7-0.9,1.4-1.9,2.3-3c0.9-1.1,1.7-2.5,2.6-4.1s1.9-3.6,2.9-5.8c0.6-1.2,1-2.1,1.3-2.8
		c0.3-0.7,0.4-1.2,0.4-1.5c0-0.2,0-0.3-0.1-0.4C45.4,9.1,45.2,9,45.1,9z"/>
	<path class="st0" d="M48,41.8c0.3-0.5,0.7-1,1.1-1.5c0.4-0.5,1-1,1.7-1.6c0.1-0.5,0.1-0.9,0.2-1.4c0.1-0.5,0.1-0.9,0.1-1.4
		c0.1-0.3,0.2-0.7,0.3-1.2c0.2-0.4,0.3-0.9,0.5-1.5c0.2-0.5,0.5-1.2,0.9-2c0.4-0.8,0.8-1.7,1.4-2.6c0.5-0.5,1-1.1,1.6-1.8
		c0.5-0.7,1.1-1.3,1.6-2c0.3-0.2,0.5-0.4,0.9-0.6s0.6-0.4,0.9-0.6c0.3-0.1,0.6-0.2,1-0.2c0.4-0.1,0.7-0.1,1.2-0.1
		c0.6,0,1.1,0.1,1.4,0.2c0.4,0.1,0.7,0.3,0.9,0.6c0.2,0.2,0.3,0.5,0.5,0.9c0.2,0.4,0.3,0.8,0.4,1.4c0.1,0.5,0.2,1,0.2,1.6
		c0-0.1,0-0.1-0.1,0.2c-0.1,0.3-0.2,0.7-0.4,1.2l-0.3,1.1c-0.3,1.1-1.1,2.4-2.2,3.9s-2.7,3.2-4.7,5.1c-0.2,0.2-0.3,0.4-0.4,0.6
		c-0.1,0.2-0.2,0.5-0.2,0.8c0,0.5,0.1,0.9,0.3,1.3c0.2,0.4,0.4,0.7,0.8,0.9c0.2,0.1,0.5,0.3,0.9,0.4c0.4,0.1,0.9,0.3,1.5,0.4
		c0.9-0.1,1.8-0.2,2.5-0.5c0.8-0.2,1.4-0.5,2-0.9c0.1-0.1,0.3-0.2,0.6-0.3c0.3-0.1,0.5-0.3,0.8-0.5c0.3,0.7,0.6,1.3,0.8,1.8
		c0.2,0.5,0.4,1,0.6,1.4c-1.3,1.3-2.6,2.3-3.7,3c-1.1,0.7-2.1,1-3,1c-0.4,0.2-0.8,0.4-1.3,0.5c-0.5,0.1-1.1,0.2-1.7,0.2
		c-0.9,0-1.6-0.1-2.3-0.4c-0.7-0.3-1.2-0.6-1.7-1.1c-0.2-0.2-0.5-0.6-0.7-1c-0.2-0.5-0.5-1-0.7-1.6c-0.2-0.5-0.4-0.9-0.6-1.2
		c-0.2-0.2-0.4-0.4-0.6-0.4c-0.2,0-0.4,0.1-0.6,0.3c-0.2,0.2-0.5,0.4-0.8,0.8c-0.1-0.4-0.3-0.8-0.5-1.3C48.7,43.3,48.4,42.6,48,41.8
		z M59.4,30.3c-0.5,0-1.2,0.7-2.1,2c-0.9,1.4-1.3,2.4-1.3,3c0,0.1,0,0.2,0.1,0.3c0.1,0.1,0.2,0.1,0.4,0.1c0.3,0,0.5-0.1,0.6-0.4
		c0.2-0.3,0.3-0.5,0.5-0.8c0.3-0.2,0.5-0.5,0.8-0.8c0.2-0.3,0.5-0.5,0.7-0.8c0.3-0.3,0.5-0.7,0.6-1c0.1-0.3,0.2-0.7,0.2-1
		c0-0.2,0-0.4-0.1-0.5C59.7,30.4,59.6,30.3,59.4,30.3z"/>
	<path class="st0" d="M102.5,38.6c-0.1-0.3-0.1-0.5-0.1-0.6c0-0.2,0-0.3,0-0.4c0-0.8,0.1-1.4,0.3-2c0.2-0.6,0.5-1,0.9-1.4
		c0.1-0.1,0.3-0.2,0.7-0.4c0.4-0.2,0.9-0.4,1.5-0.7c0.4-0.2,0.8-0.5,1.1-0.8c0.3-0.3,0.4-0.7,0.4-1.1c0.1-0.3,0.2-0.7,0.4-1.1
		c0.2-0.4,0.5-0.9,0.7-1.4c0.1-0.1,0.4-1,0.9-2.4c0.5-1.5,1.1-3.7,2-6.6c0.2-0.9,0.5-1.6,0.7-2.3c0.2-0.6,0.4-1.2,0.6-1.6
		c0.8-2,1.4-3.3,1.9-4c0.5-0.6,0.8-1.1,1.1-1.5V10l-1.1-1.7l1.4-1.6l1.8-0.4c0.4,0,0.7-0.4,1-1c0.3-0.6,0.8-1.3,1.5-2
		c0.2,0,0.4-0.2,0.8-0.4s0.8-0.6,1.4-1c0.5-0.4,0.9-0.7,1.3-0.9c0.4-0.2,0.6-0.3,0.8-0.3c0.6,0,1.1,0.1,1.4,0.4
		c0.3,0.3,0.4,0.6,0.4,1c0,0.5-0.3,1.3-0.8,2.3c-0.5,1-0.8,1.7-0.8,2.3c0,0.2,0.1,0.4,0.2,0.6c0.1,0.2,0.2,0.3,0.4,0.3l4.2,2.3
		c0.2,0.1,0.4,0.5,0.6,1.1c0.2,0.7,0.3,1.5,0.5,2.7c0.1,0.9,0.3,1.7,0.3,2.4c0.1,0.6,0.1,1.1,0.1,1.5c-0.2,1-0.3,2-0.5,3.1
		c0.2,1.3,0.5,2.7,0.8,4.2c-0.1,1.4-0.3,2.8-0.5,4.3c0,0.1,0,0.3,0.1,0.4c0.1,0.1,0.1,0.2,0.3,0.2c0.4,0,0.7,0.1,0.9,0.3
		c0.2,0.2,0.3,0.4,0.3,0.8c0,0.4-0.1,0.8-0.2,1c-0.1,0.2-0.3,0.4-0.5,0.6c-0.3,0.2-0.5,0.4-0.7,0.5c-0.2,0.1-0.3,0.3-0.4,0.4
		l0.5,2.2l-0.6,5c0,0.4,0,1-0.1,1.6c-0.1,0.7-0.2,1.4-0.3,2.3c-0.2,0.6-0.4,1.2-0.5,1.6c-0.1,0.4-0.2,0.7-0.2,0.9
		c0.1,0.4,0.2,0.8,0.3,1.3c-0.1,0.6-0.3,1.3-0.4,1.9c-0.2,0.6-0.3,1.3-0.4,1.9c-0.3,0.8-0.6,1.4-1,1.8c-0.4,0.4-0.9,0.6-1.5,0.6
		c-0.3,0-0.5-0.1-0.7-0.4c-0.2-0.3-0.2-0.7-0.2-1.2c0-0.2,0-0.6,0.1-1s0.1-0.8,0.1-1c0-0.2,0-0.4-0.1-0.7c0-0.3-0.1-0.5-0.1-0.7
		c0-0.7,0.1-1.7,0.2-3.2c0.1-1.5,0.2-2.6,0.2-3.3c-0.1-0.4-0.2-0.8-0.4-1.2c0.1-0.4,0.1-0.9,0.1-1.4c0-0.5,0-0.9,0-1.3l0.5-1
		l-0.5-3.3l-0.2-0.1c-0.1,0-0.3,0.1-0.6,0.2c-0.3,0.1-0.6,0.3-1,0.5c-0.3,0.1-0.7,0.2-1.3,0.3c-0.6,0.1-1.4,0.2-2.4,0.2
		c-0.4,0.2-0.8,0.4-1.2,0.6c-0.5,0.1-1.2,0.3-2.1,0.6c-0.8,0.3-1.8,0.7-2.9,1.1c-0.6,0.3-1.2,0.6-1.8,0.7c-0.5,0.2-1,0.3-1.3,0.3
		c-0.3,0-0.5,0.1-0.7,0.3c-0.2,0.2-0.3,0.5-0.5,0.9c-0.1,0.4-0.2,0.9-0.5,1.6c-0.3,0.7-0.6,1.5-1.1,2.5c-0.1,0.3-0.2,0.7-0.4,1.2
		c-0.2,0.5-0.4,1.2-0.6,2c-0.1,0.3-0.3,0.7-0.5,1.2c-0.2,0.5-0.4,1-0.6,1.6c0,0.3,0,0.6-0.1,1c-0.1,0.4-0.1,0.9-0.3,1.4
		c-0.1,0.3-0.3,0.8-0.5,1.3c-0.2,0.5-0.5,1.1-0.8,1.7c-0.2,0.4-0.5,0.7-0.8,0.8c-0.4,0.2-0.8,0.3-1.4,0.3c-0.4,0-0.7-0.1-0.9-0.4
		c-0.2-0.3-0.3-0.7-0.3-1.3c0-0.6,0.1-1.3,0.2-2.1c0.1-0.8,0.4-1.7,0.7-2.6c0.3-1.3,0.6-2.3,0.9-3.1c0.2-0.8,0.4-1.4,0.4-1.7
		c0.1-0.2,0.2-0.5,0.3-0.9c0.1-0.4,0.3-0.9,0.5-1.6c0.2-0.6,0.4-1.3,0.6-2l-0.2-0.3l-1.1,0.2c-0.3,0-0.4-0.1-0.6-0.3
		c-0.1-0.2-0.2-0.4-0.2-0.7c0-0.2,0-0.3,0.1-0.5C102.3,39.1,102.4,38.8,102.5,38.6z M115.3,32c0.5,0,1.3-0.1,2.4-0.4
		c1.1-0.3,1.9-0.4,2.4-0.4c0.3,0.1,0.7,0.1,1,0.2c0.6-0.1,1.2-0.3,1.7-0.4c0.6-0.2,1.1-0.3,1.7-0.4c0.2,0,0.4-0.1,0.5-0.3
		c0.1-0.1,0.2-0.3,0.2-0.5c0-0.7-0.1-1.2-0.1-1.5c0-0.4,0-1,0.1-1.5c0.1-0.6,0.1-1.1,0.3-1.7l-0.4-1.6l0.1-1.5
		c-0.1-0.5-0.2-1-0.2-1.5c-0.1-0.5-0.1-0.8,0-1.2c0-0.1-0.1-0.2-0.2-0.5c-0.1-0.2-0.2-0.4-0.4-0.7c-0.2-0.4-0.5-0.8-0.7-1.2
		c-0.2-0.4-0.5-0.7-0.7-1.1c-0.3-0.4-0.7-0.8-1.1-1c-0.4-0.2-0.8-0.3-1.2-0.3c-0.5,0-1,0.4-1.5,1.1c-0.5,0.8-1,1.9-1.4,3.4
		c-0.1,0.2-0.3,0.6-0.6,1.2c-0.3,0.6-0.8,1.4-1.4,2.3c-0.1,0.9-0.4,2-1,3.4c-0.5,1.3-1.3,2.9-2.3,4.7c-0.1,0.2-0.2,0.3-0.2,0.4
		c0,0.1,0,0.2,0,0.4c0,0.2,0,0.3,0.1,0.4c0.1,0.1,0.2,0.1,0.4,0.1c0.2,0,0.6,0,1.2-0.1C114.7,32,115.1,32,115.3,32z"/>
	<path class="st0" d="M134.2,41.8c0.4-0.5,0.8-1,1.1-1.6c1.7-1.4,3.1-2.8,4.2-4.1c1.1-1.3,1.9-2.5,2.4-3.7l-0.4-1.7
		c0.3-0.6,1.1-1.3,2.3-2.1c1.2-0.8,2.2-1.2,3-1.2c0.8,0,1.5,0.2,2,0.7c0.6,0.5,1.1,1,1.6,1.5c0.3,0.2,0.4,0.3,0.6,0.4
		c0.9,0.7,1.7,1.7,2.1,2.9c0.5,1.3,0.7,2.8,0.7,4.6c0,0.9-0.4,2.3-1.1,4.1c-0.7,1.8-1.1,3.1-1.1,4c0,0.1,0,0.2,0.1,0.3
		c0.1,0.1,0.2,0.1,0.3,0.1c0.3,0,0.7-0.1,1.1-0.4c0.4-0.3,0.9-0.6,1.4-1.1c1.3-1.2,2-1.9,2.3-2c0.3-0.1,0.6-0.3,1-0.7
		c0.2,0.5,0.4,1,0.7,1.5c0.3,0.5,0.5,1.1,0.7,1.7c-0.2,0.2-0.5,0.4-0.7,0.7c-0.3,0.3-0.6,0.6-1,0.9c-0.8,0.6-1.9,1.3-3.1,2.1
		c-1.3,0.8-2.8,1.8-4.6,2.9c-0.5,0.3-1,0.6-1.6,0.7c-1,0-1.7-0.1-2.2-0.4c-0.5-0.3-0.7-0.8-0.7-1.4c0-0.3,0.1-0.6,0.2-0.9
		c0.1-0.3,0.3-0.7,0.4-1.1c0.1-0.3,0.3-0.6,0.5-0.9c0.2-0.3,0.3-0.6,0.4-1c0.5-1.5,0.9-2.9,1.2-4.2c0.3-1.3,0.4-2.4,0.4-3.4
		c0-1.3-0.2-2.2-0.6-2.9c-0.4-0.7-1-1-1.8-1.1c-0.5,0.3-1.1,0.7-1.7,1.2c-0.6,0.5-1.2,1.2-1.9,2c-0.7,0.9-1.3,1.5-1.8,2.1
		c-0.5,0.5-1,0.9-1.3,1.1c-0.2,0.4-0.6,0.8-1,1.2c-0.5,0.4-1.1,0.9-1.9,1.5c0,0.1-0.1,0.2-0.2,0.4c-0.1,0.2-0.2,0.4-0.5,0.6
		c-0.2-0.5-0.4-1.1-0.6-1.6C134.8,42.9,134.5,42.4,134.2,41.8z"/>
	<path class="st0" d="M157.9,41.8l0.1-0.3c0.1-0.2,0.3-0.4,0.5-0.7c0.2-0.3,0.5-0.6,0.8-1c1.7-1.6,3.3-3.4,4.9-5.6
		c1.6-2.2,3.2-4.7,4.7-7.5c0.2-0.3,0.4-0.6,0.6-1c0.2-0.4,0.5-1,0.8-1.6c0-0.1,0-0.2-0.1-0.3s-0.2-0.1-0.4-0.1c-0.1,0-0.4,0-0.7,0.1
		c-0.3,0.1-0.6,0.1-0.7,0.1h-4.4c-0.2,0-0.5,0-0.9,0c-0.4,0-0.8,0-0.9,0c-0.2-0.1-0.5-0.2-0.7-0.3c-0.2-0.1-0.4-0.2-0.6-0.3
		c-0.3-0.1-0.5-0.2-0.7-0.4c-0.2-0.2-0.2-0.3-0.2-0.5c0-1.5,0.2-2.7,0.5-3.5c0.3-0.8,0.8-1.2,1.5-1.2c0.7,0,1.3,0,1.9,0.1
		c0.6,0.1,1.1,0.1,1.5,0.2c0.4-0.1,0.7-0.1,1-0.2c0.6,0,1.2,0,1.6,0.1c0.4,0,0.8,0.1,1,0.2c0.3-0.1,0.6-0.1,0.9-0.2
		c0.3-0.1,0.6-0.1,1-0.2l1.2,0.4c0.8-0.1,1.7-1.3,2.6-3.5c0.9-2.2,1.9-3.3,3-3.3c0.6,0,1,0.2,1.3,0.5c0.3,0.4,0.5,0.9,0.5,1.6
		c0,0.5-0.2,1.3-0.5,2.1c-0.3,0.9-0.5,1.6-0.6,2c0,0.1,0.1,0.2,0.2,0.3c0.1,0.1,0.2,0.2,0.4,0.4c0.1,0.1,0.2,0.3,0.3,0.5
		c0.1,0.2,0.1,0.5,0.1,0.8c0,1.4-0.1,2.5-0.2,3.3c-0.1,0.8-0.3,1.2-0.6,1.2l-2.4,0.5c0,0.2-0.1,0.5-0.2,0.9
		c-0.1,0.3-0.2,0.7-0.3,1.2c-0.4,1.2-0.9,2.7-1.4,4.5c-0.5,1.8-1.1,4-1.7,6.5c-0.4,2-0.7,3.6-0.9,4.8c-0.2,1.2-0.3,2.1-0.3,2.5
		c0,0.4,0.1,0.7,0.2,0.9c0.1,0.2,0.3,0.3,0.5,0.3c0.1,0,0.7-0.3,1.5-1c0.9-0.7,2.1-1.7,3.7-3.1l1.4,3.3c-0.2,0.3-0.6,0.6-1,0.9
		c-0.4,0.4-0.9,0.7-1.5,1.1c-0.2,0.3-0.5,0.6-0.9,0.9c-0.4,0.3-0.7,0.7-1.2,1.1c-0.4,0.5-0.8,0.9-1.3,1.4s-0.8,0.9-1.3,1.4
		c-0.6,0.6-1.1,1.1-1.7,1.3c-0.5,0.3-1.1,0.4-1.5,0.4c-1,0-1.8-0.3-2.3-0.9c-0.5-0.6-0.8-1.5-0.8-2.8c0-1.4,0-2.6,0.1-3.6
		c0.1-1,0.2-1.8,0.5-2.4c0.1-0.2,0.2-0.4,0.2-0.5c0-0.2,0-0.6,0.1-1c0.1-0.4,0.2-0.9,0.2-1.4c0.1-0.9,0.3-1.8,0.5-2.8
		c0.3-0.6,0.5-1.2,0.8-1.8c0-0.1-0.1-0.2-0.3-0.3l-0.4,0.2c-0.4,0.6-0.8,1.2-1.4,1.8c-0.6,0.6-1.2,1.3-2,2c-1.2,1.2-2.4,2.3-3.7,3.5
		c-0.1,0.1-0.2,0.3-0.4,0.5c-0.2,0.2-0.4,0.5-0.6,0.9c-0.1-0.3-0.3-0.6-0.4-1.1c-0.2-0.4-0.4-0.9-0.6-1.5c0-0.1-0.1-0.3-0.2-0.4
		C158.1,42,158,41.9,157.9,41.8z"/>
	<path class="st0" d="M195.7,41.8c0.2-0.2,0.3-0.4,0.5-0.7c0.2-0.3,0.4-0.6,0.6-0.9l2.7-1.9c0.3-0.4,0.8-0.9,1.5-1.5
		c0.7-0.6,1.5-1.4,2.6-2.3c0.1-0.3,0.3-0.6,0.6-0.9c0.3-0.3,0.6-0.7,1-1c0.3-0.3,0.7-0.6,1-0.9c0.3-0.3,0.6-0.5,0.9-0.8
		c0.4-0.4,0.7-0.7,1-1.1c0.3-0.4,0.6-0.7,1-1c0.4-0.3,0.8-0.6,1.2-0.8c0.4-0.2,0.8-0.3,1.3-0.3c0.5,0,0.9,0.1,1.2,0.2
		c0.3,0.1,0.4,0.3,0.4,0.6c-0.2,0.5-0.5,1.1-0.7,1.6l0.2,0.3c1-0.4,1.9-0.7,2.4-0.9c0.6-0.2,1-0.3,1.1-0.3c1.7,0,3,0.5,3.9,1.6
		c0.9,1.1,1.3,2.6,1.3,4.8c0,0.4,0,0.9-0.1,1.4c-0.1,0.5-0.2,1.1-0.5,1.8c-0.2,0.7-0.5,1.3-0.8,1.8c-0.3,0.5-0.5,0.8-0.8,1
		c0.1,0.3,0.2,0.5,0.3,0.7c0.1,0.1,0.3,0.2,0.5,0.2c0.2,0,0.4-0.1,0.6-0.2c0.2-0.1,0.4-0.3,0.7-0.5c0.2,0.5,0.5,1.1,0.7,1.6
		c0.2,0.6,0.5,1.1,0.7,1.6c-0.4,0.4-0.8,0.7-1.2,1.1c-0.4,0.4-0.8,0.7-1.3,1c-0.5,0.4-1.1,0.8-1.5,1c-0.5,0.2-1,0.3-1.4,0.3
		c-0.5,0-1-0.1-1.3-0.4c-0.4-0.3-0.6-0.6-0.9-1.1c-0.6,0.8-1.3,1.5-2.1,2.1c-0.8,0.7-1.8,1.2-2.8,1.6c-0.6,0.3-1.1,0.5-1.6,0.7
		c-0.5,0.2-0.9,0.2-1.3,0.2c-0.1,0-0.3,0-0.7,0.1c-0.3,0.1-0.6,0.1-0.8,0.1c-1.3,0-2.6-0.6-3.7-1.7c-1.1-1.1-1.6-2.4-1.6-3.8
		c0-0.6,0.1-1.3,0.4-2.3c0.3-0.9,0.4-1.5,0.4-1.6c0-0.2-0.1-0.3-0.2-0.4c-0.1-0.1-0.3-0.2-0.4-0.2c-0.1,0-0.4,0.2-0.9,0.5
		c-0.4,0.4-1.1,0.9-1.9,1.5c-0.1,0.1-0.2,0.2-0.2,0.4c-0.1,0.2-0.2,0.4-0.5,0.6c-0.2-0.5-0.4-1.1-0.6-1.6S196,42.3,195.7,41.8z
		 M212.8,35.3c-0.1,0-0.3,0.1-0.5,0.4c-0.2,0.2-0.4,0.5-0.7,0.8c-0.3,0.5-0.7,1.1-1.1,1.8c-0.3,0.3-0.5,0.5-0.8,0.7
		c-0.3,0.2-0.6,0.3-1,0.3c-0.2,0-0.5,0.3-0.7,0.7c-0.3,0.4-0.5,1.1-0.8,1.9c-0.3,0.7-0.5,1.4-0.6,1.9c-0.1,0.5-0.2,1-0.2,1.3
		c0,0.7,0.2,1.2,0.5,1.5s0.8,0.5,1.5,0.5c1.1,0,2.1-0.3,3-0.9c0.9-0.6,1.8-1.5,2.6-2.7c0.4-0.4,0.7-0.9,1.1-1.3
		c0.2-0.1,0.3-0.4,0.5-0.7c0.1-0.3,0.2-0.7,0.4-1.2l0.6-2c-0.2-0.7-0.4-1.3-0.6-1.7c-0.2-0.4-0.4-0.7-0.6-0.8
		c-0.1-0.1-0.4-0.1-0.8-0.2C214.1,35.5,213.5,35.4,212.8,35.3z"/>
	<path class="st0" d="M221.4,41.8c0.1-0.2,0.2-0.3,0.4-0.6c0.2-0.2,0.3-0.4,0.5-0.7c0.6-0.8,1-1.5,1.4-2.1c0.4-0.6,0.6-1.1,0.8-1.4
		c0.3-0.6,0.6-1.3,0.8-1.9c0.2-0.7,0.4-1.3,0.5-2.1c0.5-3.4,1.3-7,2.5-10.9c1.2-3.9,2.7-8.1,4.5-12.5c0.7-1.6,1.4-2.7,2.1-3.5
		c0.8-0.8,1.5-1.2,2.3-1.2c0.6,0,1.1,0.1,1.5,0.4c0.4,0.2,0.6,0.6,0.7,1.2c0,0.2,0.1,0.6,0.1,1.1c0,0.5,0.1,1.2,0.1,2
		c0,0.2-0.2,1.9-0.6,5.1c-0.4,1.6-0.9,3.6-1.6,5.9c-0.7,2.4-1.5,5.1-2.6,8.2c-0.2,0.4-0.5,1-0.8,1.6c-0.3,0.7-0.7,1.5-1.1,2.4
		c-0.1,0.2-0.1,0.4-0.2,0.7c-0.1,0.3-0.2,0.6-0.3,0.9c-0.2,0.2-0.3,0.4-0.5,0.8c-0.2,0.4-0.4,0.9-0.7,1.4c-0.4,1.3-0.8,3-1.2,5
		c-0.4,2-0.8,4.4-1.1,7.1c-0.3,2.6-0.6,4.9-0.7,6.9c-0.2,2-0.2,3.8-0.2,5.3c0,0.6,0.1,1.2,0.1,1.8c0.1,0.7,0.1,1.3,0.2,1.7
		c0.1,0.4,0.2,0.6,0.3,0.6c0.3,0,0.8-0.7,1.5-2.2c0.7-1.5,1.6-3.6,2.7-6.5l-0.1-0.7c0.1-0.2,0.2-0.5,0.4-0.8s0.3-0.8,0.4-1.3
		c0.6-1.9,1-3.4,1.3-4.4c0.3-1.1,0.5-1.6,0.5-1.8c0.3-0.9,0.8-1.9,1.3-2.8c0.5-0.9,1.1-1.8,1.8-2.6c0.4,0.7,0.6,1.3,0.9,1.9
		s0.4,1,0.6,1.4c-0.3,0.4-0.7,1-1,1.6c-0.3,0.7-0.6,1.4-0.7,2.1c-0.2,0.7-0.4,1.3-0.5,2c-0.2,0.7-0.3,1.4-0.5,2
		c-1.2,4.5-2.3,8.3-3.5,11.3c-1.1,3-2.2,5.2-3.2,6.7c-0.2,0.3-0.4,0.6-0.6,0.9c-0.2,0.3-0.4,0.6-0.6,0.9c-0.3,0.3-0.6,0.6-0.9,0.7
		s-0.6,0.3-1,0.3c-1,0-1.8-0.2-2.4-0.7c-0.6-0.5-1-1.1-1.3-2c-0.1-0.8-0.2-1.5-0.3-2.3c-0.1-0.7-0.2-1.5-0.3-2.2
		c-0.1-0.5-0.2-1-0.3-1.5c-0.1-0.5-0.1-1.1-0.1-1.7v-5.4c0-0.3,0.1-0.7,0.2-1.2c0.1-0.5,0.2-1,0.2-1.2c-0.1-0.7-0.3-1.4-0.4-2.2
		c0.1-0.8,0.2-1.9,0.4-3.1c0.2-1.3,0.4-2.7,0.7-4.3l-0.9-0.8c-0.1-0.3-0.3-0.7-0.5-1.3C222.1,43.3,221.7,42.6,221.4,41.8z M235.3,18
		c-0.1,0-0.2,0.1-0.3,0.3c-0.1,0.2-0.1,0.4-0.3,0.8c0,0.2-0.1,0.6-0.2,1s-0.3,0.9-0.6,1.5c-0.2,0.5-0.3,1-0.4,1.4
		c-0.1,0.4-0.2,0.7-0.2,0.9l0.2,0.3l0.5-0.5c0-0.4,0.1-0.7,0.3-1.2c0.2-0.4,0.4-0.9,0.7-1.5c0.2-0.5,0.4-0.9,0.5-1.3
		c0.1-0.4,0.2-0.7,0.2-0.9c0-0.3,0-0.5-0.1-0.6C235.6,18,235.5,18,235.3,18z"/>
	<path class="st0" d="M265.2,0c0.5,0,1,0.1,1.3,0.2c0.4,0.2,0.7,0.3,0.9,0.6c0.2,0.2,0.4,0.5,0.6,0.8c0.2,0.3,0.5,0.8,0.8,1.3
		c0.4,0.7,0.7,1.2,0.8,1.6c0.2,0.4,0.2,0.6,0.2,0.7c-0.2,1.4-0.3,2.7-0.5,3.9c-0.1,1.3-0.2,2.7-0.5,4.1c-0.1,0.3-0.2,0.7-0.2,1.1
		c0.1,0.6,0.2,1.2,0.2,1.9c0.1,0.7,0.1,1.3,0.1,2c0,0.5,0.1,1.1,0.1,1.8c0,0.7,0,1.4-0.1,2.2c0,1,0,1.9-0.1,2.5c0,0.7,0,1.1,0,1.3
		c0,0.2,0,0.4,0,0.6c0,0.2,0.1,0.4,0.1,0.7c0,0.3,0.1,0.7,0.2,1.2v2.2c0,0.9,0.3,3,0.9,6.2c0.6,3.3,0.9,5,1.1,5.2
		c0.2-0.1,0.3-0.2,0.4-0.2l2.8-5c0.1-0.4,0.3-0.9,0.5-1.5c0.2-0.6,0.5-1.4,0.8-2.2c1.1-2.1,2.1-4.8,3-8.1c1-3.3,1.8-7.3,2.7-11.9
		c0.3-1.3,0.7-2.4,1.1-3.2c0.5-0.8,1-1.3,1.5-1.4l3.2-1.1c0.5,0.2,0.9,0.5,1.2,0.9c0.2,0.4,0.4,0.8,0.4,1.4c0,0.7-0.1,1.9-0.4,3.6
		c-0.3,1.6-0.7,3.7-1.2,6.2c0,0.5-0.1,1.2-0.2,2c-0.1,0.8-0.2,1.8-0.4,2.8c-0.2,0.9-0.3,1.5-0.4,2c-0.1,0.5-0.2,0.8-0.2,0.9
		c0,0.6,0,1.3,0,2.1c0,0.8,0,1.7,0.1,2.7c0,1.2,0.1,2.2,0.1,3c0,0.8,0,1.4,0,1.7c0,1.6,0.1,2.8,0.2,3.6c0.1,0.8,0.2,1.2,0.3,1.2
		c0.2,0,0.6-0.5,1.1-1.5c0.5-1,1.1-2.6,1.9-4.6c0.6-1.6,1.1-3,1.6-4.4c0.5-1.4,0.9-2.7,1.3-3.9c0.2-0.3,0.4-0.6,0.6-1.1
		c0.1-0.5,0.2-1.1,0.3-1.8c0.4-1,0.7-2.1,1.1-3.2c0.4-1.1,0.7-2.3,1.1-3.5c0.2-0.7,0.5-1.6,0.8-2.7c0.3-1.1,0.6-2.3,1-3.8l-0.5-1.5
		c0.1-0.3,0.2-0.6,0.3-1.1c0.1-0.4,0.3-0.9,0.4-1.5c0.6-1,1.2-1.8,1.7-2.3c0.5-0.5,0.9-0.8,1.2-0.8c0.2,0,0.4,0.1,0.5,0.4
		c0.1,0.2,0.1,0.6,0.1,1.2c0,1.4,0,2.6-0.1,3.4c-0.1,0.8-0.1,1.3-0.2,1.5c-0.2,0.3-0.3,0.6-0.4,0.9c-0.1,0.3-0.2,0.5-0.3,0.7
		l0.5,1.7c-0.1,0.3-0.3,0.9-0.5,1.8c-0.2,0.9-0.4,2-0.6,3.4c-0.2,1.3-0.4,2.4-0.6,3.2c-0.2,0.8-0.4,1.3-0.5,1.6
		c-0.1,0.4-0.2,1-0.5,1.6c-0.2,0.6-0.5,1.4-0.9,2.3c-0.1,0.3-0.3,0.8-0.5,1.4c-0.2,0.7-0.4,1.4-0.6,2.3c-0.2,0.5-0.4,1.2-0.6,1.9
		c-0.3,0.7-0.6,1.6-0.9,2.7c-0.2,0.3-0.5,0.7-0.7,1.2c-0.2,0.5-0.4,1.2-0.6,2c-0.1,0.4-0.3,0.9-0.7,1.6c-0.3,0.7-0.7,1.6-1.2,2.8
		c-0.5,1.2-0.9,2.1-1.3,2.7c-0.4,0.6-0.6,1-0.7,1.1l-0.9,0.5c-0.2,0.2-0.4,0.4-0.7,0.5c-0.3,0.1-0.7,0.1-1.1,0.1
		c-0.4,0.3-0.8,0.5-1.1,0.6c-0.3,0.1-0.6,0.2-0.8,0.2c-0.9,0-1.6-0.4-2.2-1.1c-0.5-0.7-0.9-1.8-1.2-3.3c-0.1-1-0.1-2-0.2-3.1
		c-0.1-1-0.2-2.1-0.3-3.1c0-0.5-0.1-1.2-0.3-2.1c-0.1-0.9-0.3-1.9-0.6-3.1c-0.5,0.9-1,1.9-1.5,2.9c-0.5,1-1.1,2.1-1.6,3.2
		c0,0.2-0.1,0.7-0.5,1.6c-0.4,0.8-0.9,2-1.5,3.4c-0.7,1.5-1.4,3.1-2.1,4.6c-0.5,0.9-1.1,1.6-1.8,2.1c-0.6,0.5-1.3,0.7-2.1,0.7
		c-0.4,0-0.7-0.3-1.1-0.9c-0.4-0.6-0.7-1.5-1.1-2.7c-0.2-0.7-0.4-1.5-0.6-2.2c-0.2-0.7-0.4-1.5-0.6-2.3c0.1-0.3,0.2-0.6,0.2-0.8
		c-0.2-0.3-0.3-0.8-0.5-1.3c-0.2-0.6-0.4-1.3-0.6-2.1c-0.1-0.5-0.2-1.1-0.3-1.9c-0.1-0.8-0.2-1.7-0.4-2.8c0-0.3,0-0.7-0.1-1
		c0-0.3,0-0.7-0.1-1c0-0.3-0.1-0.5-0.2-0.9c-0.1-0.3-0.3-0.7-0.5-1.1c0-0.1-0.1-0.5-0.1-1c0-0.6-0.1-1.3-0.1-2.3
		c0-0.8-0.1-1.5-0.2-2c-0.1-0.5-0.3-0.9-0.5-1l-1-0.7c-0.1-0.3-0.3-0.8-0.3-1.5c-0.1-0.7-0.1-1.6-0.1-2.6c0-2.7,0.2-5.5,0.5-8.4
		c0.3-2.9,0.8-6,1.4-9.2c0.2-0.8,0.5-1.5,0.9-1.9C264.1,0.2,264.6,0,265.2,0z"/>
	<path class="st0" d="M300.1,41.8c0.3-0.5,0.7-1,1.1-1.5c0.4-0.5,1-1,1.7-1.6c0.1-0.5,0.1-0.9,0.2-1.4c0.1-0.5,0.1-0.9,0.1-1.4
		c0.1-0.3,0.2-0.7,0.3-1.2c0.2-0.4,0.3-0.9,0.5-1.5c0.2-0.5,0.5-1.2,0.9-2c0.4-0.8,0.8-1.7,1.4-2.6c0.5-0.5,1-1.1,1.6-1.8
		c0.5-0.7,1.1-1.3,1.6-2c0.3-0.2,0.5-0.4,0.9-0.6c0.3-0.2,0.6-0.4,0.9-0.6c0.3-0.1,0.6-0.2,1-0.2c0.4-0.1,0.7-0.1,1.2-0.1
		c0.6,0,1.1,0.1,1.4,0.2c0.4,0.1,0.7,0.3,0.9,0.6c0.2,0.2,0.3,0.5,0.5,0.9c0.2,0.4,0.3,0.8,0.4,1.4c0.1,0.5,0.2,1,0.2,1.6
		c0-0.1,0-0.1-0.1,0.2c-0.1,0.3-0.2,0.7-0.4,1.2l-0.3,1.1c-0.3,1.1-1.1,2.4-2.2,3.9s-2.7,3.2-4.7,5.1c-0.2,0.2-0.3,0.4-0.4,0.6
		c-0.1,0.2-0.2,0.5-0.2,0.8c0,0.5,0.1,0.9,0.3,1.3c0.2,0.4,0.4,0.7,0.8,0.9c0.2,0.1,0.5,0.3,0.9,0.4c0.4,0.1,0.9,0.3,1.5,0.4
		c0.9-0.1,1.8-0.2,2.5-0.5c0.8-0.2,1.4-0.5,2-0.9c0.1-0.1,0.3-0.2,0.6-0.3c0.3-0.1,0.5-0.3,0.8-0.5c0.3,0.7,0.6,1.3,0.8,1.8
		c0.2,0.5,0.4,1,0.6,1.4c-1.3,1.3-2.6,2.3-3.7,3c-1.1,0.7-2.1,1-3,1c-0.4,0.2-0.8,0.4-1.3,0.5c-0.5,0.1-1.1,0.2-1.7,0.2
		c-0.9,0-1.6-0.1-2.3-0.4c-0.7-0.3-1.2-0.6-1.7-1.1c-0.2-0.2-0.5-0.6-0.7-1c-0.2-0.5-0.5-1-0.7-1.6c-0.2-0.5-0.4-0.9-0.6-1.2
		c-0.2-0.2-0.4-0.4-0.6-0.4c-0.2,0-0.4,0.1-0.6,0.3c-0.2,0.2-0.5,0.4-0.8,0.8c-0.1-0.4-0.3-0.8-0.5-1.3
		C300.8,43.3,300.5,42.6,300.1,41.8z M311.5,30.3c-0.5,0-1.2,0.7-2.1,2c-0.9,1.4-1.3,2.4-1.3,3c0,0.1,0,0.2,0.1,0.3
		c0.1,0.1,0.2,0.1,0.4,0.1c0.3,0,0.5-0.1,0.6-0.4c0.2-0.3,0.3-0.5,0.5-0.8c0.3-0.2,0.5-0.5,0.8-0.8c0.2-0.3,0.5-0.5,0.7-0.8
		c0.3-0.3,0.5-0.7,0.6-1c0.1-0.3,0.2-0.7,0.2-1c0-0.2,0-0.4-0.1-0.5C311.8,30.4,311.6,30.3,311.5,30.3z"/>
	<path class="st0" d="M318,41.8l0.2-0.2l0.1-0.4c0.4-0.5,0.8-0.9,1.1-1.2c0.3-0.3,0.5-0.5,0.7-0.7c0.1-0.1,0.4-0.3,0.8-0.5
		c0.4-0.2,0.9-0.4,1.6-0.7l0.5-0.3c0.2-0.3,0.5-0.6,0.9-1.1c0.4-0.5,0.9-1.1,1.5-1.7c0.1-0.1,0.3-0.3,0.5-0.5
		c0.2-0.2,0.5-0.4,0.7-0.6c0.6-0.5,1.1-1.1,1.7-1.7c0.6-0.6,1.1-1.2,1.6-1.7c0.2-0.2,0.7-0.6,1.3-1.2c0.7-0.6,1.6-1.3,2.7-2.3
		c0.2-0.1,0.5-0.3,0.9-0.5c0.4-0.2,1-0.5,1.7-0.8c0.3-0.1,0.5-0.4,0.7-0.7c0.2-0.3,0.2-0.7,0.2-1.2c0.2-0.3,0.4-0.7,0.6-1.1
		c0.2-0.4,0.3-1,0.5-1.5c0.2-0.7,0.4-1.3,0.5-1.8c0.1-0.5,0.2-0.8,0.3-0.9c0.4-1.1,0.9-2.3,1.6-3.7c0.7-1.4,1.5-3.1,2.4-4.9
		c0.5-1,1-2,1.7-3.2c0.4-0.6,0.9-1,1.3-1.3c0.5-0.3,1-0.4,1.6-0.4c0.4,0,0.7,0.2,0.9,0.5s0.3,0.8,0.3,1.5c0,1-0.1,2-0.2,2.9
		c-0.1,0.9-0.4,1.8-0.8,2.6c-0.1,0.2-0.1,0.4-0.2,0.7c0,0.3-0.1,0.7-0.1,1.2c0,0.3-0.1,0.7-0.3,1c-0.2,0.3-0.3,0.6-0.6,0.9
		c0,0.2,0,0.4-0.1,0.6c0,0.2-0.1,0.5-0.1,0.8l-0.5,0.6c0,0.1-0.1,0.3-0.1,0.5c0,0.2,0,0.4,0,0.6c0,0.1-0.1,0.4-0.2,0.8
		c-0.2,0.4-0.4,1-0.7,1.8c-0.4,0.8-0.7,1.4-0.9,1.9c-0.2,0.5-0.3,0.8-0.4,0.9c-0.1,0.1-0.2,0.3-0.4,0.6c-0.2,0.3-0.3,0.6-0.6,0.9
		l0.1,0.8l-2.3,8.2c0,0.9,0,1.7,0,2.3c0,0.6,0.1,1.1,0.2,1.5c0.1,0.4,0.3,0.9,0.6,1.5c0.3,0.6,0.6,1.2,1,1.9c0.3,0.4,0.6,0.8,0.9,1
		c0.4,0.2,0.7,0.3,1.1,0.3c0.4,0,0.9-0.1,1.4-0.4c0.5-0.2,0.9-0.6,1.4-1.2c0.3,0.6,0.6,1.2,0.8,1.7c0.2,0.5,0.5,1.1,0.6,1.5
		c-0.1,0.1-0.4,0.3-0.8,0.7c-0.4,0.4-0.9,1-1.5,1.8c-0.4,0.4-0.8,0.8-1.4,1c-0.6,0.2-1.2,0.3-2,0.3c-1.8,0-3.2-0.5-4.3-1.4
		c-1.1-0.9-1.9-2.3-2.3-4.2c-0.1-0.4-0.2-0.7-0.2-1c-0.1-0.3-0.1-0.5-0.2-0.8c-0.2-0.4-0.5-0.9-0.9-1.5c-0.2,0.2-0.3,0.4-0.4,0.5
		c-0.3,0.2-0.6,0.5-0.9,0.8c-0.3,0.4-0.7,0.8-1,1.3c-0.1,0.2-0.2,0.5-0.4,0.9c-0.2,0.3-0.5,0.8-0.8,1.2c-0.8,0.9-1.5,1.8-2.3,2.6
		c-0.8,0.9-1.6,1.8-2.3,2.6c-1.1,1.2-2,2.1-2.9,2.6c-0.9,0.6-1.7,0.8-2.3,0.8c-1.2,0-2.1-0.3-2.6-0.8c-0.6-0.6-0.9-1.4-0.9-2.6
		c0-0.5,0.2-1.3,0.6-2.3c0.4-1,0.6-1.7,0.6-2.2l-0.2-0.6L318,41.8z M335.8,31.7c0-0.1,0-0.3-0.1-0.5c-0.4,0.4-0.8,0.8-1.3,1.2
		c-0.5,0.5-1.1,1-1.8,1.6c-0.2,0.4-0.5,1-1.1,1.8c-0.6,0.8-1.4,1.8-2.5,3c-0.3,0.4-0.7,1-1.2,1.8c-0.5,0.9-1.2,1.9-1.9,3.2
		c-0.3,0.5-0.5,1.1-0.8,1.8c0,0.1,0.1,0.3,0.3,0.5c0.7-0.2,1.6-0.8,2.6-1.9c1-1,2.3-2.5,3.7-4.3c1.5-1.9,2.6-3.6,3.3-4.9
		C335.5,33.6,335.8,32.5,335.8,31.7z"/>
	<path class="st0" d="M347.6,41.8l0.2-0.2l0.1-0.4c0.4-0.5,0.8-0.9,1.1-1.2c0.3-0.3,0.5-0.5,0.7-0.7c0.1-0.1,0.4-0.3,0.8-0.5
		c0.4-0.2,0.9-0.4,1.6-0.7l0.5-0.3c0.2-0.3,0.5-0.6,0.9-1.1c0.4-0.5,0.9-1.1,1.5-1.7c0.1-0.1,0.3-0.3,0.5-0.5
		c0.2-0.2,0.5-0.4,0.7-0.6c0.6-0.5,1.1-1.1,1.7-1.7c0.6-0.6,1.1-1.2,1.6-1.7c0.2-0.2,0.7-0.6,1.3-1.2c0.7-0.6,1.6-1.3,2.7-2.3
		c0.2-0.1,0.5-0.3,0.9-0.5c0.4-0.2,1-0.5,1.7-0.8c0.3-0.1,0.5-0.4,0.7-0.7c0.2-0.3,0.2-0.7,0.2-1.2c0.2-0.3,0.4-0.7,0.6-1.1
		c0.2-0.4,0.3-1,0.5-1.5c0.2-0.7,0.4-1.3,0.5-1.8c0.1-0.5,0.2-0.8,0.3-0.9c0.4-1.1,0.9-2.3,1.6-3.7c0.7-1.4,1.5-3.1,2.4-4.9
		c0.5-1,1-2,1.7-3.2c0.4-0.6,0.9-1,1.3-1.3c0.5-0.3,1-0.4,1.6-0.4c0.4,0,0.7,0.2,0.9,0.5s0.3,0.8,0.3,1.5c0,1-0.1,2-0.2,2.9
		c-0.1,0.9-0.4,1.8-0.8,2.6c-0.1,0.2-0.1,0.4-0.2,0.7c0,0.3-0.1,0.7-0.1,1.2c0,0.3-0.1,0.7-0.3,1c-0.2,0.3-0.3,0.6-0.6,0.9
		c0,0.2,0,0.4-0.1,0.6c0,0.2-0.1,0.5-0.1,0.8L376,18c0,0.1-0.1,0.3-0.1,0.5c0,0.2,0,0.4,0,0.6c0,0.1-0.1,0.4-0.2,0.8
		c-0.2,0.4-0.4,1-0.7,1.8c-0.4,0.8-0.7,1.4-0.9,1.9c-0.2,0.5-0.3,0.8-0.4,0.9c-0.1,0.1-0.2,0.3-0.4,0.6c-0.2,0.3-0.3,0.6-0.6,0.9
		l0.1,0.8l-2.3,8.2c0,0.9,0,1.7,0,2.3c0,0.6,0.1,1.1,0.2,1.5c0.1,0.4,0.3,0.9,0.6,1.5c0.3,0.6,0.6,1.2,1,1.9c0.3,0.4,0.6,0.8,0.9,1
		c0.4,0.2,0.7,0.3,1.1,0.3c0.4,0,0.9-0.1,1.4-0.4c0.5-0.2,0.9-0.6,1.4-1.2c0.3,0.6,0.6,1.2,0.8,1.7c0.2,0.5,0.5,1.1,0.6,1.5
		c-0.1,0.1-0.4,0.3-0.8,0.7c-0.4,0.4-0.9,1-1.5,1.8c-0.4,0.4-0.8,0.8-1.4,1c-0.6,0.2-1.2,0.3-2,0.3c-1.8,0-3.2-0.5-4.3-1.4
		c-1.1-0.9-1.9-2.3-2.3-4.2c-0.1-0.4-0.2-0.7-0.2-1c-0.1-0.3-0.1-0.5-0.2-0.8c-0.2-0.4-0.5-0.9-0.9-1.5c-0.2,0.2-0.3,0.4-0.4,0.5
		c-0.3,0.2-0.6,0.5-0.9,0.8c-0.3,0.4-0.7,0.8-1,1.3c-0.1,0.2-0.2,0.5-0.4,0.9c-0.2,0.3-0.5,0.8-0.8,1.2c-0.8,0.9-1.5,1.8-2.3,2.6
		c-0.8,0.9-1.6,1.8-2.3,2.6c-1.1,1.2-2,2.1-2.9,2.6c-0.9,0.6-1.7,0.8-2.3,0.8c-1.2,0-2.1-0.3-2.6-0.8s-0.9-1.4-0.9-2.6
		c0-0.5,0.2-1.3,0.6-2.3c0.4-1,0.6-1.7,0.6-2.2l-0.2-0.6L347.6,41.8z M365.5,31.7c0-0.1,0-0.3-0.1-0.5c-0.4,0.4-0.8,0.8-1.3,1.2
		c-0.5,0.5-1.1,1-1.8,1.6c-0.2,0.4-0.5,1-1.1,1.8c-0.6,0.8-1.4,1.8-2.5,3c-0.3,0.4-0.7,1-1.2,1.8c-0.5,0.9-1.2,1.9-1.9,3.2
		c-0.3,0.5-0.5,1.1-0.8,1.8c0,0.1,0.1,0.3,0.3,0.5c0.7-0.2,1.6-0.8,2.6-1.9c1-1,2.3-2.5,3.7-4.3c1.5-1.9,2.6-3.6,3.3-4.9
		C365.1,33.6,365.5,32.5,365.5,31.7z"/>
	<path class="st0" d="M377.3,41.8l0.2-0.2l0.1-0.4c0.6-0.9,1.8-2,3.4-3.4c1.6-1.4,2.7-2.5,3.3-3.4c0.2-0.4,0.5-0.7,0.8-0.8
		c0.3-0.2,0.6-0.2,0.9-0.2c0.8,0,1.5,0.2,2.1,0.6c0.6,0.4,0.9,1,1.1,1.9c0.2,0.7,0.3,1.5,0.5,2.2c0.1,0.7,0.3,1.5,0.4,2.3
		c0.2,0.5,0.4,1.2,0.6,2.1c0.2,1,0.4,1.5,0.5,1.6c0.1,0.2,0.3,0.4,0.5,0.5c0.2,0.1,0.5,0.2,0.9,0.2c0.4,0,0.9-0.1,1.3-0.2
		c0.4-0.2,0.9-0.4,1.4-0.8c0.4-0.3,0.7-0.6,1.1-0.9s0.8-0.6,1.2-0.9l1.4,3.3c-0.4,0.4-0.9,0.8-1.5,1.3c-0.6,0.5-1.4,1-2.3,1.7
		c-1,0.7-1.8,1.2-2.5,1.6c-0.7,0.3-1.2,0.5-1.6,0.5c-2.2,0-3.5-0.2-4.2-0.7c-0.6-0.5-1.3-1.9-2.1-4.2c-0.1-0.2-0.2-0.4-0.4-0.7
		c-0.2-0.3-0.4-0.6-0.6-0.9c-0.3-0.5-0.5-1-0.7-1.2c-0.2-0.3-0.4-0.4-0.5-0.4c-0.4,0-0.9,0.3-1.5,0.8c-0.6,0.5-1.4,1.3-2.3,2.3
		c-0.1-0.3-0.3-0.7-0.4-1.1c-0.2-0.4-0.4-0.9-0.6-1.5c0-0.1-0.1-0.3-0.2-0.4C377.5,42,377.4,41.9,377.3,41.8z M392.1,13.8
		c0.6,0,1,0.1,1.3,0.4c0.3,0.2,0.4,0.6,0.4,1c-0.1,0.7-0.3,1.2-0.4,1.7c-0.2,0.9-0.4,1.5-0.6,2.1c-0.2,0.5-0.3,0.9-0.4,1.2
		c-0.2,0.5-0.5,1-0.9,1.4c-0.4,0.4-0.8,0.7-1.3,1c-0.5,0.4-1,0.6-1.4,0.8c-0.4,0.2-0.6,0.2-0.8,0.2c-0.4,0-0.8-0.1-1.2-0.1
		c-0.4,0-0.7-0.1-1.1-0.1c-0.3-0.2-0.6-0.5-0.7-1c-0.2-0.5-0.3-1.1-0.3-1.9c0-0.7,0.4-1.6,1.3-2.7c0.9-1.1,1.6-1.6,2.3-1.7
		c0.4-0.5,0.9-1.1,1.4-1.7c0.2-0.2,0.5-0.3,0.9-0.4C391.2,13.9,391.6,13.8,392.1,13.8z"/>
	<path class="st0" d="M397.6,41.8c0.1-0.2,0.2-0.3,0.4-0.6c0.2-0.2,0.3-0.4,0.5-0.7c0.2-0.2,0.5-0.5,0.9-0.8
		c0.4-0.4,0.8-0.8,1.3-1.2c0.4-0.5,0.9-1.1,1.6-1.8c0.6-0.7,1.4-1.5,2.2-2.5c0.4-0.4,0.9-0.9,1.4-1.5c0.6-0.6,1.2-1.4,2-2.3
		c0.7-0.8,1.4-1.4,2.1-1.7c0.8-0.4,1.6-0.6,2.4-0.6c0.9,0,1.5,0.3,1.9,0.8c0.4,0.5,0.6,1.3,0.6,2.3c0,0.5-0.2,1.6-0.6,3.1
		c-0.4,1.5-1,3.6-1.9,6.1c-0.2,0.5-0.4,0.9-0.6,1.3c-0.1,0.3-0.2,0.6-0.3,0.8s-0.1,0.4-0.1,0.5c0,0.1,0.1,0.3,0.2,0.5
		c0.1-0.1,0.2-0.2,0.3-0.3c0.1-0.1,0.2-0.3,0.4-0.4c0.2-0.4,0.5-0.7,0.9-1.1c0.4-0.4,0.9-0.8,1.4-1.3c0.2-0.4,0.5-0.8,0.8-1.2
		c0.3-0.4,0.7-0.8,1.2-1.1c0.1-0.1,0.2-0.2,0.4-0.5c0.2-0.2,0.3-0.4,0.6-0.7c0.3-0.3,0.7-0.6,1.1-1c0.4-0.3,0.9-0.7,1.5-1
		c0.6-0.3,1.2-0.6,1.7-0.8s1-0.3,1.3-0.3c0.7,0,1.4,0.2,1.9,0.5c0.6,0.4,1.1,0.9,1.5,1.7c0.5,1.5,0.9,2.8,1.3,4.1
		c0.3,0.7,0.6,1.3,0.9,1.6c0.3,0.4,0.7,0.5,1.1,0.5c0.3,0,0.6-0.1,0.8-0.2c0.2-0.1,0.5-0.3,0.7-0.5l1.4,3.3c-0.4,0.3-0.8,0.7-1.2,1
		c-0.4,0.4-0.8,0.7-1.2,1c-0.5,0.5-1.1,0.8-1.5,1c-0.5,0.2-0.9,0.3-1.4,0.3c-0.5,0-1.1-0.1-1.6-0.4c-0.5-0.2-0.9-0.6-1.3-1.1
		c-0.2-0.2-0.4-0.5-0.7-1c-0.3-0.5-0.6-1.1-1-1.9c-0.3-0.3-0.7-0.7-1-1.2c-0.4-0.5-0.8-1.1-1.4-1.8l-0.3-0.1
		c-0.5,0.1-0.9,0.4-1.3,0.6c-0.4,0.3-0.9,0.7-1.4,1.1c-1.1,0.9-1.8,1.5-2.3,1.8s-0.8,0.5-1,0.8c-0.3,0.6-0.9,1.3-1.7,2.2
		c-0.8,0.9-1.8,2-3,3.2c-0.3,0.3-0.6,0.6-0.9,0.9c-0.3,0.3-0.6,0.6-0.9,0.9c-0.3,0.3-0.7,0.4-1,0.6c-0.4,0.1-0.8,0.2-1.3,0.2
		c-0.9,0-1.5-0.3-1.5-1c-0.1-0.6-0.2-1.3-0.2-2c0.4-1,0.8-2.2,1.2-3.7c0.5-1.5,1-3.2,1.6-5.2c0-0.1,0-0.3,0.1-0.5
		c0.1-0.2,0.2-0.5,0.3-0.8c0.1-0.3,0.2-0.6,0.2-0.8c0-0.2,0.1-0.4,0.1-0.6c0-0.2-0.1-0.3-0.2-0.4c-0.1-0.1-0.3-0.1-0.6-0.1
		c-0.2,0-0.5,0.1-0.9,0.4c-0.4,0.3-0.9,0.7-1.4,1.3c-0.7,0.7-1.2,1.3-1.6,1.7c-0.4,0.4-0.7,0.6-0.8,0.7c-0.2,0.2-0.5,0.4-0.8,0.7
		c-0.3,0.3-0.7,0.7-1.1,1c0,0.1-0.1,0.2-0.2,0.4c-0.1,0.2-0.2,0.4-0.5,0.6c-0.1-0.4-0.3-0.8-0.5-1.3
		C398.3,43.3,397.9,42.6,397.6,41.8z"/>
	<path class="st0" d="M431.5,41.8c0.2-0.2,0.4-0.5,0.6-0.8c0.2-0.3,0.5-0.7,0.9-1.2c0.3-0.3,0.7-0.6,1.1-1c0.4-0.4,0.9-1,1.3-1.6
		c0.2-0.4,0.4-0.8,0.7-1.3c0.3-0.5,0.6-1.1,0.9-1.7c0.1-0.6,0.5-1.4,1-2.2c0.5-0.8,1.2-1.7,2.2-2.7c1.3-1.4,2.7-3,4.1-4.6
		c0.7-1.1,1.5-1.9,2.4-2.4c0.9-0.5,1.8-0.8,2.8-0.8c0.7,0,1.2,0.3,1.5,0.9c0.3,0.6,0.5,1.5,0.5,2.6c0,0.4-0.3,1.1-0.9,2
		c-0.6,0.9-1.5,2-2.6,3.4c-0.7,0.9-1.5,1.7-2.3,2.6c-0.8,0.9-1.6,1.7-2.4,2.6c-0.4,0.3-0.7,0.7-1.1,1.1c-0.4,0.4-0.8,0.8-1.3,1.3
		c-0.1,0.5-0.3,1.1-0.5,1.7c0,0.9,0.1,1.7,0.2,2.4c0.1,0.7,0.3,1.2,0.5,1.7c0.1,0.2,0.4,0.5,0.8,1.1c0.4,0.6,0.9,1.3,1.6,2.3
		c0.2,0.2,0.4,0.5,0.6,0.7c0.2,0.2,0.5,0.5,0.8,0.7c0.4-0.1,1-0.8,2.1-1.9c1-1.1,2.4-2.7,4.1-4.8l1.3,3.3c-0.2,0.2-0.5,0.6-0.9,1.2
		c-0.5,0.6-1,1.3-1.7,2.3c-0.8,1-1.5,2.1-2.3,3.2c0,0.2,0.1,0.5,0.3,0.8c0.2,0.3,0.5,0.6,0.8,1c0.6,0.7,1.1,1.6,1.6,2.8
		c0.4,1.1,0.8,2.5,1,4.2c0,0.1-0.1,0.3-0.1,0.6c0,0.3-0.1,0.6-0.1,0.9c-0.3,2.7-2,5.4-5,8.2c-3.1,2.7-6,4.1-8.7,4.1
		c-1.3,0-2.3-0.2-3-0.5c-0.7-0.3-1.3-0.8-1.6-1.4c-0.1-0.3-0.2-0.9-0.3-1.8c-0.1-0.9-0.1-2.1-0.1-3.6c0-0.1,0.1-0.4,0.2-0.8
		c0.1-0.4,0.3-1,0.7-1.7c0.2-0.5,0.4-1,0.7-1.5c0.3-0.5,0.6-1.1,0.9-1.6c0.3-0.5,0.7-1,1-1.5c0.3-0.5,0.7-0.9,1-1.4
		c0.8-0.8,1.4-1.6,2-2.2c0.5-0.4,0.8-0.9,1-1.3c0.2-0.4,0.4-0.8,0.4-1.1c-0.8-1.1-1.6-2.2-2.4-3.2c-0.8-1.1-1.5-2.1-2.1-3.2
		c-0.5-1.1-0.9-2.2-1-3.3c0-0.1-0.1-0.4-0.3-0.7c-0.5,0.5-1.1,1.1-1.6,1.6c-0.1-0.4-0.3-0.8-0.5-1.3
		C432.2,43.3,431.9,42.6,431.5,41.8z M443.1,56.7c-0.1,0-0.5,0.3-1,1c-0.5,0.7-1.2,1.6-2.1,2.9c-0.5,0.8-1,1.6-1.5,2.4
		c-0.5,0.8-1,1.6-1.6,2.4c-0.2,0.3-0.5,0.9-0.8,1.8c-0.4,1-0.5,1.6-0.5,1.8c0,0.4,0.1,0.8,0.4,1c0.2,0.2,0.6,0.3,1.2,0.3
		c1.8,0,3.7-1,5.6-3c1.9-2,2.9-3.9,2.9-5.7c0-0.4-0.1-0.8-0.2-1.3c-0.1-0.5-0.3-1.1-0.6-1.7c-0.3-0.7-0.6-1.2-0.9-1.5
		C443.7,56.9,443.4,56.7,443.1,56.7z"/>
	<path class="st0" d="M477.6,11.7c-0.1-0.3-0.3-0.8-0.7-1.3c-0.3-0.6-0.8-1.3-1.3-2.1c-0.5-0.8-0.9-1.4-1.2-1.8
		c-0.3-0.4-0.4-0.7-0.4-0.9c0-0.7,0.8-1.8,2.3-3.3S479,0,479.7,0c0.5,0.2,0.9,0.4,1.1,0.6h1.1c0.6,0.3,1.3,0.6,2,0.9
		c0.7,0.3,1.3,0.6,2,0.9c1.9,0.9,3.1,1.6,3.6,2.1c0.5,0.5,1.2,1.1,2.3,1.8c0.1,0.2,0.4,0.5,0.9,0.9c0.4,0.4,1,1,1.7,1.6
		c0.1,0.1,0.2,0.2,0.4,0.4c0.1,0.2,0.3,0.4,0.5,0.6c1,1.2,1.9,2.3,2.6,3.3c0.7,1,1.2,2,1.6,2.8c0.4,1.1,0.8,2.2,1,3.4
		c0.2,1.2,0.3,2.5,0.3,3.9c0,2.6-0.4,4.8-1.1,6.6c-0.7,1.8-1.8,3.1-3.3,4c-0.1,0.1-0.3,0.3-0.6,0.4c-0.3,0.2-0.5,0.3-0.8,0.5
		l-0.5,0.5c-0.4,0.4-1.1,0.9-2,1.4c-0.9,0.5-2.2,1.1-3.7,1.6c-2,0.8-4.1,1.6-6.4,2.6c-0.6,0.3-1.1,0.6-1.6,0.7
		c-0.4,0.2-0.8,0.3-1,0.3c-0.7,0-1.1,0-1.2,0.1c-0.1,0.1-0.3,1-0.4,2.8c-0.1,1.2-0.1,2.3-0.2,3.4c0,0.4,0.1,0.9,0.4,1.4
		c0.2,0.5,0.6,1.1,1.2,1.7c-0.2,0.5-0.5,0.9-0.7,1.4c-0.3,0.5-0.6,0.9-1,1.5c-0.4,0.6-0.9,1.1-1.3,1.4c-0.4,0.3-0.9,0.5-1.3,0.5
		c-0.8,0-1.4-0.4-1.7-1.2c-0.4-0.8-0.6-2.1-0.6-3.7c0-0.5,0.1-1.2,0.2-2s0.4-1.8,0.7-2.9l-0.2-2.1c-0.3-0.1-0.6-0.3-0.9-0.5
		c-0.3-0.2-0.6-0.3-0.9-0.5c-0.4-0.2-0.7-0.4-0.9-0.6c-0.2-0.2-0.3-0.5-0.3-0.7c0-0.3,0.6-0.7,1.7-1.3c1.1-0.6,1.7-1.3,1.7-2.2
		c0-0.3-0.1-0.6-0.2-1.1c-0.1-0.5-0.2-0.9-0.2-1.1c0.2-1.4,0.4-2.8,0.7-4.2c0-0.1,0.1-0.6,0.2-1.3c0.1-0.7,0.2-1.7,0.3-3.1
		c0.1-0.4,0.2-0.9,0.3-1.5c0.1-0.6,0.3-1.3,0.5-2.1l-0.2-1.3L477.6,11.7z M480.5,7.5c-0.1,0-0.2,0-0.3,0.1c-0.1,0.1-0.1,0.2-0.1,0.3
		c2.8,2.9,4.2,5.1,4.2,6.5c0,0.4-0.5,2.3-1.4,5.5c-0.9,3.2-1.5,5.2-1.9,5.9l0.3,1.5c-0.6,2.4-1.1,4.4-1.4,6.2
		c-0.3,1.7-0.5,3.1-0.5,4.1c0,0.3,0.1,0.4,0.2,0.6c0.1,0.1,0.3,0.2,0.4,0.2c0.2,0,0.7-0.1,1.3-0.3c0.6-0.2,1.4-0.6,2.4-1.1
		c0.6-0.3,1.2-0.6,1.8-0.9c0.6-0.3,1.2-0.6,1.9-0.9c0.3-0.1,0.6-0.3,0.9-0.5c0.3-0.2,0.7-0.5,1.1-0.8c0.6-0.4,1-0.8,1.3-1
		c0.3-0.3,0.5-0.4,0.6-0.5c1-0.7,1.8-1.6,2.3-2.7c0.5-1.1,0.8-2.3,0.8-3.8c0-0.9-0.1-1.8-0.3-2.7c-0.2-0.9-0.5-1.8-0.9-2.8l-0.1-0.9
		c0-0.1-0.1-0.3-0.2-0.4c-0.1-0.2-0.2-0.3-0.4-0.5c-0.1-0.1-0.3-0.3-0.5-0.6c-0.2-0.2-0.3-0.5-0.5-0.9c-0.4-0.7-1.1-1.6-2.1-2.7
		c-1-1.1-2.3-2.3-4-3.8c-0.2-0.2-0.4-0.4-0.6-0.6c-0.2-0.2-0.5-0.5-0.8-0.7c-0.4-0.2-1-0.5-1.6-0.7C482.1,8.2,481.4,7.9,480.5,7.5z"
		/>
	<path class="st0" d="M502.4,40.3l3.2-2.1c0.1-0.1,0.3-0.3,0.4-0.5c0.2-0.2,0.4-0.5,0.6-0.9c0.2-0.3,0.4-0.6,0.7-0.8
		c0.3-0.2,0.6-0.4,0.9-0.6c0.2-0.2,0.5-0.5,0.8-0.9c0.4-0.4,0.8-0.8,1.3-1.2c0.3-0.1,0.6-0.3,1-0.6c0.4-0.3,0.8-0.6,1.3-1.1
		c2.2-2,4-3.6,5.7-4.6c1.6-1,3-1.5,4.1-1.5c0.6,0,1.1,0.1,1.4,0.4c0.3,0.3,0.4,0.6,0.4,1.1c0,0.5-0.1,0.9-0.3,1.3
		c-0.2,0.4-0.5,0.7-0.8,1c-0.6,0.4-1.2,0.9-1.9,1.4c-0.4,0.5-0.8,1-1.4,1.6s-1.2,1.1-1.9,1.6c-0.2,0.3-0.4,0.6-0.6,0.8
		c-0.1,0.1-0.3,0.3-0.7,0.6s-0.8,0.7-1.3,1.1c-0.2,0.5-0.8,1.2-1.5,2c-0.8,0.8-1.9,1.8-3.2,3c-0.2,0.2-0.5,0.5-0.9,1.1
		c-0.4,0.6-1,1.4-1.7,2.3l0.2,0.3c0.5-0.2,1.1-0.4,1.6-0.9c0.6-0.4,1.2-0.9,1.9-1.6c0.8-0.7,1.5-1.3,2-1.8c0.5-0.5,0.9-0.8,1.1-0.9
		c0.2-0.1,0.3-0.2,0.5-0.3c0.2-0.1,0.4-0.2,0.6-0.4c1.1-1.3,2.1-2.3,3.1-2.9c0.9-0.6,1.8-0.9,2.6-0.9c0.5,0,0.9,0.2,1.1,0.6
		c0.3,0.4,0.4,1,0.5,1.8c0,1.2-0.1,2.3-0.1,3.4c0,0.8,0.2,1.4,0.6,2c0.4,0.6,1,0.9,1.7,0.9c0.2,0,0.4-0.1,0.6-0.2
		c0.2-0.1,0.4-0.3,0.6-0.5c0.2-0.2,0.3-0.4,0.5-0.6c0.2-0.2,0.3-0.4,0.5-0.6c0.1,0,0.2-0.1,0.4-0.2c0.2-0.1,0.3-0.3,0.5-0.4
		c0.3,0.7,0.6,1.3,0.8,1.9c0.2,0.5,0.4,1,0.5,1.4c-0.5,0.5-1.1,1-1.6,1.5c-0.5,0.5-1.1,1-1.7,1.5c-0.7,0.5-1.4,1-2.1,1.2
		c-0.7,0.3-1.3,0.4-2,0.4c-1.5,0-2.7-0.4-3.5-1.3c-0.8-0.9-1.3-2.2-1.5-4c0-0.2,0-0.4-0.1-0.7c-0.1-0.2-0.2-0.5-0.4-0.7
		c-0.1,0.1-0.2,0.2-0.4,0.4c-0.1,0.1-0.3,0.3-0.5,0.5c-0.3,0.2-0.7,0.5-1.2,0.9c-0.5,0.4-1,0.8-1.6,1.3c-0.8,0.9-1.5,1.5-2.1,2.1
		c-0.6,0.5-1,0.9-1.2,1.2c-0.5,0.4-1,0.8-1.6,1.2c-0.6,0.4-1.3,0.8-2.1,1.2c-0.5,0.3-0.9,0.5-1.3,0.6c-0.4,0.2-0.6,0.2-0.8,0.2
		c-1.1,0-2-0.3-2.5-0.8c-0.5-0.6-0.8-1.4-0.8-2.6c0-0.6,0.1-1.2,0.4-1.8c0.3-0.6,0.7-1.1,1.2-1.7c0-0.3,0.1-0.6,0.1-0.7
		c0-0.1,0-0.2-0.1-0.4c-0.1-0.1-0.1-0.3-0.2-0.4c-0.1-0.3-0.3-0.7-0.5-1.1c-0.2-0.4-0.4-0.9-0.6-1.3c0.1-0.1,0.2-0.3,0.4-0.6
		C502,41,502.2,40.7,502.4,40.3z"/>
	<path class="st0" d="M528.6,41.8c0.4-0.5,0.8-1,1.1-1.6c1.7-1.4,3.1-2.8,4.2-4.1c1.1-1.3,1.9-2.5,2.4-3.7l-0.4-1.7
		c0.3-0.6,1.1-1.3,2.3-2.1c1.2-0.8,2.2-1.2,3-1.2c0.8,0,1.5,0.2,2,0.7c0.6,0.5,1.1,1,1.6,1.5c0.3,0.2,0.5,0.3,0.6,0.4
		c0.9,0.7,1.7,1.7,2.1,2.9c0.5,1.3,0.7,2.8,0.7,4.6c0,0.9-0.4,2.3-1.1,4.1c-0.7,1.8-1.1,3.1-1.1,4c0,0.1,0,0.2,0.1,0.3
		c0.1,0.1,0.2,0.1,0.3,0.1c0.3,0,0.7-0.1,1.1-0.4c0.4-0.3,0.9-0.6,1.4-1.1c1.3-1.2,2-1.9,2.3-2c0.3-0.1,0.6-0.3,1-0.7
		c0.2,0.5,0.4,1,0.7,1.5c0.3,0.5,0.5,1.1,0.7,1.7c-0.2,0.2-0.5,0.4-0.7,0.7c-0.3,0.3-0.6,0.6-1,0.9c-0.8,0.6-1.9,1.3-3.1,2.1
		s-2.8,1.8-4.6,2.9c-0.5,0.3-1,0.6-1.6,0.7c-1,0-1.7-0.1-2.2-0.4c-0.5-0.3-0.7-0.8-0.7-1.4c0-0.3,0.1-0.6,0.2-0.9
		c0.1-0.3,0.3-0.7,0.4-1.1c0.1-0.3,0.3-0.6,0.5-0.9c0.2-0.3,0.3-0.6,0.4-1c0.5-1.5,0.9-2.9,1.2-4.2c0.3-1.3,0.4-2.4,0.4-3.4
		c0-1.3-0.2-2.2-0.6-2.9c-0.4-0.7-1-1-1.8-1.1c-0.5,0.3-1.1,0.7-1.7,1.2c-0.6,0.5-1.2,1.2-1.9,2c-0.7,0.9-1.3,1.5-1.8,2.1
		c-0.5,0.5-1,0.9-1.3,1.1c-0.2,0.4-0.6,0.8-1,1.2c-0.5,0.4-1.1,0.9-1.9,1.5c0,0.1-0.1,0.2-0.2,0.4c-0.1,0.2-0.2,0.4-0.5,0.6
		c-0.2-0.5-0.4-1.1-0.6-1.6C529.1,42.9,528.9,42.4,528.6,41.8z"/>
	<path class="st0" d="M552.2,41.8l0.1-0.3c0.1-0.2,0.3-0.4,0.5-0.7c0.2-0.3,0.5-0.6,0.8-1c1.7-1.6,3.3-3.4,4.9-5.6
		c1.6-2.2,3.2-4.7,4.7-7.5c0.2-0.3,0.4-0.6,0.6-1c0.2-0.4,0.5-1,0.8-1.6c0-0.1,0-0.2-0.1-0.3c-0.1-0.1-0.2-0.1-0.4-0.1
		c-0.1,0-0.4,0-0.7,0.1c-0.3,0.1-0.6,0.1-0.7,0.1h-4.4c-0.2,0-0.5,0-0.9,0c-0.4,0-0.8,0-0.9,0c-0.2-0.1-0.5-0.2-0.7-0.3
		c-0.2-0.1-0.4-0.2-0.6-0.3c-0.3-0.1-0.5-0.2-0.7-0.4c-0.2-0.2-0.2-0.3-0.2-0.5c0-1.5,0.2-2.7,0.5-3.5c0.3-0.8,0.8-1.2,1.5-1.2
		c0.7,0,1.3,0,1.9,0.1c0.6,0.1,1.1,0.1,1.5,0.2c0.4-0.1,0.7-0.1,1-0.2c0.6,0,1.2,0,1.6,0.1s0.8,0.1,1,0.2c0.3-0.1,0.6-0.1,0.9-0.2
		c0.3-0.1,0.6-0.1,1-0.2l1.2,0.4c0.8-0.1,1.7-1.3,2.6-3.5c0.9-2.2,1.9-3.3,3-3.3c0.6,0,1,0.2,1.3,0.5c0.3,0.4,0.5,0.9,0.5,1.6
		c0,0.5-0.2,1.3-0.5,2.1c-0.3,0.9-0.5,1.6-0.6,2c0,0.1,0.1,0.2,0.2,0.3c0.1,0.1,0.2,0.2,0.4,0.4c0.1,0.1,0.2,0.3,0.3,0.5
		c0.1,0.2,0.1,0.5,0.1,0.8c0,1.4-0.1,2.5-0.2,3.3c-0.1,0.8-0.3,1.2-0.6,1.2l-2.4,0.5c0,0.2-0.1,0.5-0.2,0.9
		c-0.1,0.3-0.2,0.7-0.3,1.2c-0.4,1.2-0.9,2.7-1.4,4.5c-0.5,1.8-1.1,4-1.7,6.5c-0.4,2-0.7,3.6-0.9,4.8c-0.2,1.2-0.3,2.1-0.3,2.5
		c0,0.4,0.1,0.7,0.2,0.9c0.1,0.2,0.3,0.3,0.5,0.3c0.1,0,0.7-0.3,1.5-1c0.9-0.7,2.1-1.7,3.7-3.1l1.4,3.3c-0.2,0.3-0.6,0.6-1,0.9
		c-0.4,0.4-0.9,0.7-1.5,1.1c-0.2,0.3-0.5,0.6-0.9,0.9s-0.7,0.7-1.2,1.1c-0.4,0.5-0.8,0.9-1.3,1.4c-0.4,0.5-0.8,0.9-1.3,1.4
		c-0.6,0.6-1.1,1.1-1.7,1.3c-0.5,0.3-1.1,0.4-1.5,0.4c-1,0-1.8-0.3-2.3-0.9c-0.5-0.6-0.8-1.5-0.8-2.8c0-1.4,0-2.6,0.1-3.6
		c0.1-1,0.2-1.8,0.5-2.4c0.1-0.2,0.2-0.4,0.2-0.5c0-0.2,0-0.6,0.1-1c0.1-0.4,0.2-0.9,0.2-1.4c0.1-0.9,0.3-1.8,0.5-2.8
		c0.3-0.6,0.5-1.2,0.8-1.8c0-0.1-0.1-0.2-0.3-0.3l-0.4,0.2c-0.4,0.6-0.8,1.2-1.4,1.8c-0.6,0.6-1.2,1.3-2,2c-1.2,1.2-2.4,2.3-3.7,3.5
		c-0.1,0.1-0.2,0.3-0.4,0.5c-0.2,0.2-0.4,0.5-0.6,0.9c-0.1-0.3-0.3-0.6-0.4-1.1c-0.2-0.4-0.4-0.9-0.6-1.5c0-0.1-0.1-0.3-0.2-0.4
		C552.4,42,552.3,41.9,552.2,41.8z"/>
	<path class="st0" d="M571.9,41.8c0.5-0.6,1.4-1.3,2.5-2.1c1.1-0.8,2-1.5,2.5-2c0.4-0.4,0.8-0.9,1.4-1.5c0.6-0.6,1.2-1.3,2-2.1
		c0.5-0.4,0.9-0.8,1.4-1s0.9-0.4,1.4-0.4c0.6,0,1,0.1,1.3,0.4c0.3,0.3,0.5,0.7,0.5,1.3c0,0.9-0.4,2.4-1.1,4.5
		c-0.7,2.1-1.1,3.6-1.1,4.7c0,0.2,0.1,0.4,0.2,0.5c0.1,0.1,0.2,0.1,0.4,0.1l0.2,0c0.5-0.3,1-0.6,1.6-1.1c0.6-0.4,1.3-1,2-1.6
		c0.6-0.6,1.4-1.3,2.3-2.2c0.9-0.9,2-2,3.2-3.2c0.5-0.4,1-0.9,1.6-1.5c0.6-0.6,1.3-1.3,2-2.1c0.3-0.4,0.7-0.8,1.3-1
		c0.6-0.2,1.2-0.4,2-0.4c0.5,0,1,0.1,1.2,0.3c0.3,0.2,0.4,0.5,0.4,0.9c0,0.2,0,0.3-0.1,0.5c0,0.2-0.1,0.3-0.1,0.4
		c-0.2,0.7-0.4,1.6-0.7,2.6c-0.3,1-0.7,2.2-1.2,3.6c-0.4,0.9-0.8,1.9-1.3,3.1s-0.9,2.6-1.4,4l0.2,0.3c0.5-0.2,1.2-0.8,2.2-1.7
		c1-0.9,2.2-2.1,3.7-3.6l1.4,3.3c-0.2,0.2-0.4,0.4-0.7,0.7c-0.3,0.3-0.6,0.6-1.1,0.9c-2.5,1.8-4.7,3.6-6.5,5.3
		c-1.8,1.8-3.2,3.5-4.3,5.2c-1.6,2.6-2.9,4.7-4,6.4c-1.1,1.6-1.8,2.8-2.3,3.4c-1.6,2.2-3.2,3.7-4.6,4.8c-1.5,1-2.9,1.6-4.3,1.6
		c-0.5,0-0.9-0.1-1.1-0.3c-0.2-0.2-0.4-0.5-0.4-1c0-0.2,0.1-0.5,0.2-0.9c0.1-0.4,0.3-0.7,0.6-1.1c0.4-0.6,0.9-1.3,1.2-2l1.1-0.9
		c0.1-0.3,0.1-0.5,0.1-0.6c0.1-0.1,0.2-0.3,0.4-0.4c0.2-0.2,0.4-0.4,0.6-0.6c0.2-0.4,0.6-1.1,1.3-2.1c0.7-1,1.7-2.2,3-3.8
		c1-1.1,1.9-2.1,2.7-3c0.8-0.9,1.5-1.6,2.1-2.3c0.1-0.2,0.2-0.4,0.3-0.7c0.1-0.3,0.2-0.5,0.3-0.8c0.3-0.6,0.6-1.4,1-2.2
		c0.4-0.9,0.8-1.9,1.3-3.1c0.2-0.7,0.4-1.5,0.6-2.4c0.2-0.9,0.3-1.9,0.5-2.9c0-0.1-0.1-0.2-0.1-0.4c0-0.2-0.1-0.4-0.2-0.7
		c-0.4,0.2-0.9,0.5-1.4,1c-0.5,0.4-1.1,0.9-1.6,1.5c-0.8,1-1.6,1.9-2.4,2.5c-0.8,0.7-1.6,1.2-2.4,1.5c-0.5,1-1.2,1.8-2,2.3
		c-0.8,0.5-1.8,0.7-2.8,0.7c-0.8,0-1.4-0.2-1.8-0.5c-0.4-0.4-0.6-0.9-0.6-1.7c0-0.1,0-0.3,0.1-0.5c0-0.2,0.1-0.5,0.2-0.7
		c-0.1-0.2-0.2-0.6-0.4-1c0.1-0.4,0.2-0.9,0.2-1.3c0-0.7-0.1-1.2-0.2-1.6c-0.1-0.4-0.3-0.5-0.5-0.5l-0.1,0.1
		c-0.3,0.2-0.6,0.5-1.1,0.9c-0.5,0.4-1,0.8-1.7,1.4c-0.1-0.3-0.3-0.7-0.4-1.1c-0.2-0.4-0.4-0.9-0.6-1.5c0-0.1-0.1-0.3-0.2-0.4
		C572.1,42,572,41.9,571.9,41.8z"/>
</g>
</svg>
