<?xml version="1.0" encoding="utf-8"?>
<!-- Generator: Adobe Illustrator 23.0.1, SVG Export Plug-In . SVG Version: 6.00 Build 0)  -->
<svg version="1.1" id="Layer_1" xmlns="http://www.w3.org/2000/svg" xmlns:xlink="http://www.w3.org/1999/xlink" x="0px" y="0px"
	 viewBox="0 0 15 15" style="enable-background:new 0 0 15 15;" xml:space="preserve">
<style type="text/css">
	.st0{fill:#FF9DCC;}
</style>
<path class="st0" d="M7.5,1.4c2,0,2.2,0,3,0c2,0.1,3,1.1,3.1,3.1c0,0.8,0,1,0,3c0,2,0,2.2,0,3c-0.1,2-1,3-3.1,3.1c-0.8,0-1,0-3,0
	c-2,0-2.2,0-3,0c-2-0.1-3-1.1-3.1-3.1c0-0.8,0-1,0-3s0-2.2,0-3c0.1-2,1-3,3.1-3.1C5.3,1.4,5.5,1.4,7.5,1.4z M7.5,0c-2,0-2.3,0-3.1,0
	C1.7,0.2,0.2,1.7,0,4.4c0,0.8,0,1.1,0,3.1s0,2.3,0,3.1c0.1,2.7,1.6,4.2,4.4,4.4c0.8,0,1.1,0,3.1,0s2.3,0,3.1,0
	c2.7-0.1,4.2-1.6,4.4-4.4c0-0.8,0-1.1,0-3.1s0-2.3,0-3.1c-0.1-2.7-1.6-4.2-4.4-4.4C9.8,0,9.5,0,7.5,0z M7.5,3.6
	c-2.1,0-3.9,1.7-3.9,3.9s1.7,3.9,3.9,3.9s3.9-1.7,3.9-3.9S9.6,3.6,7.5,3.6z M7.5,10C6.1,10,5,8.9,5,7.5C5,6.1,6.1,5,7.5,5
	S10,6.1,10,7.5C10,8.9,8.9,10,7.5,10z M11.5,2.6c-0.5,0-0.9,0.4-0.9,0.9s0.4,0.9,0.9,0.9c0.5,0,0.9-0.4,0.9-0.9S12,2.6,11.5,2.6z"/>
</svg>
