<?xml version="1.0" encoding="utf-8"?>
<!-- Generator: Adobe Illustrator 23.0.1, SVG Export Plug-In . SVG Version: 6.00 Build 0)  -->
<svg version="1.1" id="Layer_1" xmlns="http://www.w3.org/2000/svg" xmlns:xlink="http://www.w3.org/1999/xlink" x="0px" y="0px"
	 viewBox="0 0 276 210" style="enable-background:new 0 0 276 210;" xml:space="preserve">
<style type="text/css">
	.st0{fill-rule:evenodd;clip-rule:evenodd;fill:#C79369;}
	.st1{fill-rule:evenodd;clip-rule:evenodd;fill:#E7B791;}
	.st2{fill-rule:evenodd;clip-rule:evenodd;fill:#5E3A1D;}
	.st3{fill-rule:evenodd;clip-rule:evenodd;fill:#F5F0F0;}
	.st4{fill-rule:evenodd;clip-rule:evenodd;fill:#FF9DCC;}
	.st5{opacity:0.5;fill-rule:evenodd;clip-rule:evenodd;fill:#FF9DCC;enable-background:new    ;}
	.st6{fill-rule:evenodd;clip-rule:evenodd;fill:#323232;}
	.st7{fill-rule:evenodd;clip-rule:evenodd;fill:#1A1A1A;}
	.st8{fill:#FFFFFF;}
</style>
<g>
	<g>
		
			<rect x="141.9" y="24.5" transform="matrix(0.2943 -0.9557 0.9557 0.2943 76.8074 158.7637)" class="st0" width="8.1" height="5.7"/>
		<path class="st1" d="M138.6,44.8l1.2-10.7l3.2-6.8c1.7,0.8,3.5,1.4,5.5,1.7c1.1,1,1.3,4.8,0.1,7.4l-4.3,10.2L138.6,44.8z"/>
		<ellipse class="st2" cx="136.4" cy="9.2" rx="7.6" ry="7.6"/>
		<ellipse class="st3" cx="143.5" cy="15.5" rx="7.6" ry="7.6"/>
		
			<ellipse transform="matrix(0.9999 -1.729742e-02 1.729742e-02 0.9999 -0.2844 2.5247)" class="st1" cx="145.8" cy="17.7" rx="9.9" ry="9.7"/>
		<path class="st4" d="M143.6,45.6c5.5,11-3.5,26.7-20.3,36c-7.3-3.4-13.6-9.3-17.5-17.1s-4.8-16.4-3.2-24.3
			C120.1,32.4,138.2,34.6,143.6,45.6z"/>
		<path class="st4" d="M139.8,34.1c0.7,0.2,6.9-2.6,9.5-0.6c-0.1,1-0.3,2-0.7,2.9l-4.3,10.1v0.1l-5.6-1.7L139.8,34.1z"/>
		
			<ellipse transform="matrix(0.3161 -0.9487 0.9487 0.3161 12.9242 136.5162)" class="st3" cx="101.2" cy="59.3" rx="2.1" ry="4.1"/>
		<path class="st2" d="M153,11c-5.9,8.7-10.7,7.6-12.6,14.7c-2.7-1.7-4.5-4.6-4.5-7.9c-0.1-5.3,4.3-9.7,9.8-9.8
			C148.5,8,151.2,9.1,153,11z"/>
		<ellipse transform="matrix(0.9701 -0.2426 0.2426 0.9701 -0.4483 35.3473)" class="st1" cx="143.3" cy="19.5" rx="1.8" ry="2.9"/>
		<path class="st5" d="M141.6,2.8c-10.5,8-17.3,23.8-18.6,37.9c-0.1,0-0.1-0.1-0.2-0.1c-8-3.7-14-9.7-17.7-17
			C111,12.1,126.3-5,141.6,2.8z"/>
		
			<ellipse transform="matrix(0.9999 -1.719754e-02 1.719754e-02 0.9999 -0.28 2.6357)" class="st6" cx="153.1" cy="17.6" rx="0.7" ry="1.2"/>
		<path class="st0" d="M154.9,21.4c-1.5,0-3.1,0-4.1-0.2c0.8,0.9,2,1.6,3.2,1.8C154.4,22.5,154.7,22,154.9,21.4z"/>
		<g>
			<polygon class="st6" points="143.6,73.1 145.1,63.2 146.3,57 146.7,54.9 153.8,56.2 149.9,73.3 			"/>
			<polygon class="st6" points="146.7,54.9 146.8,54.9 146.3,57 146.3,57 			"/>
		</g>
		<g>
			<path class="st6" d="M151.6,90.3l-8-17.3l6.2-1.4l6,17.1C154.4,89.3,153,89.8,151.6,90.3z"/>
			<ellipse transform="matrix(0.928 -0.3726 0.3726 0.928 -22.8718 63.0491)" class="st7" cx="151.7" cy="90.7" rx="4.5" ry="2.3"/>
		</g>
		
			<rect x="164.5" y="28.7" transform="matrix(0.4482 -0.8939 0.8939 0.4482 63.4855 165.5725)" class="st3" width="2.8" height="5.3"/>
		<polygon class="st7" points="146.4,53.4 157.3,58.9 156.3,61.1 145.3,55.6 		"/>
		<polygon class="st6" points="156.7,60.4 168.3,32.2 164.4,31.2 152.4,42.1 145.7,54.8 		"/>
		<path class="st3" d="M164.3,29.7c-4.8,8.2-6.7,12.5-12,13.5l1.8-3.6L162,32l2-3.1L164.3,29.7z"/>
		<path class="st6" d="M164.7,28.6l-2.7,5.5l-0.7,0.7l-6.5,6.8l-4.1,3.3l3.4-5.8l8-7.3l1.7-2.7c0.2-0.4,0.8-2.2,0.8-2.2L164.7,28.6z
			"/>
		<path class="st7" d="M162.5,33.3c-5.9,3-15.2,5.9-23.4,6.2l0.1,2.3c7.7,0.8,18.7-0.6,23.5-2.4C168.4,37.2,168.5,30.3,162.5,33.3z"
			/>
		<g>
			
				<ellipse transform="matrix(0.2525 -0.9676 0.9676 0.2525 105.8014 177.6913)" class="st1" cx="167.9" cy="20.4" rx="10.5" ry="10.9"/>
			<path class="st2" d="M162,11.4c0.8,7.8,13.1,13.9,9.7,19c3.3-1.1,6-3.7,6.8-7.2c1.5-5.7-2.1-11.5-7.9-13
				C167.6,9.3,164.5,9.8,162,11.4z"/>
			<ellipse transform="matrix(0.4645 -0.8856 0.8856 0.4645 70.8061 162.9489)" class="st1" cx="170.1" cy="22.9" rx="3.1" ry="2"/>
			
				<ellipse transform="matrix(0.2525 -0.9676 0.9676 0.2525 102.0147 168.6735)" class="st6" cx="160.2" cy="18.3" rx="1.3" ry="0.7"/>
			<path class="st0" d="M157.2,21.9c1.6,0.4,3.3,0.7,4.4,0.8c-1.1,0.8-2.5,1.2-3.8,1.1C157.5,23.3,157.4,22.6,157.2,21.9z"/>
		</g>
		<path class="st1" d="M140.6,37.3c-0.8-0.4-1.3-0.2-1.4,0.4c-1.1-0.8-1.8,0.8-2.1,1.5c-0.7,1.2-0.7,1.6,1,2.6
			c1.7,0.9,3.6,0.7,4.3-0.5C143,40,142.2,38.2,140.6,37.3z"/>
		<path class="st1" d="M167.2,31.8c0.7,0.2,0.9,0.6,0.5,1c1.1,0.1,0.6,1.4,0.4,2c-0.3,1.1-0.5,1.3-2,1c-1.5-0.4-2.5-1.6-2.2-2.7
			S165.7,31.4,167.2,31.8z"/>
		<path class="st1" d="M154.6,34.6c2.3,0.1,8.8-1.2,10.8-2.1l0.4,1.9c-1.9,1.3-9.7,3.3-12,3.8L154.6,34.6z"/>
		<path class="st1" d="M145.1,31.2c2.4,0.9,6.9,3,10,3.6l-1.4,3.3c-3-0.1-6.6-1.5-8.4-2C140.5,34.8,140,29.1,145.1,31.2z"/>
		<path class="st2" d="M175.8,21.8c-5.1-7.3-21.2-7-16.9-16.7c2.1,4.1,3.5,3.2,8,4.4C171.3,10.6,176.3,14.4,175.8,21.8z"/>
		<path class="st2" d="M176,22.3c-3.8-8-19.7-10.4-14-19.3c1.4,4.4,2.9,3.8,7.1,5.7C173.5,10.6,177.6,15.1,176,22.3z"/>
		<path class="st2" d="M159.8,11.7c1.9,1.5,3.6,3.2,5.3,6.2c1.8,3.2,11.9-4.1,8.2-6.7C169.5,8.5,164.7,6.3,159.8,11.7z"/>
	</g>
</g>
<g>
	<path class="st8" d="M27.6,147.4c-0.1,0.9-0.4,1.6-0.9,2.2c-0.5,0.5-1,0.9-1.7,1.1c-0.6,0.2-1.2,0.4-1.8,0.4c-0.6,0-1.1,0-1.5,0
		c-1.2-0.1-2.6-0.2-4-0.5c-1.4-0.2-2.8-0.6-4.2-1s-2.8-1-4.1-1.6s-2.6-1.4-3.7-2.2s-2.1-1.7-3-2.8c-0.9-1-1.5-2.2-1.9-3.4
		c-0.6-1.8-0.8-3.6-0.6-5.4c0.2-1.8,0.8-3.5,1.7-5.1c0.9-1.6,2.1-3.2,3.6-4.7s3.1-2.8,5-4.1c1.8-1.2,3.8-2.4,5.9-3.4
		s4.2-1.9,6.3-2.6s4.2-1.3,6.2-1.6c2-0.4,3.9-0.6,5.6-0.6c1.2,0,2.3,0.2,3.4,0.7c1.1,0.5,2.1,1.1,3.1,1.9c0.9,0.8,1.8,1.6,2.5,2.6
		s1.3,1.9,1.6,2.8c0.6,1.5,1,2.9,1.3,4.2c0.3,1.3,0.4,2.7,0.3,4c0,1.4-0.2,2.9-0.6,4.5c-0.4,1.6-0.9,3.4-1.6,5.5
		c-0.8,2.5-1.6,4.9-2.4,7.2c-0.8,2.3-1.4,4.4-1.9,6.4c-0.5,1.9-0.9,3.7-1.2,5.2s-0.3,2.7-0.2,3.7c0.8-2.1,1.7-4.5,2.8-7.2
		s2.2-5.3,3.6-8c1.3-2.7,2.8-5.2,4.3-7.7c1.6-2.4,3.2-4.5,4.9-6.2c0.3-0.3,0.8-0.3,1.4,0.1c0.7,0.3,1.3,0.8,2,1.4
		c0.7,0.6,1.2,1.2,1.7,1.9s0.7,1.2,0.7,1.5c-0.4,2-0.9,3.9-1.6,5.8c-0.6,1.9-1.2,3.7-1.7,5.5s-0.8,3.7-1,5.6c-0.1,1.9,0.1,3.9,0.7,6
		c0.4-2.3,1.1-5,2.1-8s2.2-6.1,3.7-9.3c1.4-3.2,3-6.5,4.8-9.9s3.6-6.6,5.5-9.7s3.9-6,5.9-8.7s3.9-5,5.8-7c0.8-0.8,1.6-1.4,2.6-2
		s2-0.9,3.1-1s2.2,0.1,3.3,0.5c1.1,0.4,2.2,1.2,3.2,2.3c-1.2,0.2-2.5,0.8-4,1.9s-3.1,2.5-4.8,4.3c-1.7,1.8-3.4,3.8-5.3,6.1
		c-1.8,2.3-3.6,4.8-5.4,7.4s-3.5,5.3-5.2,8.2c-1.7,2.8-3.2,5.6-4.7,8.4c-1.4,2.8-2.7,5.4-3.8,8c-1.1,2.6-2,5-2.6,7.2s-1,4.1-1.1,5.7
		c-0.1,1.6,0.2,2.9,0.8,3.8c-1.3-0.3-2.5-0.7-3.7-1.2s-2.3-1.2-3.2-2.1c-1-0.9-1.8-1.9-2.5-3.1c-0.7-1.2-1.2-2.7-1.4-4.3
		c-0.2-1.2-0.3-2.4-0.2-3.7c0.1-1.2,0.3-2.4,0.5-3.6c0.3-1.2,0.6-2.4,1-3.6c0.4-1.2,0.8-2.4,1.2-3.6c0.3-0.8,0.5-1.4,0.5-1.5
		c0.1-0.2-0.2,0.1-0.9,0.9c-0.4,0.5-1,1.4-1.8,2.8c-0.8,1.4-1.6,3-2.5,4.8s-1.7,3.8-2.6,5.9c-0.9,2.1-1.6,4.2-2.2,6.2
		c-0.6,2-1,3.9-1.2,5.6c-0.2,1.7-0.1,3.1,0.3,4.2c-1.5-0.5-2.8-1.2-4-2.1c-1.2-0.9-2.2-1.9-3-2.9s-1.5-2.1-1.9-3.2
		c-0.5-1.1-0.7-2.1-0.8-3c-0.1-1.9,0-4.1,0.5-6.7c0.4-2.5,1-5.2,1.7-7.9c0.7-2.8,1.5-5.5,2.3-8.3s1.6-5.4,2.2-7.8
		c0.7-2.4,1.1-4.6,1.5-6.5c0.3-1.9,0.4-3.3,0.1-4.3c-0.1-0.5-0.3-0.9-0.6-1.3c-0.2-0.3-0.6-0.6-1-0.7c-0.4-0.2-0.9-0.3-1.5-0.3
		s-1.4,0-2.3,0c-2.4,0.1-5,0.6-7.5,1.4c-2.6,0.8-5.1,1.8-7.5,3s-4.6,2.7-6.7,4.2c-2.1,1.6-3.8,3.2-5.3,5c-1.4,1.7-2.5,3.5-3.1,5.2
		c-0.6,1.8-0.7,3.4-0.2,5c0.4,1.5,1.2,2.8,2.4,3.8c1.1,1,2.5,1.8,4,2.5c1.5,0.6,3.1,1.1,4.8,1.3c1.7,0.3,3.4,0.4,4.9,0.4
		c1.6,0,3-0.1,4.3-0.2C26,147.8,27,147.6,27.6,147.4z"/>
	<path class="st8" d="M75.3,140c0.2,0,0.5,0.1,0.9,0.2s0.9,0.3,1.3,0.5s0.9,0.5,1.3,0.8s0.7,0.6,0.8,0.8c0.5,1,0.6,2.2,0.5,3.4
		s-0.5,2.4-1.1,3.6c-0.6,1.2-1.4,2.3-2.4,3.3s-2.2,1.9-3.5,2.6c0,0.6,0,1.2,0.1,1.7c0.1,0.6,0.2,1,0.3,1.4c0.1,0.4,0.4,0.7,0.6,1
		c0.3,0.2,0.6,0.4,1,0.4s0.9-0.2,1.3-0.5s0.9-0.7,1.3-1.1c0.1-0.2,0.3-0.4,0.5-0.6c0.2-0.2,0.4-0.6,0.6-1c0.2-0.5,0.6-1.1,0.9-1.8
		c0.4-0.8,0.9-1.8,1.4-3l2-5.1c0,0.2,0,0.4,0.1,0.8c0.1,0.3,0.1,0.7,0.1,1.2s0,1.1-0.1,1.7c-0.1,0.7-0.3,1.4-0.6,2.2l-0.2,0.3
		c-0.6,1.5-1.2,2.9-1.7,4.1c-0.6,1.2-1.2,2.2-1.8,3.1c-0.6,0.8-1.3,1.5-1.9,1.9c-0.7,0.4-1.5,0.6-2.3,0.6s-1.4-0.2-2-0.6
		c-0.6-0.3-1.2-0.8-1.6-1.4c-0.5-0.6-0.9-1.3-1.2-2.1c-0.3-0.8-0.6-1.7-0.8-2.6c-0.2-0.8-0.3-1.7-0.3-2.8s0-2.2,0.1-3.3
		s0.4-2.3,0.7-3.4c0.3-1.1,0.7-2.1,1.3-3c0.5-0.9,1.1-1.6,1.9-2.2C73.4,140.3,74.3,140,75.3,140L75.3,140z M73.2,151.9
		c0,0.1,0,0.2,0,0.3s0,0.2,0,0.3c0.7-0.8,1.3-1.6,1.9-2.5s1-1.7,1.3-2.6c0.3-0.8,0.6-1.7,0.7-2.5s0.2-1.5,0-2.2
		c-0.4,0.3-0.8,0.8-1.3,1.6c-0.4,0.7-0.8,1.5-1.2,2.4c-0.4,0.9-0.7,1.8-1,2.7C73.4,150.4,73.3,151.2,73.2,151.9z"/>
	<path class="st8" d="M90.7,154c-0.2,0.6-0.4,1.3-0.7,2.1c-0.3,0.8-0.6,1.5-1,2.2c-0.3,0.6-0.7,1.1-1.1,1.7c-0.4,0.6-0.7,1-1,1.4
		s-0.7,0.7-1,0.9s-0.6,0.2-0.9,0.1c-0.9-0.4-1.7-0.8-2.4-1.3c-0.7-0.5-1.2-1.1-1.3-1.9c-0.3-1.3-0.4-2.9-0.2-4.8
		c0.2-1.9,0.5-3.9,1.1-6c0.3-1,0.6-2,1.1-2.9c0.4-1,0.9-1.9,1.4-2.7s1-1.5,1.5-2c0.5-0.6,1.1-0.9,1.6-1.1c0.1,0,0.3,0,0.7,0
		c0.3,0,0.7,0.1,1.1,0.3s0.8,0.4,1.1,0.6c0.3,0.3,0.6,0.6,0.7,1c0.1-1,0.1-2.1,0.2-3.3s0.2-2.5,0.3-3.7c0.1-1.3,0.2-2.5,0.3-3.7
		c0.1-1.2,0.2-2.3,0.3-3.3c0.1-1,0.2-1.8,0.2-2.4c0.1-0.6,0.1-1,0.1-1.1c0-0.5,0-1,0-1.3s-0.1-0.6-0.2-1c0,0,0.3,0.1,0.8,0.5
		s1.1,0.8,1.8,1.4c0.7,0.6,1.3,1.1,1.9,1.7s1,1.1,1.2,1.6c0.2,0.4,0.3,0.9,0.4,1.4c0.1,0.6,0,1.2-0.2,2.1c-0.2,1.5-0.4,2.8-0.6,4
		s-0.4,2.6-0.7,4.2c-0.2,1.6-0.5,3.2-0.7,4.9s-0.5,3.3-0.7,5c-0.2,1.6-0.5,3.1-0.7,4.4c-0.2,1.3-0.4,2.4-0.5,3.3
		c-0.1,0.9-0.2,1.5-0.2,1.7c-0.1,0.5,0,0.8,0.1,0.8c0.1,0.1,0.3,0.1,0.5-0.1c0.2-0.1,0.4-0.3,0.5-0.5c0.2-0.2,0.3-0.4,0.4-0.5
		c0.4-0.8,0.9-1.7,1.3-2.8s0.9-2.2,1.4-3.3l2.1-5.1c0,0.2,0,0.4,0.1,0.8c0.1,0.3,0.1,0.7,0.1,1.2s-0.1,1.1-0.2,1.7
		c-0.1,0.7-0.3,1.4-0.6,2.2l-0.1,0.3l-0.6,1.6c-0.3,0.8-0.6,1.7-0.9,2.6c-0.3,0.9-0.6,1.7-1,2.5s-0.9,1.5-1.3,2
		c-0.5,0.5-1,0.8-1.5,0.9c-0.3,0.1-0.8,0-1.2-0.2c-0.5-0.2-0.9-0.5-1.3-0.9s-0.8-0.9-1.1-1.4c-0.3-0.6-0.5-1.2-0.5-1.8L90.7,154z
		 M91.3,143.1c-0.1-0.4-0.3-0.6-0.4-0.6s-0.3,0.1-0.3,0.1c-0.8,0.5-1.4,1.4-1.9,2.7s-1.1,2.9-1.6,4.8c0,0,0,0.2-0.1,0.6
		c-0.1,0.4-0.2,0.8-0.3,1.4c-0.1,0.6-0.3,1.2-0.4,1.8c-0.1,0.7-0.3,1.3-0.4,1.8c-0.1,0.6-0.2,1-0.3,1.4c-0.1,0.4-0.1,0.6,0,0.6
		c0.3,0.2,0.6,0.1,1-0.2s0.8-0.7,1.2-1.3c0.4-0.6,0.8-1.2,1.2-2c0.4-0.8,0.8-1.5,1.1-2.3c0.3-0.8,0.6-1.5,0.8-2.1
		c0.2-0.7,0.3-1.2,0.3-1.5L91.3,143.1z"/>
	<path class="st8" d="M108.4,154c-0.2,0.6-0.4,1.3-0.7,2.1c-0.3,0.8-0.6,1.5-1,2.2c-0.3,0.6-0.7,1.1-1.1,1.7c-0.4,0.6-0.7,1-1,1.4
		s-0.7,0.7-1,0.9s-0.6,0.2-0.9,0.1c-0.9-0.4-1.7-0.8-2.4-1.3c-0.7-0.5-1.2-1.1-1.3-1.9c-0.3-1.3-0.4-2.9-0.2-4.8
		c0.2-1.9,0.5-3.9,1.1-6c0.3-1,0.6-2,1.1-2.9c0.4-1,0.9-1.9,1.4-2.7s1-1.5,1.5-2c0.5-0.6,1.1-0.9,1.6-1.1c0.1,0,0.3,0,0.7,0
		c0.3,0,0.7,0.1,1.1,0.3s0.8,0.4,1.1,0.6c0.3,0.3,0.6,0.6,0.7,1c0.1-1,0.1-2.1,0.2-3.3s0.2-2.5,0.3-3.7c0.1-1.3,0.2-2.5,0.3-3.7
		c0.1-1.2,0.2-2.3,0.3-3.3c0.1-1,0.2-1.8,0.2-2.4c0.1-0.6,0.1-1,0.1-1.1c0-0.5,0-1,0-1.3s-0.1-0.6-0.2-1c0,0,0.3,0.1,0.8,0.5
		s1.1,0.8,1.8,1.4c0.7,0.6,1.3,1.1,1.9,1.7s1,1.1,1.2,1.6c0.2,0.4,0.3,0.9,0.4,1.4c0.1,0.6,0,1.2-0.2,2.1c-0.2,1.5-0.4,2.8-0.6,4
		s-0.4,2.6-0.7,4.2c-0.2,1.6-0.5,3.2-0.7,4.9s-0.5,3.3-0.7,5c-0.2,1.6-0.5,3.1-0.7,4.4c-0.2,1.3-0.4,2.4-0.5,3.3
		c-0.1,0.9-0.2,1.5-0.2,1.7c-0.1,0.5,0,0.8,0.1,0.8c0.1,0.1,0.3,0.1,0.5-0.1c0.2-0.1,0.4-0.3,0.5-0.5c0.2-0.2,0.3-0.4,0.4-0.5
		c0.4-0.8,0.9-1.7,1.3-2.8s0.9-2.2,1.4-3.3l2.1-5.1c0,0.2,0,0.4,0.1,0.8c0.1,0.3,0.1,0.7,0.1,1.2s-0.1,1.1-0.2,1.7
		c-0.1,0.7-0.3,1.4-0.6,2.2l-0.1,0.3l-0.6,1.6c-0.3,0.8-0.6,1.7-0.9,2.6c-0.3,0.9-0.6,1.7-1,2.5s-0.9,1.5-1.3,2
		c-0.5,0.5-1,0.8-1.5,0.9c-0.3,0.1-0.8,0-1.2-0.2c-0.5-0.2-0.9-0.5-1.3-0.9s-0.8-0.9-1.1-1.4c-0.3-0.6-0.5-1.2-0.5-1.8L108.4,154z
		 M109,143.1c-0.1-0.4-0.3-0.6-0.4-0.6s-0.3,0.1-0.3,0.1c-0.8,0.5-1.4,1.4-1.9,2.7s-1.1,2.9-1.6,4.8c0,0,0,0.2-0.1,0.6
		c-0.1,0.4-0.2,0.8-0.3,1.4c-0.1,0.6-0.3,1.2-0.4,1.8c-0.1,0.7-0.3,1.3-0.4,1.8c-0.1,0.6-0.2,1-0.3,1.4c-0.1,0.4-0.1,0.6,0,0.6
		c0.3,0.2,0.6,0.1,1-0.2s0.8-0.7,1.2-1.3c0.4-0.6,0.8-1.2,1.2-2c0.4-0.8,0.8-1.5,1.1-2.3c0.3-0.8,0.6-1.5,0.8-2.1
		c0.2-0.7,0.3-1.2,0.3-1.5L109,143.1z"/>
	<path class="st8" d="M118.1,157.9c0-0.8,0-1.7,0-2.7s0-2.1,0.1-3.1c0-1.1,0.1-2.1,0.1-3.1s0-2,0-2.8c0-0.9,0-1.6,0-2.2
		c0-0.6,0-1,0-1.2c0-0.6,0-1,0-1.3s-0.1-0.6-0.2-1c0,0,0.2,0.1,0.7,0.4c0.5,0.3,1,0.7,1.6,1.2s1.2,1,1.8,1.5c0.6,0.6,1,1,1.1,1.5
		c0.2,0.4,0.3,0.9,0.4,1.5s0,1.3-0.2,2.1c-0.3,1.6-0.5,3-0.7,4c-0.2,1.1-0.3,2.1-0.5,3.2c-0.2,1-0.3,1.8-0.3,2.2
		c0,0.5,0,0.8,0.2,0.8c0.1,0.1,0.3,0.1,0.5-0.1c0.2-0.1,0.3-0.3,0.5-0.5s0.3-0.4,0.3-0.5c0.4-0.8,0.9-1.7,1.3-2.8s0.9-2.2,1.4-3.3
		l2-5.1c0,0.2,0,0.4,0.1,0.8c0.1,0.3,0.1,0.7,0.1,1.2s0,1.1-0.1,1.7s-0.3,1.4-0.6,2.2l-0.2,0.3l-0.5,1.6c-0.3,0.8-0.6,1.7-0.9,2.6
		c-0.3,0.9-0.7,1.7-1.1,2.5s-0.9,1.5-1.3,2c-0.5,0.5-1,0.8-1.5,0.9c-0.3,0.1-0.7,0-1.2-0.2c-0.4-0.2-0.9-0.5-1.3-0.9
		s-0.8-0.9-1.1-1.4C118.3,159.2,118.1,158.6,118.1,157.9z M119.2,131.8c1.4,0.6,2.4,1.2,3.2,1.8c0.7,0.6,1.2,1.2,1.5,1.8
		s0.4,1.2,0.3,1.8s-0.2,1.2-0.3,1.8c-0.2,0.6-0.3,1.1-0.4,1.7c-0.1,0.6-0.1,1.1,0,1.6c-1.2-0.5-2.1-1.1-2.7-1.7
		c-0.6-0.6-1-1.1-1.3-1.7c-0.2-0.6-0.3-1.2-0.3-1.8s0.1-1.2,0.2-1.8s0.2-1.2,0.2-1.8C119.5,133.1,119.4,132.4,119.2,131.8z"/>
	<path class="st8" d="M136.9,158c-0.1-0.6-0.1-1.3-0.1-2.2s0-1.7,0.1-2.7s0.1-1.9,0.2-2.8c0.1-0.9,0.1-1.8,0.2-2.5
		c0.1-0.5,0.1-1.1,0.2-1.5c0-0.4,0.1-0.9,0.2-1.3c0.1-0.6,0-1,0-1.2c-0.1-0.2-0.2-0.3-0.3-0.2s-0.3,0.2-0.5,0.4s-0.3,0.4-0.5,0.7
		c-0.3,0.4-0.7,1.1-1.2,2.1c-0.6,1-1.1,2.2-1.7,3.7c-0.5,1.4-1,3-1.3,4.7s-0.4,3.4-0.3,5c0.2,0.8,0.5,1.4,1,1.9
		c-0.5,0-1-0.1-1.6-0.2c-0.6-0.1-1.2-0.4-1.7-0.7s-1-0.8-1.3-1.3c-0.4-0.5-0.6-1.2-0.7-2c-0.1-0.6-0.1-1.3-0.1-2.2s0-1.8,0.1-2.7
		c0-0.9,0.1-1.9,0.2-2.8c0.1-0.9,0.1-1.7,0.2-2.5l0.5-5.1c0-0.6-0.1-1-0.2-1.4c-0.1-0.3-0.2-0.7-0.4-1c0,0,0.2,0.1,0.7,0.4
		c0.4,0.3,1,0.7,1.6,1.2s1.2,1,1.7,1.5c0.6,0.6,0.9,1,1.1,1.5c0.1,0.3,0.3,0.7,0.4,1.1c0.1,0.4,0.2,0.8,0.1,1.3
		c0.3-0.9,0.6-1.7,0.8-2.3s0.5-1.2,0.7-1.8c0.4-0.8,0.8-1.5,1.3-2s1-0.8,1.5-0.9c0.3-0.1,0.8,0.1,1.4,0.3c0.6,0.3,1.2,0.7,1.7,1.1
		c0.6,0.5,1.1,1,1.5,1.7c0.4,0.6,0.7,1.3,0.7,1.9c0.1,0.8,0,1.7-0.2,2.7s-0.4,2-0.6,3.1c-0.2,1.1-0.5,2.2-0.7,3.3s-0.4,2.2-0.4,3.3
		c0,0.5,0,0.8,0.2,0.9s0.3,0.1,0.5-0.1c0.2-0.1,0.3-0.3,0.5-0.5s0.3-0.4,0.3-0.5c0.4-0.8,0.9-1.7,1.3-2.8c0.4-1.1,0.9-2.2,1.4-3.3
		l2.1-5.1c0,0.2,0,0.4,0.1,0.8s0.1,0.7,0.1,1.2s-0.1,1.1-0.2,1.7c-0.1,0.7-0.3,1.4-0.6,2.2l-0.1,0.3l-0.6,1.6
		c-0.3,0.8-0.6,1.7-0.9,2.6c-0.3,0.9-0.6,1.7-1,2.5s-0.9,1.5-1.3,2c-0.5,0.5-1,0.8-1.5,0.9c-0.3,0.1-0.8,0-1.2-0.2
		c-0.5-0.2-0.9-0.4-1.3-0.8c-0.4-0.4-0.8-0.8-1.2-1.4C137.2,159.3,137,158.7,136.9,158z"/>
	<path class="st8" d="M142.3,176.5c0.3-0.8,0.9-1.7,1.7-2.6c0.8-0.9,1.6-1.9,2.6-2.9s2.1-1.9,3.2-2.9c1.1-1,2.3-1.9,3.5-2.8
		c0.3-1.6,0.6-3.2,0.9-5c0.3-1.8,0.5-3.7,0.7-5.7c-0.2,0.7-0.5,1.5-1,2.5c-0.4,1-0.9,1.9-1.4,2.7s-1,1.5-1.6,2
		c-0.5,0.5-1,0.7-1.4,0.5c-0.9-0.4-1.7-0.8-2.4-1.3s-1.2-1.1-1.3-1.9c-0.3-1.3-0.4-2.9-0.2-4.8c0.2-1.9,0.5-3.9,1.1-6
		c0.2-0.7,0.5-1.5,0.8-2.4s0.8-1.8,1.3-2.6s1.2-1.5,1.9-2c0.8-0.6,1.7-0.8,2.7-0.8c0.6,0,1.3,0.1,1.9,0.3c0.6,0.2,1.2,0.5,1.6,0.8
		c0.5,0.3,0.9,0.7,1.2,1.1c0.3,0.4,0.6,0.8,0.7,1.2c0.1,0.4,0.2,0.7,0.2,1s-0.2,0.5-0.5,0.5c-0.4,0-0.6-0.1-0.8-0.3
		s-0.3-0.5-0.5-0.8s-0.4-0.6-0.6-0.8c-0.2-0.2-0.6-0.4-1.1-0.4s-1,0.3-1.4,0.8s-0.8,1.2-1.2,1.9c-0.3,0.7-0.6,1.5-0.9,2.3
		c-0.2,0.8-0.4,1.4-0.6,1.9c0,0-0.1,0.3-0.2,0.9c-0.1,0.6-0.3,1.2-0.5,2s-0.3,1.5-0.5,2.3s-0.3,1.4-0.3,1.8c-0.1,0.3,0,0.6,0.2,0.7
		s0.4,0,0.7-0.2c0.3-0.3,0.6-0.7,1.1-1.5c0.4-0.7,0.8-1.5,1.3-2.4c0.4-0.9,0.8-1.8,1.2-2.7s0.7-1.7,0.9-2.4v-0.2l0.3-0.7
		c0.1-0.4,0.3-0.9,0.3-1.3c0.1-0.4,0.1-0.9,0.1-1.4c0,0,0.2,0.1,0.6,0.3c0.4,0.2,0.8,0.6,1.3,1s1,0.8,1.5,1.3s0.8,0.9,1,1.4
		c0.2,0.4,0.2,0.8,0.1,1.3c-0.1,0.5-0.3,1.1-0.5,1.9c-0.2,1.1-0.4,2.3-0.6,3.7c-0.2,1.4-0.4,2.9-0.8,4.5c0.5-0.6,1-1.3,1.5-1.9
		c0.4-0.7,0.8-1.3,1.2-2.1c0.4-0.7,0.7-1.5,1.1-2.3c0.3-0.8,0.7-1.7,1.1-2.6l2-5.1c0,0.2,0,0.4,0.1,0.8c0.1,0.3,0.1,0.7,0.1,1.2
		s0,1.1-0.1,1.7s-0.3,1.4-0.6,2.2l-0.2,0.3c-0.7,1.5-1.3,2.9-1.8,4s-1,2.1-1.6,3c-0.5,0.9-1.1,1.7-1.7,2.3c-0.6,0.7-1.3,1.4-2.1,2.1
		c-0.3,1.4-0.7,2.9-1,4.3c-0.4,1.5-0.8,2.9-1.2,4.3c-0.4,1.4-0.9,2.6-1.4,3.8c-0.5,1.1-1.1,2.1-1.7,2.8c-0.6,0.7-1.2,1.3-2.1,1.7
		c-0.8,0.4-1.7,0.7-2.6,0.8c-0.9,0.1-1.7,0.1-2.6-0.1c-0.8-0.2-1.5-0.5-2.1-0.9s-0.9-1-1.1-1.7C141.8,178.3,141.9,177.5,142.3,176.5
		z M148.4,177.4c0.5-0.5,1.1-1.6,1.9-3.1c0.7-1.6,1.4-3.6,2.1-6c-0.8,0.7-1.5,1.4-2.3,2.1c-0.7,0.7-1.4,1.5-2,2.2s-1.2,1.4-1.7,2.1
		c-0.5,0.7-1,1.3-1.3,1.8c-0.9,1.2-1.4,2.1-1.4,2.7c-0.1,0.6,0.1,0.9,0.6,0.9c0.4,0,1.1-0.2,1.9-0.6
		C146.8,178.9,147.6,178.3,148.4,177.4z"/>
	<path class="st8" d="M211.7,119.3c0.2,1.4,0.3,2.8,0.3,4.2c0,1.5-0.1,3-0.3,4.5c-0.2,1.6-0.4,3.2-0.7,4.8s-0.6,3.2-0.9,4.9
		c1.9,0.1,3.8,0.1,5.7,0.2c1.9,0.1,3.8,0.2,5.5,0.2c0.5-3.5,1.1-7,1.6-10.5s0.9-6.7,1.2-9.7s0.4-5.7,0.2-8c-0.1-2.3-0.5-4.1-1.3-5.3
		c1.3,0.8,2.4,1.6,3.2,2.4s1.5,1.7,2,2.6s0.9,1.8,1.1,2.8c0.2,1,0.4,2,0.5,3c0.1,1.3,0.1,2.8,0.1,4.5c-0.1,1.7-0.2,3.5-0.4,5.5
		s-0.4,4-0.7,6.2s-0.5,4.4-0.8,6.7c1.1-0.1,2-0.2,2.7-0.3s1.3-0.3,1.7-0.6c0.2,1.6-0.1,2.8-1,3.7c-0.9,0.8-2.2,1.3-3.8,1.6
		c-0.3,3.4-0.6,6.7-0.8,10s-0.2,6.4,0,9.3c0.2,2.9,0.6,5.5,1.3,7.8s1.7,4.1,3.1,5.4c-1.2,0.1-2.4-0.2-3.7-0.8
		c-1.2-0.6-2.3-1.4-3.4-2.4c-1-1-1.9-2.1-2.7-3.3c-0.7-1.2-1.3-2.4-1.5-3.6c-0.3-1.2-0.5-2.7-0.6-4.3s-0.1-3.4,0-5.3
		c0.1-1.9,0.2-3.9,0.5-6c0.2-2.1,0.5-4.3,0.8-6.5c-1.8-0.1-3.6-0.3-5.6-0.5c-1.9-0.2-3.9-0.5-5.8-0.7c-0.4,2.2-0.8,4.4-1.1,6.6
		c-0.3,2.1-0.5,4.2-0.5,6.1c0,1.9,0.3,3.7,0.7,5.3c0.5,1.6,1.3,3,2.5,4.3c-1.1-0.1-2.1-0.4-3-0.8c-0.9-0.5-1.7-1-2.5-1.7
		c-0.7-0.7-1.4-1.4-1.9-2.2s-1-1.5-1.3-2.2c-0.5-1.1-0.9-2.3-1.1-3.5c-0.2-1.2-0.3-2.5-0.3-3.9s0.1-2.7,0.3-4.1s0.4-2.8,0.7-4.3
		c-1.7-0.1-3.1,0-4.5,0.2c-1.3,0.2-2.4,0.6-3.2,1.2c-0.3-0.8-0.3-1.4,0-2c0.3-0.5,0.8-1,1.6-1.4s1.7-0.6,2.9-0.8s2.5-0.3,3.9-0.4
		c0.5-2.1,1.1-4.1,1.7-6.1c0.6-2,1.1-3.9,1.6-5.6c0.5-1.7,0.8-3.3,1-4.7c0.2-1.4,0.2-2.5,0-3.4c-0.1-0.5-0.3-0.9-0.5-1.2
		c-0.2-0.3-0.5-0.5-0.9-0.7s-0.8-0.3-1.4-0.3c-0.6,0-1.3,0-2.1,0c-2.3,0.1-4.7,0.6-7.1,1.5c-2.4,0.8-4.6,1.9-6.7,3.2
		c-2.1,1.3-4.1,2.8-5.9,4.5c-1.8,1.7-3.3,3.4-4.5,5.2s-2.1,3.6-2.6,5.3c-0.5,1.8-0.5,3.4-0.1,4.9s1.1,2.7,2.2,3.7
		c1.1,1,2.3,1.8,3.8,2.4c1.4,0.6,3,1.1,4.6,1.4c1.6,0.3,3.2,0.5,4.7,0.5c1.5,0.1,2.9,0,4.2-0.1c1.2-0.1,2.2-0.3,2.9-0.6
		c-0.1,0.9-0.5,1.6-0.9,2.1c-0.5,0.5-1,0.8-1.6,1.1c-0.6,0.2-1.2,0.3-1.8,0.4c-0.6,0-1.1,0-1.5,0c-1.8-0.1-3.7-0.4-5.8-0.9
		s-4-1.2-5.9-2.1c-1.9-0.9-3.5-2-5-3.3c-1.4-1.3-2.4-2.9-3-4.6c-0.7-2.3-0.8-4.7-0.2-7s1.6-4.5,3.1-6.7c1.5-2.1,3.3-4.1,5.5-5.9
		s4.5-3.4,7-4.7c2.5-1.3,5-2.4,7.5-3.1c2.5-0.8,4.9-1.1,7.1-1.1c1.1,0,2.2,0.2,3.2,0.7s2,1.1,2.8,1.8s1.6,1.6,2.2,2.5
		C210.9,117.5,211.4,118.4,211.7,119.3z"/>
	<path class="st8" d="M246.2,151.2c-0.1,0.3-0.2,0.8-0.4,1.2l-0.2,0.3l-0.5,1.6c-0.3,0.8-0.6,1.7-0.9,2.6c-0.3,0.9-0.7,1.7-1.1,2.5
		c-0.4,0.8-0.9,1.5-1.3,2c-0.5,0.5-1,0.8-1.5,0.9c-0.3,0.1-0.7,0-1.2-0.2c-0.4-0.2-0.9-0.5-1.3-0.9c-0.4-0.4-0.8-0.9-1.1-1.4
		c-0.3-0.6-0.5-1.2-0.5-1.8c0-0.8,0-1.7,0-2.7s0-2.1,0.1-3.1c0-1.1,0.1-2.1,0.1-3.1s0-2,0-2.8c0-0.9,0-1.6,0-2.2c0-0.6,0-1,0-1.2
		c0-0.6,0-1,0-1.3s-0.1-0.6-0.2-1c0,0,0.2,0.1,0.7,0.4c0.5,0.3,1,0.7,1.6,1.2s1.2,1,1.8,1.5c0.6,0.6,1,1,1.1,1.5
		c0.2,0.4,0.3,0.9,0.4,1.5c0.1,0.6,0,1.3-0.2,2.1c-0.3,1.6-0.5,3-0.7,4c-0.2,1.1-0.3,2.1-0.5,3.2c-0.2,1-0.3,1.8-0.3,2.2
		c0,0.5,0,0.8,0.2,0.8c0.1,0.1,0.3,0.1,0.5-0.1c0.2-0.1,0.3-0.3,0.5-0.5s0.3-0.4,0.3-0.5c0.4-0.8,0.9-1.7,1.3-2.8
		c0.4-1.1,0.9-2.2,1.4-3.3l2-4.9v-4c0-0.6,0-1,0-1.3s-0.1-0.6-0.3-1c0,0,0.1,0,0.3,0.2c0.2,0.1,0.5,0.3,0.8,0.6
		c0.3,0.2,0.7,0.5,1.2,0.9c0.4,0.3,0.8,0.7,1.2,1s0.7,0.7,1.1,1c0.3,0.3,0.5,0.7,0.7,1c0.2,0.4,0.3,0.9,0.4,1.5
		c0.1,0.6,0,1.3-0.2,2.1c-0.3,1.6-0.5,3-0.7,4s-0.4,2.1-0.5,3.2c-0.2,1-0.3,1.8-0.3,2.2c0,0.5,0,0.8,0.2,0.8
		c0.1,0.1,0.3,0.1,0.5-0.1c0.2-0.1,0.3-0.3,0.5-0.5s0.3-0.4,0.3-0.5c0.5-0.8,0.9-1.7,1.4-2.8c0.4-1.1,0.9-2.2,1.4-3.3l2.1-5.1
		c0,0.2,0,0.4,0.1,0.8c0.1,0.3,0.1,0.7,0.1,1.2s-0.1,1.1-0.2,1.7c-0.1,0.7-0.3,1.4-0.6,2.2l-0.7,1.9c-0.3,0.8-0.6,1.7-0.9,2.6
		c-0.3,0.9-0.7,1.7-1.1,2.5c-0.4,0.8-0.8,1.5-1.3,2s-1,0.8-1.5,0.9c-0.3,0.1-0.7,0-1.2-0.2s-0.9-0.5-1.3-0.9
		c-0.4-0.4-0.8-0.9-1.1-1.4c-0.3-0.6-0.5-1.2-0.5-1.8L246.2,151.2z"/>
	<path class="st8" d="M274,155.8c-0.3,0.6-0.6,1.3-1,1.8c-0.4,0.6-0.8,1.1-1.2,1.6s-0.9,0.8-1.3,1.1c-0.5,0.3-0.9,0.4-1.4,0.4
		c-0.7,0-1.3-0.1-2-0.3c-0.5,0.6-1,1-1.5,1.3s-1,0.5-1.4,0.5c-0.7,0-1.3-0.1-1.9-0.4c-0.6-0.3-1.2-0.7-1.7-1.2
		c0.1,0.2,0.1,0.5,0.2,0.8s0.1,0.6,0.1,0.9c-0.8,0-1.6-0.2-2.2-0.6c-0.7-0.3-1.2-0.8-1.7-1.3c-0.4-0.6-0.8-1.2-1-1.9
		c-0.2-0.7-0.3-1.5-0.2-2.3c0-0.6,0-1.5,0.1-2.7c0.1-1.2,0.2-2.6,0.3-4.2c0.1-1.6,0.2-3.3,0.4-5.1c0.1-1.8,0.3-3.7,0.4-5.5
		s0.3-3.6,0.4-5.3s0.3-3.2,0.4-4.6c0.1-1.3,0.2-2.5,0.3-3.3s0.1-1.4,0.1-1.5c0-0.5,0-1,0-1.3s-0.1-0.7-0.3-1c0,0,0.3,0.1,0.8,0.5
		s1.1,0.8,1.8,1.4c0.7,0.6,1.3,1.2,1.9,1.8c0.6,0.6,1,1.1,1.2,1.6c0.2,0.4,0.3,0.9,0.4,1.4c0.1,0.6,0,1.2-0.2,2
		c-0.2,1.4-0.4,2.9-0.6,4.5c-0.2,1.4-0.4,2.9-0.6,4.6c-0.2,1.7-0.5,3.5-0.7,5.2c0.5-0.9,1-1.8,1.5-2.6s1.1-1.4,1.6-1.8
		c0.4-0.3,0.9-0.3,1.5-0.3c0.6,0.1,1.3,0.3,1.9,0.6c0.7,0.3,1.3,0.7,1.8,1.1s0.9,0.9,1.1,1.4c0.5,1.1,0.7,2.3,0.8,3.7
		c0,1.3-0.1,2.7-0.4,4.1c-0.3,1.4-0.7,2.7-1.3,4.1c-0.6,1.3-1.2,2.5-1.9,3.5h0.1c0.8,0,1.4-0.4,2-1.1c0.6-0.7,1.2-1.6,1.7-2.6
		c0.3-0.6,0.6-1.2,0.8-1.7c0.3-0.6,0.5-1.1,0.7-1.7l2-5.1c0,0.2,0,0.4,0.1,0.8c0.1,0.3,0.1,0.7,0.1,1.2s0,1.1-0.1,1.7
		s-0.3,1.4-0.6,2.2l-0.2,0.3l-0.5,1.6L274,155.8z M262.1,154.1c-0.2-0.5-0.3-1-0.4-1.5s-0.2-1-0.3-1.5c-0.2,0.5-0.4,0.9-0.5,1.3
		c-0.1,0.4-0.2,0.8-0.3,1.2c-0.1,0.4-0.2,0.9-0.3,1.3c-0.1,0.5-0.2,1-0.3,1.7c-0.1,0.7,0,1.3,0.3,1.9c0.2,0.6,0.6,0.8,1.1,0.7
		c0.3-0.1,0.6-0.3,0.9-0.7c0.4-0.4,0.7-0.9,1.2-1.6c-0.3-0.4-0.5-0.9-0.8-1.4C262.5,155,262.3,154.6,262.1,154.1z M263.7,152.5
		c0.1,0.3,0.2,0.7,0.3,1.2s0.3,1,0.5,1.3c0.3-0.5,0.5-1.1,0.8-1.8c0.2-0.6,0.5-1.3,0.7-2s0.4-1.3,0.6-2s0.3-1.3,0.4-1.8
		c0.1-0.6,0.1-1.2,0.1-1.8s0-1.2-0.1-1.7s-0.2-0.9-0.3-1.3c-0.1-0.4-0.2-0.6-0.3-0.7c-0.1-0.1-0.4,0-0.7,0.3c-0.3,0.3-0.6,0.7-0.8,1
		c-0.8,1.3-1.3,2.7-1.4,4.3C263.3,149.3,263.4,150.9,263.7,152.5z"/>
</g>
<g>
	<path class="st8" d="M111.1,204.5c0,0.7-0.3,1-1,1h-2.7c-0.7,0-1-0.3-1-1v-1.9h1.2v1.9h2.4v-1.7l-3.1-2.5c-0.3-0.2-0.4-0.5-0.4-0.9
		V198c0-0.7,0.3-1,1-1h2.6c0.7,0,1,0.3,1,1v1.7H110V198h-2.4v1.5l3.1,2.5c0.3,0.2,0.4,0.5,0.4,0.9V204.5z"/>
	<path class="st8" d="M116,195.1h-1.2v-1.5h1.2V195.1z M116,205.5h-1.2V197h1.2V205.5z"/>
	<path class="st8" d="M124.7,205.5h-1.2V198l-2.6,0.1v7.4h-1.2V197h1.2v0.2c0.5-0.1,0.9-0.1,1.4-0.2c0.6-0.1,1-0.1,1.4-0.1
		c0.7,0,1,0.3,1,1C124.7,197.9,124.7,205.5,124.7,205.5z"/>
	<path class="st8" d="M133.1,204.5c0,0.7-0.3,1-1,1h-2.8c-0.7,0-1-0.3-1-1V198c0-0.7,0.3-1,1-1h2.8c0.7,0,1,0.3,1,1v1.7H132V198
		h-2.4v6.5h2.4v-1.9h1.2L133.1,204.5L133.1,204.5z"/>
	<path class="st8" d="M141.6,204.5c0,0.7-0.3,1-1,1h-2.8c-0.7,0-1-0.3-1-1V198c0-0.7,0.3-1,1-1h2.8c0.7,0,1,0.3,1,1v3.1l-0.4,0.4
		H138v3.1h2.5V203h1.1V204.5z M140.5,200.5V198H138v2.6h2.5V200.5z"/>
	<path class="st8" d="M153.9,205.5h-3.6v-0.4l2.8-5.8v-2.2h-1.9v2.1h-0.8V197c0-0.2,0.1-0.3,0.2-0.5s0.3-0.2,0.5-0.2h2.2
		c0.2,0,0.3,0.1,0.5,0.2s0.2,0.3,0.2,0.5v1.9c0,0.2-0.1,0.5-0.2,0.8l-2.4,5.1h2.7v0.7H153.9z"/>
	<path class="st8" d="M160.1,204.9c0,0.2-0.1,0.3-0.2,0.5s-0.3,0.2-0.5,0.2H157c-0.2,0-0.3-0.1-0.5-0.2s-0.2-0.3-0.2-0.5V197
		c0-0.2,0.1-0.3,0.2-0.5s0.3-0.2,0.5-0.2h2.4c0.2,0,0.3,0.1,0.5,0.2s0.2,0.3,0.2,0.5L160.1,204.9L160.1,204.9z M159.3,204.8v-7.7
		h-2.1v7.7H159.3z"/>
	<path class="st8" d="M166.2,205.5h-3.6v-0.4l2.8-5.8v-2.2h-1.9v2.1h-0.8V197c0-0.2,0.1-0.3,0.2-0.5s0.3-0.2,0.5-0.2h2.2
		c0.2,0,0.3,0.1,0.5,0.2s0.2,0.3,0.2,0.5v1.9c0,0.2-0.1,0.5-0.2,0.8l-2.4,5.1h2.7v0.7H166.2z"/>
	<path class="st8" d="M169.5,205.5h-0.8v-6.4h-0.4l0,0l0.5-2.8h0.7V205.5z"/>
</g>
</svg>
