<svg xmlns="http://www.w3.org/2000/svg" width="236" height="179" viewBox="0 0 236 179">
    <g fill="#FF6C2F" fill-rule="evenodd">
        <path fill-rule="nonzero" d="M152.634 176.17c.23 1.912 1.379 2.83 2.988 2.83 1.686 0 2.759-1.07 2.759-2.448 0-1.3-.843-1.912-1.456-2.142.536-.23 1.149-.688 1.149-1.683 0-1.377-1.073-2.142-2.452-2.142-1.38 0-2.375.842-2.528 2.219l1.072.23c.153-.919.613-1.454 1.456-1.454s1.38.459 1.38 1.224c0 .994-1.073 1.147-1.61 1.147h-.306v.918h.46c1.072 0 1.762.46 1.762 1.454 0 .765-.537 1.453-1.686 1.453-1.15 0-1.686-.688-1.839-1.989l-1.15.383zm-5.977-1.071c-.996 0-1.686-.689-1.686-1.683 0-.995.69-1.683 1.61-1.683 1.072 0 1.762.765 1.762 1.76 0 .917-.69 1.606-1.686 1.606m-2.452 1.912c.23 1.071 1.073 1.989 2.605 1.989 1.686 0 2.912-1.147 2.912-4.13 0-2.984-1.38-4.208-3.065-4.208-1.456 0-2.758 1.07-2.758 2.754 0 1.683 1.226 2.754 2.682 2.754 1.379 0 1.915-.842 2.068-1.071 0 2.065-.69 2.983-1.762 2.983-.996 0-1.456-.612-1.61-1.3l-1.072.23zm-6.436-1.912c-.996 0-1.686-.689-1.686-1.683 0-.995.69-1.683 1.61-1.683 1.072 0 1.762.765 1.762 1.76 0 .917-.69 1.606-1.686 1.606m-2.452 1.912c.23 1.071 1.073 1.989 2.605 1.989 1.686 0 2.912-1.147 2.912-4.13 0-2.984-1.38-4.208-3.065-4.208-1.456 0-2.759 1.07-2.759 2.754 0 1.683 1.226 2.754 2.682 2.754 1.38 0 1.916-.842 2.069-1.071 0 2.065-.69 2.983-1.762 2.983-.996 0-1.456-.612-1.61-1.3l-1.072.23zm-5.977 1.76h1.073v-8.033h-.92l-1.838 1.148v1.224l1.762-1.071v6.732h-.077zm-15.554 0h4.904V177.7h-3.755v-2.525h3.448v-.994h-3.448v-2.295h3.755v-1.071h-4.904v7.956zm-6.973.229c1.839 0 2.988-1.147 3.142-3.06l-1.226-.23c-.154 1.148-.613 2.143-1.916 2.143-1.226 0-2.222-.918-2.222-3.213 0-2.066.996-3.06 2.222-3.06s1.762.918 1.916 1.912l1.149-.23c-.23-1.682-1.38-2.83-3.065-2.83-1.762 0-3.448 1.377-3.448 4.131 0 3.213 1.686 4.437 3.448 4.437m-13.18-.23h1.15v-5.966l3.525 5.967h1.15v-8.033h-1.15v5.967l-3.448-5.967h-1.15v8.033h-.076zm-5.516 0h1.15v-8.032h-1.15v8.033zm-9.885-2.677c.23 1.913 1.303 2.907 3.219 2.907 1.839 0 2.835-1.07 2.835-2.371 0-1.148-.537-1.76-2.605-2.448-1.763-.612-1.993-.842-1.993-1.377 0-.612.46-1.071 1.456-1.071 1.15 0 1.533.612 1.686 1.377l1.15-.23c-.23-1.53-1.457-2.218-2.836-2.218-1.686 0-2.605.994-2.605 2.142 0 1.07.69 1.76 2.452 2.295 1.915.612 2.145.918 2.145 1.606 0 .689-.613 1.224-1.685 1.224-1.38 0-1.84-.688-2.07-2.065l-1.149.23z"/>
        <path d="M0 121.093v-.383s3.218-.153 3.601-3.136c0 0 .154-.612.23-2.218v-27.08s.153-2.83-1.15-3.825c0 0-.536-.765-2.604-.994v-.383h13.409v.46s-3.525-.077-4.598 1.835c0 0-.69.842-.69 4.36v30.063h7.357s3.677.077 5.287-1.07c0 0 1.149-.613 1.915-4.284h.46l-.536 6.808L0 121.093zm25.21.076v-.382s2.298-.153 3.217-1.836c0 0 .537-.612.613-2.83l.077-14.994s.153-3.518-.92-4.283c0 0-.46-.765-2.835-.918v-.383l7.816-1.377s.077.23.077.536v21.189s-.077 2.754.996 3.748c0 0 1.072 1.071 2.681 1.148v.459H25.21v-.077zm14.404 0v-.382s2.146-.153 3.065-1.607c0 0 .69-.688.843-3.518V86.593s.153-4.13-.69-4.896c0 0-.613-.994-3.064-1.147v-.382l7.738-1.377s.077.23.077.459v36.565s-.077 2.83.996 3.824c0 0 .996.995 2.682 1.148v.382H39.614zm14.405 0v-.382s2.07-.153 3.065-1.683c0 0 .69-.612.767-3.672V84.987s.076-2.907-.996-3.596c0 0-.537-.688-2.759-.765v-.458l7.816-1.377s.076.23.076.612l.077 37.253s0 2.142.996 2.983c0 0 .843.995 2.682 1.148v.382H54.019zm14.482 0v-.459s1.916-.076 2.989-1.53c0 0 .766-.994.842-3.671v-15.453s.077-2.371-.766-3.136c0 0-.536-.918-2.911-.994v-.383l7.739-1.377s.076.077.076.383v21.189s0 2.983 1.073 3.978c0 0 1.073.994 2.605 1.07v.46H68.501v-.077zm14.099 0v-.459s2.222-.153 3.065-1.606c0 0 .69-.689.766-3.519V99.674s0-2.371-.996-3.06c0 0-.766-.688-2.682-.765v-.382l7.663-1.377s.076.306.076.688v2.601s3.372-3.29 8.505-3.213c0 0 7.433-.382 8.276 6.961 0 0 .153 1.53.153 3.52v11.168s0 2.524.69 3.518c0 0 .996 1.454 2.988 1.454l.077.459h-7.893v-15.529s.307-5.814-2.298-7.726c0 0-1.456-1.53-5.44-1.3 0 0-2.53-.077-5.058 1.377v18.053s.077 2.37.766 3.289c0 0 1.073 1.377 2.989 1.453v.383H82.6v-.077zm36.626-9.18s-4.98-1.223-5.823-7.266c0 0-.92-6.502 5.057-9.41 0 0 4.52-2.218 10.114-.305l11.34-.765v2.371l-9.348-.535s3.985 2.218 3.831 7.343c-.153 5.125-3.065 7.344-6.053 8.568 0 0-3.065 1.3-7.892.382 0 0-2.375 1.454-2.375 3.978 0 0-.23 2.754 3.065 3.901l12.49 4.284s7.049 2.142 11.416 5.967c0 0 3.142 2.524 3.984 5.584 0 0 10.651-2.295 18.697-3.519 8.045-1.224 16.627-1.606 25.745-.765 9.118.918 16.704 4.054 20.612 9.027 3.908 4.972 3.524 9.103 2.911 12.01-.613 2.906-4.06 5.66-5.9 6.043l-.842-.842s5.21-2.142 5.593-7.037c.383-4.896-1.609-9.333-7.432-13.158-5.824-3.901-16.015-5.354-25.286-5.201 0 0-11.57.153-19.999 2.065l-13.869 2.754s2.146 7.802-3.601 11.857c0 0-5.364 4.13-12.95 1.606 0 0-5.44-1.683-13.715-6.502l-14.788 3.213s-7.663 1.76-13.486-.995c0 0-3.754-1.606-3.371-5.43.383-3.826 5.593-5.815 10.497-5.738 4.904.076 8.275 1.147 14.022 3.901l6.896 3.519s13.256-3.136 27.278-6.273c0 0-1.992-3.748-10.957-6.884l-16.014-5.584s-4.98-1.683-4.98-5.126c.23.153-.46-3.748 5.133-7.037m4.75-.383s-5.44.46-5.823-7.65c0 0-.843-8.26 5.44-8.414 0 0 5.747-.841 5.977 7.497.077 0 .92 8.414-5.593 8.567m17.01 2.525l.536-.077s.307 5.89 6.82 5.89c0 0 4.674-.076 5.21-3.977 0 0 .843-3.06-2.605-4.973 0 0-4.061-2.371-6.053-3.824-1.992-1.454-3.448-3.213-3.372-6.197.077-2.983 1.533-6.578 7.203-6.884 0 0 4.214-.153 7.586.535 0 0-.23 3.901-.077 5.814h-.536s-.613-5.125-6.13-5.202c0 0-4.598.153-4.674 4.513 0 0-.153 2.219 2.222 3.596 0 0 4.214 2.448 6.36 3.901 2.145 1.453 4.137 3.442 3.83 6.885-.306 3.442-2.145 7.114-9.424 7.114 0 0-4.52-.077-6.666-1.071.077.23.153-2.984-.23-6.043m29.807 7.42s-6.59.382-6.973-6.043c0 0-.077-1.913-.077-3.366 0-1.454.153-15.911.153-15.911h-3.294v-.383l7.432-7.496.307.382v6.196h9.577v1.377h-9.577v16.83s-.307 4.665 2.298 5.89c0 0 2.376 1.606 6.973-.077l.306.306c.077-.153-2.375 2.448-7.125 2.295m21.914.153s-12.337.994-12.95-12.928c0 0-.842-14.458 13.256-14.84 0 0 12.873-.918 12.796 13.998-.076-.076-.23 13.617-13.102 13.77m-.383-1.53s-7.74.23-7.586-12.316c0 0-.766-12.316 7.892-12.392 0 0 8.352-.536 8.046 12.698.076 0 .766 12.545-8.352 12.01m14.635.994v-.382s3.678 0 3.754-4.208c0 0 .077-.841.077-1.682v-14.611s.153-2.371-.69-3.29c0 0-.613-.917-2.988-1.07v-.383l7.662-1.377s.077.153.077.536v2.754s3.218-3.29 8.658-3.213c0 0 6.82-.306 8.122 6.349 0 0 .307 1.453.307 4.437v10.556s-.153 2.677.766 3.825c0 0 .92 1.3 2.912 1.377v.459h-7.892V106.1s.153-5.432-1.456-7.344c-1.686-1.836-3.142-2.218-6.59-2.142 0 0-2.911.23-4.75 1.377v17.977s0 2.83.996 3.671c0 0 .92 1.071 2.681 1.148v.459H206.96v-.077zm-85.972 22.872s14.022-3.365 26.129-5.966c0 0 2.988 6.196-1.84 9.944 0 0-5.286 4.896-14.558.612-.076.077-5.44-2.218-9.73-4.59m-18.773 2.525c-10.804 1.147-10.728-4.437-10.728-4.437-.076-2.371 2.222-5.202 8.122-5.278 5.9-.077 17.47 6.578 17.47 6.578-8.122 2.066-14.864 3.137-14.864 3.137M33.56 84.375c0-1.53-1.226-2.754-2.758-2.754-1.533 0-2.759 1.224-2.759 2.754s1.226 2.754 2.759 2.754c1.532 0 2.758-1.224 2.758-2.754m43.292 0c0-1.53-1.226-2.754-2.758-2.754-1.533 0-2.759 1.224-2.759 2.754s1.226 2.754 2.759 2.754c1.532 0 2.758-1.224 2.758-2.754"/>
        <path fill-rule="nonzero" d="M119.456 69.84l-.537 1.225-.613-1.224-.153-.23c-1.762-3.519-5.057-5.967-6.896-7.19-.843-.536-2.835-1.224-3.448-1.454-14.865-4.896-13.792-18.665-13.792-18.818V7.038l.536.076c.23 0 .46.077.766.077 3.142 0 5.67-2.525 5.67-5.661 0-.306 0-.689-.076-.995l-.23-.535h36.78l-.077.535c-.077.383-.077.689-.077.995 0 3.136 2.529 5.66 5.67 5.66.077 0 .766-.076.766-.076V42.15c0 .306.154 3.672-1.685 7.65-1.686 3.748-5.517 8.797-13.946 11.474 0 0-6.13 2.754-8.582 8.262l-.076.306zm-.613-.917c2.605-5.661 8.735-8.338 8.965-8.491 8.122-2.525 11.8-7.344 13.409-10.94 1.762-3.9 1.609-7.266 1.609-7.266V8.109c-3.601-.077-6.513-2.984-6.513-6.58V.842h-34.634v.689c0 3.595-2.911 6.579-6.59 6.579h-.383v34.117c-.076.612-.996 12.927 12.72 17.747.843.306 3.218 1.07 3.984 1.53 1.993 1.223 5.44 3.748 7.433 7.42zm.153-17.059l-2.069-17.211-14.711 9.103 12.183-12.316-16.321-5.737 17.24 1.835-5.593-16.37 9.271 14.611 9.348-14.61-5.67 16.37 17.24-1.836-16.32 5.813 12.183 12.316-14.712-9.103-2.069 17.135zm-1.456-18.512l1.38 11.78 1.379-11.78 10.114 6.196-8.352-8.414 11.187-3.978-11.8 1.224 3.831-11.168-6.36 9.944-6.36-9.944 3.832 11.168-11.8-1.224 11.187 3.978-8.352 8.414 10.114-6.196z"/>
    </g>
</svg>
