<?xml version="1.0" encoding="utf-8"?>
<!-- Generator: Adobe Illustrator 23.0.1, SVG Export Plug-In . SVG Version: 6.00 Build 0)  -->
<svg version="1.1" id="Capa_1" xmlns="http://www.w3.org/2000/svg" xmlns:xlink="http://www.w3.org/1999/xlink" x="0px" y="0px"
	 viewBox="0 0 188.1 188.1" style="enable-background:new 0 0 188.1 188.1;" xml:space="preserve">
<style type="text/css">
	.st0{fill-rule:evenodd;clip-rule:evenodd;fill:#C79369;}
	.st1{fill-rule:evenodd;clip-rule:evenodd;fill:#E7B791;}
	.st2{fill-rule:evenodd;clip-rule:evenodd;fill:#5E3A1D;}
	.st3{fill-rule:evenodd;clip-rule:evenodd;fill:#F5F0F0;}
	.st4{fill-rule:evenodd;clip-rule:evenodd;fill:#FF9DCC;}
	.st5{opacity:0.5;fill-rule:evenodd;clip-rule:evenodd;fill:#FF9DCC;enable-background:new    ;}
	.st6{fill-rule:evenodd;clip-rule:evenodd;fill:#323232;}
	.st7{fill-rule:evenodd;clip-rule:evenodd;fill:#1A1A1A;}
</style>
<g>
	<g>
		
			<rect x="102" y="48.1" transform="matrix(0.2943 -0.9557 0.9557 0.2943 26.2688 143.3997)" class="st0" width="16.4" height="11.6"/>
		<path class="st1" d="M95.3,89.3l2.5-21.8l6.4-13.9c3.5,1.7,7.2,2.8,11.1,3.4c2.2,2.1,2.6,9.7,0.2,15.1l-8.8,20.7L95.3,89.3z"/>
		
			<ellipse transform="matrix(0.9999 -1.729914e-02 1.729914e-02 0.9999 -0.2805 1.5742)" class="st2" cx="90.9" cy="17" rx="15.5" ry="15.4"/>
		
			<ellipse transform="matrix(0.9999 -1.729914e-02 1.729914e-02 0.9999 -0.4983 1.8245)" class="st3" cx="105.2" cy="29.7" rx="15.5" ry="15.4"/>
		
			<ellipse transform="matrix(0.9999 -1.729914e-02 1.729914e-02 0.9999 -0.576 1.9066)" class="st1" cx="109.9" cy="34.2" rx="20.2" ry="19.6"/>
		<path class="st4" d="M105.5,90.9c11.1,22.3-7.2,54.3-41.2,73.2c-14.9-7-27.6-18.9-35.6-34.8c-7.9-15.9-9.8-33.3-6.5-49.4
			C57.8,64.1,94.4,68.6,105.5,90.9z"/>
		<path class="st4" d="M97.8,67.5c1.4,0.4,14.1-5.2,19.3-1.3c-0.2,2-0.7,4.1-1.5,5.9l-8.8,20.5l-0.1,0.2l-11.4-3.5L97.8,67.5z"/>
		
			<ellipse transform="matrix(0.3161 -0.9487 0.9487 0.3161 -99.4949 99.3626)" class="st3" cx="19.2" cy="118.7" rx="4.2" ry="8.4"/>
		<path class="st2" d="M124.5,20.7c-12,17.6-21.8,15.5-25.6,29.9c-5.4-3.4-9.1-9.3-9.2-16.1c-0.2-10.8,8.7-19.7,19.9-19.9
			C115.5,14.6,120.8,16.9,124.5,20.7z"/>
		<ellipse transform="matrix(0.9701 -0.2426 0.2426 0.9701 -6.0703 26.5654)" class="st1" cx="104.8" cy="37.9" rx="3.7" ry="5.8"/>
		<path class="st5" d="M101.4,4C80.1,20.2,66.2,52.3,63.6,80.9c-0.2-0.1-0.3-0.2-0.5-0.2c-16.2-7.5-28.4-19.8-35.9-34.5
			C39.2,22.9,70.3-11.8,101.4,4z"/>
		
			<ellipse transform="matrix(0.9999 -1.719918e-02 1.719918e-02 0.9999 -0.5667 2.1501)" class="st6" cx="124.7" cy="34" rx="1.4" ry="2.5"/>
		<path class="st0" d="M128.5,41.8c-3.1,0-6.3-0.1-8.3-0.4c1.7,1.9,4,3.2,6.4,3.7C127.4,44.1,128,43,128.5,41.8z"/>
		<g>
			<polygon class="st6" points="105.5,146.7 108.6,126.7 110.9,114.1 111.7,109.8 126.2,112.5 118.3,147.2 			"/>
			<polygon class="st6" points="111.7,109.8 111.9,109.9 110.9,114.1 110.9,114.1 			"/>
		</g>
		<g>
			<path class="st6" d="M121.8,181.8l-16.3-35.1l12.5-2.9l12.1,34.7C127.3,179.6,124.6,180.7,121.8,181.8z"/>
			
				<ellipse transform="matrix(0.928 -0.3726 0.3726 0.928 -59.2776 58.5644)" class="st7" cx="121.9" cy="182.6" rx="9.2" ry="4.6"/>
		</g>
		
			<rect x="147.8" y="56.6" transform="matrix(0.4482 -0.8939 0.8939 0.4482 27.716 168.7932)" class="st3" width="5.7" height="10.7"/>
		<polygon class="st7" points="111.1,106.8 133.3,117.9 131.3,122.5 108.9,111.2 		"/>
		<polygon class="st6" points="132,121 155.7,63.8 147.7,61.7 123.4,83.9 109.7,109.6 		"/>
		<path class="st3" d="M147.5,58.6c-9.8,16.7-13.6,25.3-24.3,27.4l3.7-7.4l16.1-15.4l4.1-6.2L147.5,58.6z"/>
		<path class="st6" d="M148.3,56.4l-5.5,11.2l-1.4,1.5l-13.3,13.8l-8.3,6.8l7-11.7L143,63.2l3.4-5.5c0.5-0.8,1.6-4.5,1.6-4.5
			L148.3,56.4z"/>
		<path class="st7" d="M143.9,66c-12,6.1-30.9,12-47.6,12.5l0.2,4.6c15.7,1.7,38-1.3,47.8-4.9C155.9,73.9,156,59.9,143.9,66z"/>
		<g>
			
				<ellipse transform="matrix(0.2525 -0.9676 0.9676 0.2525 77.47 179.4952)" class="st1" cx="154.9" cy="39.6" rx="21.4" ry="22.2"/>
			<path class="st2" d="M142.8,21.4c1.6,15.8,26.7,28.2,19.6,38.5c6.7-2.2,12.1-7.6,13.9-14.7c3-11.5-4.2-23.3-16-26.3
				C154.1,17.2,147.8,18.3,142.8,21.4z"/>
			<ellipse transform="matrix(0.4645 -0.8856 0.8856 0.4645 45.6429 165.1582)" class="st1" cx="159.4" cy="44.8" rx="6.3" ry="4"/>
			
				<ellipse transform="matrix(0.2525 -0.9676 0.9676 0.2525 69.6571 161.2577)" class="st6" cx="139.2" cy="35.5" rx="2.7" ry="1.5"/>
			<path class="st0" d="M133.1,42.9c3.3,0.8,6.7,1.5,8.9,1.7c-2.3,1.6-5.1,2.4-7.8,2.3C133.7,45.6,133.4,44.3,133.1,42.9z"/>
		</g>
		<path class="st1" d="M99.3,74.1c-1.7-0.9-2.6-0.4-2.8,0.9c-2.3-1.7-3.6,1.7-4.3,3c-1.4,2.5-1.4,3.3,2,5.2c3.4,1.9,7.4,1.4,8.8-1.1
			C104.3,79.6,102.7,76,99.3,74.1z"/>
		<path class="st1" d="M153.4,62.9c1.5,0.4,1.8,1.2,1.1,2.1c2.3,0.3,1.2,2.9,0.9,4.1c-0.6,2.3-1,2.7-4.1,2c-3.1-0.8-5.1-3.2-4.5-5.5
			C147.4,63.3,150.3,62.1,153.4,62.9z"/>
		<path class="st1" d="M127.7,68.6c4.6,0.3,17.8-2.5,22-4.2l0.8,3.8c-3.9,2.6-19.7,6.8-24.4,7.7L127.7,68.6z"/>
		<path class="st1" d="M108.5,61.7c4.8,1.9,14,6,20.4,7.4l-2.8,6.7c-6-0.3-13.5-3.1-17-4.1C99.2,69,98.1,57.5,108.5,61.7z"/>
		<path class="st2" d="M170.9,42.6c-10.3-14.9-43-14.3-34.4-33.9c4.2,8.3,7.1,6.6,16.2,8.9C161.8,19.9,171.8,27.6,170.9,42.6z"/>
		<path class="st2" d="M171.2,43.7c-7.7-16.4-40-21.2-28.3-39.2c2.8,8.9,5.9,7.7,14.5,11.5C166.1,19.8,174.6,29,171.2,43.7z"/>
		<path class="st2" d="M138.4,22.1c3.9,3.1,7.4,6.5,10.7,12.5c3.7,6.6,24.1-8.4,16.6-13.7C158.1,15.5,148.3,11.1,138.4,22.1z"/>
	</g>
</g>
</svg>
