<?xml version="1.0" encoding="utf-8"?>
<!-- Generator: Adobe Illustrator 23.0.1, SVG Export Plug-In . SVG Version: 6.00 Build 0)  -->
<svg version="1.1" id="Layer_1" xmlns="http://www.w3.org/2000/svg" xmlns:xlink="http://www.w3.org/1999/xlink" x="0px" y="0px"
	 viewBox="0 0 88 30" style="enable-background:new 0 0 88 30;" xml:space="preserve">
<style type="text/css">
	.st0{fill-rule:evenodd;clip-rule:evenodd;fill:#C79369;}
	.st1{fill-rule:evenodd;clip-rule:evenodd;fill:#E7B791;}
	.st2{fill-rule:evenodd;clip-rule:evenodd;fill:#5E3A1D;}
	.st3{fill-rule:evenodd;clip-rule:evenodd;fill:#F5F0F0;}
	.st4{fill-rule:evenodd;clip-rule:evenodd;fill:#FF9DCC;}
	.st5{opacity:0.5;fill-rule:evenodd;clip-rule:evenodd;fill:#FF9DCC;enable-background:new    ;}
	.st6{fill-rule:evenodd;clip-rule:evenodd;fill:#323232;}
	.st7{fill-rule:evenodd;clip-rule:evenodd;fill:#1A1A1A;}
</style>
<g>
	<path d="M1.5,6.2c0.1,0,0.2,0,0.3,0.1c0.1,0,0.2,0.1,0.2,0.1c0.1,0.1,0.1,0.1,0.2,0.2c0,0.1,0.1,0.2,0.2,0.3
		c0.1,0.2,0.2,0.3,0.2,0.4c0,0.1,0.1,0.1,0.1,0.2c0,0.3-0.1,0.7-0.1,1c0,0.3-0.1,0.7-0.1,1c0,0.1,0,0.2-0.1,0.3c0,0.1,0,0.3,0.1,0.5
		c0,0.2,0,0.3,0,0.5c0,0.1,0,0.3,0,0.4c0,0.2,0,0.3,0,0.5c0,0.3,0,0.5,0,0.6c0,0.2,0,0.3,0,0.3c0,0,0,0.1,0,0.1c0,0.1,0,0.1,0,0.2
		c0,0.1,0,0.2,0.1,0.3v0.5c0,0.2,0.1,0.7,0.2,1.5C2.9,16,3,16.5,3,16.5c0,0,0.1,0,0.1-0.1l0.7-1.2c0-0.1,0.1-0.2,0.1-0.4
		c0.1-0.2,0.1-0.3,0.2-0.5c0.3-0.5,0.5-1.2,0.7-2c0.2-0.8,0.5-1.8,0.7-2.9c0.1-0.3,0.2-0.6,0.3-0.8C5.9,8.5,6,8.4,6.2,8.3L7,8
		c0.1,0.1,0.2,0.1,0.3,0.2c0.1,0.1,0.1,0.2,0.1,0.4c0,0.2,0,0.5-0.1,0.9C7.2,9.9,7.1,10.4,6.9,11c0,0.1,0,0.3,0,0.5
		c0,0.2-0.1,0.4-0.1,0.7c0,0.2-0.1,0.4-0.1,0.5c0,0.1,0,0.2,0,0.2c0,0.2,0,0.3,0,0.5c0,0.2,0,0.4,0,0.7c0,0.3,0,0.5,0,0.7
		c0,0.2,0,0.3,0,0.4c0,0.4,0,0.7,0,0.9c0,0.2,0,0.3,0.1,0.3c0.1,0,0.1-0.1,0.3-0.4c0.1-0.2,0.3-0.6,0.5-1.1c0.1-0.4,0.3-0.7,0.4-1.1
		c0.1-0.3,0.2-0.7,0.3-1c0.1-0.1,0.1-0.2,0.1-0.3c0-0.1,0.1-0.3,0.1-0.4c0.1-0.2,0.2-0.5,0.3-0.8c0.1-0.3,0.2-0.6,0.3-0.9
		c0.1-0.2,0.1-0.4,0.2-0.7c0.1-0.3,0.1-0.6,0.2-0.9L9.3,8.6c0-0.1,0-0.2,0.1-0.3c0-0.1,0.1-0.2,0.1-0.4c0.2-0.2,0.3-0.4,0.4-0.6
		c0.1-0.1,0.2-0.2,0.3-0.2c0.1,0,0.1,0,0.1,0.1c0,0.1,0,0.2,0,0.3c0,0.4,0,0.6,0,0.8c0,0.2,0,0.3-0.1,0.4c0,0.1-0.1,0.2-0.1,0.2
		c0,0.1-0.1,0.1-0.1,0.2l0.1,0.4c0,0.1-0.1,0.2-0.1,0.4c0,0.2-0.1,0.5-0.2,0.8c-0.1,0.3-0.1,0.6-0.2,0.8c0,0.2-0.1,0.3-0.1,0.4
		c0,0.1-0.1,0.2-0.1,0.4c-0.1,0.2-0.1,0.3-0.2,0.6c0,0.1-0.1,0.2-0.1,0.4c0,0.2-0.1,0.3-0.1,0.6C9,14,9,14.2,8.9,14.4
		c-0.1,0.2-0.1,0.4-0.2,0.7c-0.1,0.1-0.1,0.2-0.2,0.3c-0.1,0.1-0.1,0.3-0.2,0.5c0,0.1-0.1,0.2-0.2,0.4c-0.1,0.2-0.2,0.4-0.3,0.7
		c-0.1,0.3-0.2,0.5-0.3,0.7c-0.1,0.2-0.1,0.2-0.2,0.3l-0.2,0.1c0,0.1-0.1,0.1-0.2,0.1c-0.1,0-0.2,0-0.3,0c-0.1,0.1-0.2,0.1-0.3,0.1
		c-0.1,0-0.1,0.1-0.2,0.1c-0.2,0-0.4-0.1-0.5-0.3c-0.1-0.2-0.2-0.4-0.3-0.8c0-0.2,0-0.5-0.1-0.8c0-0.3,0-0.5-0.1-0.8
		c0-0.1,0-0.3-0.1-0.5c0-0.2-0.1-0.5-0.2-0.8c-0.1,0.2-0.2,0.5-0.4,0.7c-0.1,0.2-0.3,0.5-0.4,0.8c0,0.1,0,0.2-0.1,0.4
		s-0.2,0.5-0.4,0.8c-0.2,0.4-0.3,0.8-0.5,1.1c-0.1,0.2-0.3,0.4-0.4,0.5C2.8,18.9,2.6,19,2.4,19c-0.1,0-0.2-0.1-0.3-0.2
		c-0.1-0.1-0.2-0.4-0.3-0.7c-0.1-0.2-0.1-0.4-0.2-0.5c0-0.2-0.1-0.4-0.2-0.6c0-0.1,0-0.1,0.1-0.2c0-0.1-0.1-0.2-0.1-0.3
		c0-0.1-0.1-0.3-0.1-0.5c0-0.1,0-0.3-0.1-0.5c0-0.2-0.1-0.4-0.1-0.7c0-0.1,0-0.2,0-0.2c0-0.1,0-0.2,0-0.2c0-0.1,0-0.1,0-0.2
		c0-0.1-0.1-0.2-0.1-0.3c0,0,0-0.1,0-0.3c0-0.1,0-0.3,0-0.6c0-0.2,0-0.4-0.1-0.5c0-0.1-0.1-0.2-0.1-0.3l-0.2-0.2
		c0-0.1-0.1-0.2-0.1-0.4c0-0.2,0-0.4,0-0.6c0-0.7,0-1.3,0.1-2.1s0.2-1.5,0.4-2.3c0-0.2,0.1-0.4,0.2-0.5C1.2,6.2,1.4,6.2,1.5,6.2z"/>
	<path d="M10.1,16.4c0.1-0.1,0.2-0.2,0.3-0.4s0.2-0.3,0.4-0.4c0-0.1,0-0.2,0.1-0.3c0-0.1,0-0.2,0-0.3c0-0.1,0-0.2,0.1-0.3
		c0-0.1,0.1-0.2,0.1-0.4c0.1-0.1,0.1-0.3,0.2-0.5c0.1-0.2,0.2-0.4,0.4-0.6c0.1-0.1,0.2-0.3,0.4-0.4c0.1-0.2,0.3-0.3,0.4-0.5
		c0.1-0.1,0.1-0.1,0.2-0.1c0.1,0,0.2-0.1,0.2-0.2c0.1,0,0.1,0,0.2-0.1c0.1,0,0.2,0,0.3,0c0.1,0,0.3,0,0.4,0c0.1,0,0.2,0.1,0.2,0.1
		c0,0,0.1,0.1,0.1,0.2c0,0.1,0.1,0.2,0.1,0.3c0,0.1,0,0.2,0.1,0.4c0,0,0,0,0,0c0,0.1-0.1,0.2-0.1,0.3L14,13.6
		c-0.1,0.3-0.3,0.6-0.5,1c-0.3,0.4-0.7,0.8-1.1,1.3c0,0-0.1,0.1-0.1,0.2c0,0.1,0,0.1,0,0.2c0,0.1,0,0.2,0.1,0.3s0.1,0.2,0.2,0.2
		c0,0,0.1,0.1,0.2,0.1c0.1,0,0.2,0.1,0.4,0.1c0.2,0,0.4-0.1,0.6-0.1c0.2-0.1,0.4-0.1,0.5-0.2c0,0,0.1,0,0.1-0.1
		c0.1,0,0.1-0.1,0.2-0.1c0.1,0.2,0.1,0.3,0.2,0.5c0.1,0.1,0.1,0.2,0.1,0.3c-0.3,0.3-0.6,0.6-0.9,0.7c-0.3,0.2-0.5,0.2-0.7,0.2
		c-0.1,0.1-0.2,0.1-0.3,0.1c-0.1,0-0.3,0-0.4,0c-0.2,0-0.4,0-0.6-0.1c-0.2-0.1-0.3-0.2-0.4-0.3c-0.1-0.1-0.1-0.1-0.2-0.3
		c-0.1-0.1-0.1-0.2-0.2-0.4C11,17.2,11,17.1,10.9,17c0-0.1-0.1-0.1-0.2-0.1c0,0-0.1,0-0.2,0.1c-0.1,0-0.1,0.1-0.2,0.2
		c0-0.1-0.1-0.2-0.1-0.3C10.2,16.8,10.2,16.6,10.1,16.4z M12.8,13.6c-0.1,0-0.3,0.2-0.5,0.5c-0.2,0.3-0.3,0.6-0.3,0.7
		c0,0,0,0.1,0,0.1c0,0,0,0,0.1,0c0.1,0,0.1,0,0.2-0.1c0-0.1,0.1-0.1,0.1-0.2c0.1-0.1,0.1-0.1,0.2-0.2c0.1-0.1,0.1-0.1,0.2-0.2
		c0.1-0.1,0.1-0.2,0.2-0.2c0-0.1,0.1-0.2,0.1-0.2C13,13.7,13,13.7,12.8,13.6C12.9,13.6,12.9,13.6,12.8,13.6z"/>
	<path d="M14.4,16.4L14.4,16.4l0.1-0.1c0.1-0.1,0.2-0.2,0.3-0.3c0.1-0.1,0.1-0.1,0.2-0.2c0,0,0.1-0.1,0.2-0.1c0.1,0,0.2-0.1,0.4-0.2
		l0.1-0.1c0-0.1,0.1-0.2,0.2-0.3c0.1-0.1,0.2-0.3,0.4-0.4c0,0,0.1-0.1,0.1-0.1c0.1,0,0.1-0.1,0.2-0.2c0.1-0.1,0.3-0.3,0.4-0.4
		c0.1-0.1,0.3-0.3,0.4-0.4c0.1-0.1,0.2-0.1,0.3-0.3c0.2-0.1,0.4-0.3,0.7-0.6c0,0,0.1-0.1,0.2-0.1c0.1-0.1,0.2-0.1,0.4-0.2
		c0.1,0,0.1-0.1,0.2-0.2s0.1-0.2,0.1-0.3c0-0.1,0.1-0.2,0.1-0.3c0-0.1,0.1-0.2,0.1-0.4c0.1-0.2,0.1-0.3,0.1-0.4
		c0-0.1,0.1-0.2,0.1-0.2c0.1-0.3,0.2-0.6,0.4-0.9c0.2-0.4,0.4-0.8,0.6-1.2c0.1-0.2,0.3-0.5,0.4-0.8c0.1-0.1,0.2-0.3,0.3-0.3
		c0.1-0.1,0.2-0.1,0.4-0.1c0.1,0,0.2,0,0.2,0.1c0,0.1,0.1,0.2,0.1,0.4c0,0.2,0,0.5-0.1,0.7c0,0.2-0.1,0.4-0.2,0.6c0,0,0,0.1,0,0.2
		c0,0.1,0,0.2,0,0.3c0,0.1,0,0.2-0.1,0.2c0,0.1-0.1,0.1-0.1,0.2c0,0,0,0.1,0,0.1c0,0.1,0,0.1,0,0.2l-0.1,0.2c0,0,0,0.1,0,0.1
		s0,0.1,0,0.2c0,0,0,0.1-0.1,0.2c0,0.1-0.1,0.2-0.2,0.4C21,11.7,21,11.8,20.9,12c-0.1,0.1-0.1,0.2-0.1,0.2c0,0-0.1,0.1-0.1,0.1
		c0,0.1-0.1,0.1-0.1,0.2l0,0.2l-0.6,2c0,0.2,0,0.4,0,0.6c0,0.2,0,0.3,0.1,0.4c0,0.1,0.1,0.2,0.1,0.4c0.1,0.1,0.2,0.3,0.3,0.5
		c0.1,0.1,0.1,0.2,0.2,0.2s0.2,0.1,0.3,0.1c0.1,0,0.2,0,0.3-0.1c0.1-0.1,0.2-0.2,0.3-0.3c0.1,0.2,0.1,0.3,0.2,0.4
		c0.1,0.1,0.1,0.3,0.2,0.4c0,0-0.1,0.1-0.2,0.2c-0.1,0.1-0.2,0.2-0.4,0.4c-0.1,0.1-0.2,0.2-0.3,0.2c-0.1,0-0.3,0.1-0.5,0.1
		c-0.4,0-0.8-0.1-1.1-0.3c-0.3-0.2-0.5-0.6-0.6-1c0-0.1,0-0.2-0.1-0.2c0-0.1,0-0.1-0.1-0.2c0-0.1-0.1-0.2-0.2-0.4
		c0,0.1-0.1,0.1-0.1,0.1c-0.1,0-0.1,0.1-0.2,0.2c-0.1,0.1-0.2,0.2-0.3,0.3c0,0.1,0,0.1-0.1,0.2c0,0.1-0.1,0.2-0.2,0.3
		c-0.2,0.2-0.4,0.4-0.6,0.6c-0.2,0.2-0.4,0.4-0.6,0.6c-0.3,0.3-0.5,0.5-0.7,0.6c-0.2,0.1-0.4,0.2-0.6,0.2c-0.3,0-0.5-0.1-0.6-0.2
		s-0.2-0.3-0.2-0.6c0-0.1,0-0.3,0.1-0.6c0.1-0.2,0.1-0.4,0.1-0.5l-0.1-0.1L14.4,16.4z M18.8,13.9c0,0,0-0.1,0-0.1
		c-0.1,0.1-0.2,0.2-0.3,0.3c-0.1,0.1-0.3,0.2-0.5,0.4c0,0.1-0.1,0.2-0.3,0.4c-0.1,0.2-0.3,0.4-0.6,0.7c-0.1,0.1-0.2,0.2-0.3,0.4
		c-0.1,0.2-0.3,0.5-0.5,0.8c-0.1,0.1-0.1,0.3-0.2,0.4c0,0,0,0.1,0.1,0.1c0.2-0.1,0.4-0.2,0.6-0.5c0.3-0.3,0.6-0.6,0.9-1
		c0.4-0.5,0.6-0.9,0.8-1.2C18.7,14.4,18.8,14.1,18.8,13.9z"/>
	<path d="M21.7,16.4L21.7,16.4l0.1-0.1C21.9,16.1,22,16,22,16c0.1-0.1,0.1-0.1,0.2-0.2c0,0,0.1-0.1,0.2-0.1c0.1,0,0.2-0.1,0.4-0.2
		l0.1-0.1c0-0.1,0.1-0.2,0.2-0.3c0.1-0.1,0.2-0.3,0.4-0.4c0,0,0.1-0.1,0.1-0.1c0.1,0,0.1-0.1,0.2-0.2c0.1-0.1,0.3-0.3,0.4-0.4
		c0.1-0.1,0.3-0.3,0.4-0.4c0.1-0.1,0.2-0.1,0.3-0.3c0.2-0.1,0.4-0.3,0.7-0.6c0,0,0.1-0.1,0.2-0.1c0.1-0.1,0.2-0.1,0.4-0.2
		c0.1,0,0.1-0.1,0.2-0.2s0.1-0.2,0.1-0.3c0-0.1,0.1-0.2,0.1-0.3c0-0.1,0.1-0.2,0.1-0.4c0.1-0.2,0.1-0.3,0.1-0.4
		c0-0.1,0.1-0.2,0.1-0.2c0.1-0.3,0.2-0.6,0.4-0.9c0.2-0.4,0.4-0.8,0.6-1.2c0.1-0.2,0.3-0.5,0.4-0.8c0.1-0.1,0.2-0.3,0.3-0.3
		c0.1-0.1,0.2-0.1,0.4-0.1c0.1,0,0.2,0,0.2,0.1c0,0.1,0.1,0.2,0.1,0.4c0,0.2,0,0.5-0.1,0.7c0,0.2-0.1,0.4-0.2,0.6c0,0,0,0.1,0,0.2
		c0,0.1,0,0.2,0,0.3c0,0.1,0,0.2-0.1,0.2c0,0.1-0.1,0.1-0.1,0.2c0,0,0,0.1,0,0.1c0,0.1,0,0.1,0,0.2l-0.1,0.2c0,0,0,0.1,0,0.1
		s0,0.1,0,0.2c0,0,0,0.1-0.1,0.2c0,0.1-0.1,0.2-0.2,0.4c-0.1,0.2-0.2,0.4-0.2,0.5c-0.1,0.1-0.1,0.2-0.1,0.2c0,0-0.1,0.1-0.1,0.1
		c0,0.1-0.1,0.1-0.1,0.2l0,0.2l-0.6,2c0,0.2,0,0.4,0,0.6c0,0.2,0,0.3,0.1,0.4c0,0.1,0.1,0.2,0.1,0.4c0.1,0.1,0.2,0.3,0.3,0.5
		c0.1,0.1,0.1,0.2,0.2,0.2s0.2,0.1,0.3,0.1c0.1,0,0.2,0,0.3-0.1c0.1-0.1,0.2-0.2,0.3-0.3c0.1,0.2,0.1,0.3,0.2,0.4
		c0.1,0.1,0.1,0.3,0.2,0.4c0,0-0.1,0.1-0.2,0.2c-0.1,0.1-0.2,0.2-0.4,0.4c-0.1,0.1-0.2,0.2-0.3,0.2c-0.1,0-0.3,0.1-0.5,0.1
		c-0.4,0-0.8-0.1-1.1-0.3c-0.3-0.2-0.5-0.6-0.6-1c0-0.1,0-0.2-0.1-0.2c0-0.1,0-0.1-0.1-0.2c0-0.1-0.1-0.2-0.2-0.4
		c0,0.1-0.1,0.1-0.1,0.1c-0.1,0-0.1,0.1-0.2,0.2c-0.1,0.1-0.2,0.2-0.3,0.3c0,0.1,0,0.1-0.1,0.2c0,0.1-0.1,0.2-0.2,0.3
		c-0.2,0.2-0.4,0.4-0.6,0.6c-0.2,0.2-0.4,0.4-0.6,0.6c-0.3,0.3-0.5,0.5-0.7,0.6c-0.2,0.1-0.4,0.2-0.6,0.2c-0.3,0-0.5-0.1-0.6-0.2
		c-0.1-0.1-0.2-0.3-0.2-0.6c0-0.1,0-0.3,0.1-0.6c0.1-0.2,0.1-0.4,0.1-0.5L22,17.2L21.7,16.4z M26.1,13.9c0,0,0-0.1,0-0.1
		c-0.1,0.1-0.2,0.2-0.3,0.3c-0.1,0.1-0.3,0.2-0.5,0.4c0,0.1-0.1,0.2-0.3,0.4c-0.1,0.2-0.3,0.4-0.6,0.7c-0.1,0.1-0.2,0.2-0.3,0.4
		c-0.1,0.2-0.3,0.5-0.5,0.8c-0.1,0.1-0.1,0.3-0.2,0.4c0,0,0,0.1,0.1,0.1c0.2-0.1,0.4-0.2,0.6-0.5c0.3-0.3,0.6-0.6,0.9-1
		c0.4-0.5,0.6-0.9,0.8-1.2C26,14.4,26.1,14.1,26.1,13.9z"/>
	<path d="M29,16.4L29,16.4l0.1-0.1c0.2-0.2,0.4-0.5,0.8-0.8c0.4-0.3,0.7-0.6,0.8-0.8c0.1-0.1,0.1-0.2,0.2-0.2c0.1,0,0.2-0.1,0.2-0.1
		c0.2,0,0.4,0.1,0.5,0.2c0.1,0.1,0.2,0.3,0.3,0.5c0,0.2,0.1,0.4,0.1,0.5c0,0.2,0.1,0.4,0.1,0.6c0,0.1,0.1,0.3,0.1,0.5
		c0.1,0.2,0.1,0.4,0.1,0.4c0,0.1,0.1,0.1,0.1,0.1c0.1,0,0.1,0,0.2,0c0.1,0,0.2,0,0.3-0.1c0.1,0,0.2-0.1,0.3-0.2
		c0.1-0.1,0.2-0.2,0.3-0.2c0.1-0.1,0.2-0.2,0.3-0.2l0.3,0.8c-0.1,0.1-0.2,0.2-0.4,0.3c-0.2,0.1-0.3,0.3-0.6,0.4
		c-0.2,0.2-0.4,0.3-0.6,0.4c-0.2,0.1-0.3,0.1-0.4,0.1c-0.5,0-0.9-0.1-1-0.2c-0.2-0.1-0.3-0.5-0.5-1c0,0-0.1-0.1-0.1-0.2
		c0-0.1-0.1-0.1-0.2-0.2c-0.1-0.1-0.1-0.2-0.2-0.3c-0.1-0.1-0.1-0.1-0.1-0.1c-0.1,0-0.2,0.1-0.4,0.2c-0.2,0.1-0.3,0.3-0.6,0.6
		c0-0.1-0.1-0.2-0.1-0.3c0-0.1-0.1-0.2-0.1-0.4C29.1,16.5,29,16.5,29,16.4C29,16.5,29,16.4,29,16.4z M32.6,9.6c0.1,0,0.3,0,0.3,0.1
		C33,9.7,33,9.8,33,9.9c0,0.2-0.1,0.3-0.1,0.4c-0.1,0.2-0.1,0.4-0.2,0.5c0,0.1-0.1,0.2-0.1,0.3c-0.1,0.1-0.1,0.2-0.2,0.3
		c-0.1,0.1-0.2,0.2-0.3,0.3c-0.1,0.1-0.2,0.2-0.3,0.2c-0.1,0-0.2,0.1-0.2,0c-0.1,0-0.2,0-0.3,0c-0.1,0-0.2,0-0.3,0
		c-0.1,0-0.1-0.1-0.2-0.2c0-0.1-0.1-0.3-0.1-0.5c0-0.2,0.1-0.4,0.3-0.7c0.2-0.3,0.4-0.4,0.6-0.4c0.1-0.1,0.2-0.3,0.3-0.4
		c0.1,0,0.1-0.1,0.2-0.1C32.4,9.6,32.5,9.6,32.6,9.6z"/>
	<path d="M33.9,16.4c0,0,0.1-0.1,0.1-0.1c0,0,0.1-0.1,0.1-0.2c0.1,0,0.1-0.1,0.2-0.2c0.1-0.1,0.2-0.2,0.3-0.3
		c0.1-0.1,0.2-0.3,0.4-0.4c0.2-0.2,0.3-0.4,0.5-0.6c0.1-0.1,0.2-0.2,0.3-0.4c0.1-0.2,0.3-0.3,0.5-0.6c0.2-0.2,0.3-0.3,0.5-0.4
		c0.2-0.1,0.4-0.1,0.6-0.1c0.2,0,0.4,0.1,0.5,0.2c0.1,0.1,0.1,0.3,0.1,0.6c0,0.1,0,0.4-0.1,0.8c-0.1,0.4-0.3,0.9-0.5,1.5
		c-0.1,0.1-0.1,0.2-0.1,0.3c0,0.1-0.1,0.1-0.1,0.2c0,0.1,0,0.1,0,0.1c0,0,0,0.1,0.1,0.1c0,0,0.1,0,0.1-0.1c0,0,0.1-0.1,0.1-0.1
		c0-0.1,0.1-0.2,0.2-0.3c0.1-0.1,0.2-0.2,0.3-0.3c0.1-0.1,0.1-0.2,0.2-0.3c0.1-0.1,0.2-0.2,0.3-0.3c0,0,0.1-0.1,0.1-0.1
		c0-0.1,0.1-0.1,0.1-0.2c0.1-0.1,0.2-0.2,0.3-0.2s0.2-0.2,0.4-0.3c0.2-0.1,0.3-0.1,0.4-0.2c0.1,0,0.2-0.1,0.3-0.1
		c0.2,0,0.3,0,0.5,0.1s0.3,0.2,0.4,0.4c0.1,0.4,0.2,0.7,0.3,1c0.1,0.2,0.1,0.3,0.2,0.4c0.1,0.1,0.2,0.1,0.3,0.1c0.1,0,0.1,0,0.2,0
		c0.1,0,0.1-0.1,0.2-0.1l0.3,0.8c-0.1,0.1-0.2,0.2-0.3,0.3c-0.1,0.1-0.2,0.2-0.3,0.3c-0.1,0.1-0.3,0.2-0.4,0.3
		c-0.1,0.1-0.2,0.1-0.3,0.1c-0.1,0-0.3,0-0.4-0.1c-0.1-0.1-0.2-0.1-0.3-0.3c0,0-0.1-0.1-0.2-0.3c-0.1-0.1-0.2-0.3-0.2-0.5
		c-0.1-0.1-0.2-0.2-0.3-0.3c-0.1-0.1-0.2-0.3-0.3-0.4l-0.1,0c-0.1,0-0.2,0.1-0.3,0.2c-0.1,0.1-0.2,0.2-0.3,0.3
		c-0.3,0.2-0.4,0.4-0.6,0.4c-0.1,0.1-0.2,0.1-0.2,0.2c-0.1,0.1-0.2,0.3-0.4,0.5c-0.2,0.2-0.4,0.5-0.7,0.8c-0.1,0.1-0.2,0.1-0.2,0.2
		c-0.1,0.1-0.2,0.1-0.2,0.2c-0.1,0.1-0.2,0.1-0.3,0.1c-0.1,0-0.2,0-0.3,0c-0.2,0-0.4-0.1-0.4-0.2c0-0.2,0-0.3-0.1-0.5
		c0.1-0.2,0.2-0.5,0.3-0.9c0.1-0.4,0.2-0.8,0.4-1.3c0,0,0-0.1,0-0.1c0,0,0-0.1,0.1-0.2c0-0.1,0-0.1,0.1-0.2c0-0.1,0-0.1,0-0.1
		c0,0,0-0.1,0-0.1s-0.1,0-0.1,0c-0.1,0-0.1,0-0.2,0.1c-0.1,0.1-0.2,0.2-0.3,0.3c-0.2,0.2-0.3,0.3-0.4,0.4c-0.1,0.1-0.2,0.2-0.2,0.2
		c-0.1,0-0.1,0.1-0.2,0.2c-0.1,0.1-0.2,0.2-0.3,0.3c0,0,0,0.1-0.1,0.1c0,0-0.1,0.1-0.1,0.2c0-0.1-0.1-0.2-0.1-0.3
		C34.1,16.8,34,16.6,33.9,16.4z"/>
	<path d="M42.2,16.4c0,0,0.1-0.1,0.1-0.2c0.1-0.1,0.1-0.2,0.2-0.3c0.1-0.1,0.2-0.1,0.3-0.3c0.1-0.1,0.2-0.2,0.3-0.4
		c0-0.1,0.1-0.2,0.2-0.3c0.1-0.1,0.1-0.3,0.2-0.4c0-0.2,0.1-0.3,0.2-0.5c0.1-0.2,0.3-0.4,0.5-0.7c0.3-0.4,0.7-0.7,1-1.1
		c0.2-0.3,0.4-0.5,0.6-0.6c0.2-0.1,0.4-0.2,0.7-0.2c0.2,0,0.3,0.1,0.4,0.2c0.1,0.1,0.1,0.4,0.1,0.6c0,0.1-0.1,0.3-0.2,0.5
		c-0.1,0.2-0.4,0.5-0.6,0.8c-0.2,0.2-0.4,0.4-0.6,0.6c-0.2,0.2-0.4,0.4-0.6,0.6C45,15,45,15,44.9,15.1c-0.1,0.1-0.2,0.2-0.3,0.3
		c0,0.1-0.1,0.3-0.1,0.4c0,0.2,0,0.4,0,0.6c0,0.2,0.1,0.3,0.1,0.4c0,0,0.1,0.1,0.2,0.3c0.1,0.1,0.2,0.3,0.4,0.6
		c0,0.1,0.1,0.1,0.1,0.2c0.1,0.1,0.1,0.1,0.2,0.2c0.1,0,0.3-0.2,0.5-0.5c0.2-0.3,0.6-0.7,1-1.2l0.3,0.8c0,0-0.1,0.1-0.2,0.3
		c-0.1,0.1-0.3,0.3-0.4,0.6c-0.2,0.2-0.4,0.5-0.6,0.8c0,0.1,0,0.1,0.1,0.2c0.1,0.1,0.1,0.2,0.2,0.3c0.2,0.2,0.3,0.4,0.4,0.7
		c0.1,0.3,0.2,0.6,0.2,1c0,0,0,0.1,0,0.1c0,0.1,0,0.1,0,0.2c-0.1,0.7-0.5,1.3-1.2,2c-0.8,0.7-1.5,1-2.1,1c-0.3,0-0.6,0-0.7-0.1
		c-0.2-0.1-0.3-0.2-0.4-0.4c0-0.1-0.1-0.2-0.1-0.4s0-0.5,0-0.9c0,0,0-0.1,0-0.2c0-0.1,0.1-0.2,0.2-0.4c0-0.1,0.1-0.2,0.2-0.4
		c0.1-0.1,0.1-0.3,0.2-0.4c0.1-0.1,0.2-0.2,0.2-0.4c0.1-0.1,0.2-0.2,0.2-0.3c0.2-0.2,0.4-0.4,0.5-0.5c0.1-0.1,0.2-0.2,0.3-0.3
		c0.1-0.1,0.1-0.2,0.1-0.3c-0.2-0.3-0.4-0.5-0.6-0.8c-0.2-0.3-0.4-0.5-0.5-0.8c-0.1-0.3-0.2-0.5-0.3-0.8c0,0,0-0.1-0.1-0.2
		c-0.1,0.1-0.3,0.3-0.4,0.4c0-0.1-0.1-0.2-0.1-0.3C42.4,16.8,42.3,16.6,42.2,16.4z M45.1,20.1c0,0-0.1,0.1-0.2,0.2
		c-0.1,0.2-0.3,0.4-0.5,0.7c-0.1,0.2-0.2,0.4-0.4,0.6c-0.1,0.2-0.2,0.4-0.4,0.6c0,0.1-0.1,0.2-0.2,0.5c-0.1,0.2-0.1,0.4-0.1,0.5
		c0,0.1,0,0.2,0.1,0.2s0.2,0.1,0.3,0.1c0.4,0,0.9-0.2,1.4-0.7c0.5-0.5,0.7-0.9,0.7-1.4c0-0.1,0-0.2-0.1-0.3c0-0.1-0.1-0.3-0.1-0.4
		c-0.1-0.2-0.1-0.3-0.2-0.4C45.2,20.1,45.2,20.1,45.1,20.1z"/>
	<path d="M73.9,5.9c0.1,0,0.2,0.1,0.2,0.2c0,0.1,0.1,0.3,0.1,0.5c0,0.1,0,0.4-0.1,0.8C74,7.7,74,8.2,73.9,8.8L74,9.4
		c-0.1,0.1-0.1,0.3-0.2,0.5c-0.1,0.2-0.1,0.4-0.1,0.7c-0.1,0.3-0.1,0.5-0.1,0.7c0,0.2-0.1,0.3-0.1,0.5c-0.1,0.2-0.1,0.4-0.1,0.6
		c0,0.2-0.1,0.3-0.1,0.5c0,0.4-0.1,0.8-0.2,1.1c-0.1,0.4-0.2,0.7-0.3,1c-0.1,0.2-0.2,0.7-0.4,1.4c-0.2,0.7-0.4,1.6-0.6,2.7
		c-0.1,0.5-0.2,0.9-0.4,1.1c-0.1,0.2-0.3,0.4-0.5,0.4c-0.1,0-0.1,0-0.2-0.1c0,0-0.1-0.1-0.1-0.2c0,0,0-0.1,0-0.1c0,0,0-0.2,0-0.3
		c0-0.1,0-0.1-0.1-0.2l0.2-0.7c0-0.1,0-0.2,0-0.3c0-0.2,0.1-0.7,0.2-1.4c0.1-0.7,0.3-1.6,0.5-2.7c0.1-0.4,0.2-0.8,0.2-1.2
		c0-0.1,0-0.1,0-0.2c0,0,0,0-0.1,0c-0.1,0-0.1,0.1-0.2,0.1L71,13.1c0,0-0.1,0.1-0.2,0.2c-0.1,0.1-0.2,0.2-0.3,0.2
		c-0.1,0-0.3,0-0.5-0.1c-0.2,0-0.4-0.1-0.5-0.1c-0.1,0-0.3,0-0.5,0.1c-0.2,0.1-0.3,0.2-0.5,0.3c-0.3,0-0.6,0.1-0.8,0.2
		c-0.2,0.1-0.4,0.2-0.6,0.4c-0.1,0.1-0.2,0.1-0.3,0.2c-0.1,0-0.1,0.2-0.1,0.5c0,0.3,0,0.6,0,1.1c0,0.4,0,0.8,0.1,1
		c0,0.2,0.1,0.3,0.2,0.3c0.1,0,0.1,0,0.2,0c0,0,0.1-0.1,0.2-0.1c0,0,0.1-0.1,0.1-0.1c0.1,0,0.1-0.1,0.1-0.1l0.1,0c0,0,0.1,0,0.1,0
		c0,0,0,0.1,0,0.1c-0.1,0.1-0.1,0.3-0.2,0.4c-0.1,0.1-0.1,0.2-0.2,0.3c-0.2,0.3-0.4,0.6-0.6,0.9c-0.1,0.2-0.3,0.3-0.4,0.4
		s-0.3,0.1-0.6,0.1c-0.2,0-0.3-0.2-0.4-0.7c-0.1-0.5-0.1-1.2-0.1-2.1c0-0.4,0-0.7-0.1-0.9c0-0.3-0.1-0.5-0.2-0.7
		c-0.1-0.2-0.2-0.3-0.2-0.4c0-0.1-0.1-0.2-0.1-0.3c0-0.1,0-0.2,0.1-0.2c0-0.1,0.1-0.2,0.2-0.3c0.1-0.1,0.1-0.2,0.2-0.3
		c0-0.1,0.1-0.1,0.1-0.2c0-0.1,0.1-0.2,0.1-0.4c0-0.2,0.1-0.4,0.1-0.6c0-0.1,0.1-0.4,0.1-0.6c0-0.3,0.1-0.6,0.1-1
		c0-0.7,0.1-1.3,0.2-1.6S66,8.3,66,8.2l-0.1-0.2c0-0.1,0-0.3,0.1-0.5C66,7.2,66,7,66.1,6.7c0.1,0,0.1-0.1,0.2-0.2
		c0.1-0.1,0.1-0.2,0.2-0.3C66.9,6.1,67.2,6,67.2,6c0.2,0,0.4,0.1,0.5,0.2c0.1,0.1,0.2,0.3,0.2,0.5c0,0.1,0,0.2-0.1,0.3
		c0,0.1-0.1,0.3-0.1,0.4c-0.1,0.1-0.1,0.4-0.2,0.8c-0.1,0.4-0.1,0.9-0.2,1.5c-0.1,0.4-0.1,0.9-0.2,1.3c-0.1,0.4-0.1,0.8-0.2,1.1
		c0,0,0,0.1,0,0.2c0,0.1,0,0.2,0,0.2c0,0,0.1,0.1,0.1,0.1c0.2,0,0.5,0,0.6-0.1c0.1,0,0.3-0.1,0.7-0.2h0.7c0.1,0,0.3,0,0.4,0
		c0.2,0,0.3,0,0.4,0c0.1,0,0.2,0,0.4,0.1c0.2,0,0.3,0.1,0.4,0.1c0.1,0,0.2,0,0.3,0c0.1,0,0.3-0.1,0.4-0.1c0.1,0,0.2,0,0.2,0
		c0.1,0,0.1,0,0.1-0.1c0-0.1,0.1-0.2,0.1-0.3c0-0.1,0.1-0.3,0.1-0.4c0-0.1,0-0.3,0.1-0.5c0-0.2,0.1-0.4,0.1-0.7
		c0.1-0.5,0.2-0.9,0.2-1.3c0-0.3,0.1-0.6,0.1-0.7c0-0.1,0-0.1,0-0.1c0,0,0-0.1-0.1-0.1c-0.1-0.1-0.1-0.1-0.2-0.2
		c0-0.1,0.1-0.2,0.1-0.3c0.1-0.2,0.3-0.4,0.4-0.6c0.1-0.2,0.2-0.3,0.2-0.3c0.1-0.1,0.2-0.2,0.4-0.3C73.5,6.1,73.7,6,73.9,5.9z"/>
	<path d="M73.9,16.4C73.9,16.4,74,16.4,73.9,16.4c0.1-0.1,0.1-0.1,0.1-0.2c0.1-0.1,0.2-0.2,0.4-0.4s0.3-0.3,0.5-0.6
		c0.1-0.2,0.3-0.4,0.4-0.6c0.2-0.2,0.3-0.4,0.5-0.6c0.1-0.2,0.3-0.4,0.4-0.6c0.1-0.2,0.3-0.4,0.4-0.6c0.3-0.1,0.5-0.2,0.6-0.3
		c0.1-0.1,0.2-0.1,0.3-0.1c0.1,0,0.2,0,0.2,0.1c0.1,0.1,0.1,0.1,0.1,0.3c0,0,0,0.1,0,0.2c0,0.1,0,0.1-0.1,0.2c0,0.1-0.1,0.3-0.2,0.4
		c-0.1,0.2-0.1,0.4-0.2,0.7c-0.1,0.2-0.1,0.4-0.2,0.7c-0.1,0.3-0.1,0.5-0.1,0.8c0,0.2-0.1,0.4-0.1,0.6c0,0.4,0,0.6,0.1,0.8
		c0,0.2,0.1,0.2,0.1,0.2c0.1,0,0.1-0.1,0.2-0.1c0.1-0.1,0.2-0.1,0.3-0.2c0.1-0.1,0.2-0.3,0.4-0.5c0.1-0.2,0.3-0.4,0.5-0.6
		c0.1-0.2,0.2-0.4,0.4-0.5c0-0.1,0.1-0.1,0.2-0.2c0.1-0.1,0.1-0.1,0.2-0.2c0.1-0.3,0.3-0.5,0.4-0.7c0.2-0.2,0.3-0.2,0.5-0.2
		c0.2,0,0.3,0,0.4,0.1c0.1,0,0.2,0.1,0.2,0.2c0,0,0,0.1,0,0.2c0,0.1,0,0.3,0,0.4c0,0.1,0,0.2,0,0.3c0,0.1,0,0.2,0,0.3
		c0,0.2,0,0.4,0.1,0.5s0.2,0.2,0.4,0.2c0.1,0,0.1,0,0.2,0c0.1,0,0.1,0,0.2-0.1l0.4,0.9c-0.4,0.2-0.7,0.4-0.9,0.5
		c-0.2,0.1-0.4,0.2-0.6,0.2c-0.3,0-0.6-0.1-0.8-0.2c-0.2-0.2-0.4-0.4-0.5-0.7c0-0.1,0-0.2-0.1-0.2c0-0.1-0.1-0.2-0.2-0.2
		c-0.1,0.1-0.1,0.1-0.2,0.2c-0.1,0.1-0.2,0.2-0.2,0.3c-0.2,0.2-0.3,0.4-0.5,0.6c-0.2,0.2-0.3,0.4-0.5,0.6c-0.2,0.3-0.4,0.5-0.7,0.6
		c-0.2,0.1-0.4,0.2-0.6,0.2c-0.3,0-0.5-0.1-0.7-0.3c-0.2-0.2-0.3-0.4-0.3-0.8c-0.1-0.3-0.1-0.6-0.1-0.8s0-0.3,0-0.3
		c0-0.2,0-0.3-0.1-0.4c0-0.1-0.1-0.1-0.1-0.1l-0.1,0l-0.5,0.6c0,0-0.1,0.1-0.1,0.2c0,0.1-0.1,0.1-0.2,0.2c0-0.1-0.1-0.2-0.1-0.4
		C74.1,16.8,74,16.6,73.9,16.4z"/>
	<path d="M81.9,16.4c0.1-0.1,0.2-0.2,0.3-0.3c0.1-0.1,0.2-0.3,0.4-0.5c0.1-0.2,0.1-0.4,0.2-0.7c0.1-0.3,0.1-0.6,0.1-0.9
		c0-0.4,0.1-0.7,0.1-1c0.1-0.3,0.1-0.5,0.1-0.7c0.3-0.9,0.5-1.6,0.7-2.1c0.2-0.5,0.3-0.8,0.3-0.9c0.2-0.6,0.4-1.1,0.7-1.6
		s0.5-0.9,0.7-1.2c0.1-0.1,0.1-0.1,0.2-0.2c0.1-0.1,0.1-0.2,0.2-0.2c0.2-0.1,0.5-0.2,0.7-0.3c0.1-0.1,0.2-0.1,0.3-0.1
		c0.1,0,0.2,0,0.3,0c0.2,0,0.3,0.1,0.4,0.3c0.1,0.2,0.1,0.4,0.1,0.8c0,0.2,0,0.4-0.1,0.7c-0.1,0.3-0.1,0.5-0.2,0.8
		c-0.2,0.4-0.3,0.8-0.4,1C87.1,9.6,87,9.8,87,9.8c0,0.1-0.1,0.3-0.2,0.5c-0.1,0.2-0.2,0.5-0.4,0.7c-0.2,0.4-0.4,0.7-0.5,0.9
		c-0.1,0.2-0.2,0.3-0.2,0.4c0,0-0.1,0.1-0.1,0.1c0,0-0.1,0.1-0.1,0.1v0.2c0,0.1-0.1,0.1-0.1,0.2c-0.1,0.2-0.3,0.5-0.4,0.8
		c-0.2,0.3-0.4,0.7-0.7,1.1c-0.2,0.2-0.3,0.4-0.3,0.6c-0.1,0.2-0.1,0.3-0.1,0.4v0.8c0,0.2,0.1,0.3,0.1,0.5c0,0.2,0.1,0.3,0.1,0.5
		c0,0.2,0.1,0.4,0.2,0.5s0.2,0.2,0.3,0.2c0.3,0,0.5-0.1,0.6-0.2c0.2-0.1,0.3-0.3,0.4-0.6c-0.2-0.1-0.3-0.2-0.4-0.2
		C85,17.2,85,17.1,85,17c0-0.1,0.1-0.1,0.1-0.2c0-0.1,0-0.2,0.1-0.2c0,0,0-0.1,0-0.1c0,0,0-0.1,0-0.2c0.3-0.5,0.6-0.9,0.8-1.2
		c0.2-0.3,0.5-0.4,0.7-0.4c0,0,0.1,0,0.2,0c0.1,0,0.2,0,0.2,0c0,0,0.1,0,0.2,0c0.1,0,0.1,0,0.2,0c0.1,0,0.2,0,0.2,0.1
		c0,0.1,0.1,0.2,0.1,0.3c0,0.3-0.1,0.6-0.2,0.9c-0.2,0.3-0.2,0.5-0.2,0.5c0,0,0,0.1,0.1,0.1c0,0,0.1,0,0.1-0.1c0,0,0.1-0.1,0.1-0.1
		c0,0.1,0.1,0.2,0.1,0.3c0.1,0.1,0.1,0.2,0.2,0.4c0,0,0.1,0.1,0.1,0.1c0,0,0,0.1,0,0.1c-0.3,0.3-0.5,0.5-0.7,0.6
		c-0.2,0.1-0.4,0.2-0.5,0.2c0,0-0.1,0-0.2,0c-0.1,0-0.1,0-0.2,0c-0.1,0.1-0.2,0.2-0.3,0.4c-0.1,0.1-0.3,0.3-0.4,0.5
		c-0.1,0-0.1,0.1-0.2,0.2c-0.1,0.1-0.2,0.2-0.3,0.3c-0.2,0.2-0.4,0.3-0.6,0.4C84.3,19.9,84.2,20,84,20c-0.1,0-0.2,0-0.2,0
		c-0.1,0-0.2-0.1-0.3-0.1c-0.1,0-0.2-0.1-0.2-0.2c-0.1-0.1-0.2-0.1-0.3-0.2c-0.1-0.4-0.2-0.8-0.3-1.1c-0.1-0.3-0.1-0.6-0.1-0.9
		c0-0.1,0-0.1,0-0.1c0,0,0-0.1,0-0.1l-0.1,0l-0.1,0l-0.1,0.1c-0.1-0.1-0.1-0.3-0.2-0.4C82,16.7,82,16.5,81.9,16.4z M86.3,8.6
		C86.3,8.6,86.3,8.5,86.3,8.6c0-0.1,0-0.1-0.1-0.1c0,0-0.1,0-0.1,0.1C86.1,8.7,86,8.8,86,9c0,0.1-0.1,0.3-0.2,0.5
		c-0.1,0.2-0.2,0.4-0.3,0.6c-0.1,0.2-0.2,0.4-0.4,0.7c-0.1,0.3-0.2,0.5-0.3,0.8c-0.1,0.3-0.3,0.6-0.3,0.9c-0.1,0.3-0.1,0.5-0.1,0.6
		l0,0.1c0.1,0,0.1-0.2,0.3-0.4s0.3-0.5,0.5-1c0.2-0.4,0.3-0.7,0.4-0.9c0.1-0.2,0.1-0.4,0.2-0.4c0.1-0.2,0.1-0.4,0.2-0.6
		c0.1-0.2,0.2-0.5,0.2-0.8c0.1-0.1,0.1-0.2,0.2-0.3c0-0.1,0.1-0.1,0.1-0.2C86.3,8.7,86.3,8.6,86.3,8.6z"/>
	<g>
		<g>
			<rect x="56.7" y="9.1" transform="matrix(0.2943 -0.9557 0.9557 0.2943 31.351 61.5469)" class="st0" width="1.4" height="1"/>
			<path class="st1" d="M56.1,12.5l0.2-1.8l0.5-1.2c0.3,0.1,0.6,0.2,0.9,0.3c0.2,0.2,0.2,0.8,0,1.3l-0.7,1.7L56.1,12.5z"/>
			
				<ellipse transform="matrix(0.9999 -1.729828e-02 1.729828e-02 0.9999 -0.1038 0.9654)" class="st2" cx="55.8" cy="6.5" rx="1.3" ry="1.3"/>
			
				<ellipse transform="matrix(0.9999 -1.729828e-02 1.729828e-02 0.9999 -0.1218 0.986)" class="st3" cx="56.9" cy="7.5" rx="1.3" ry="1.3"/>
			
				<ellipse transform="matrix(0.9999 -1.729828e-02 1.729828e-02 0.9999 -0.1282 0.9928)" class="st1" cx="57.3" cy="7.9" rx="1.7" ry="1.6"/>
			<path class="st4" d="M57,12.6c0.9,1.8-0.6,4.5-3.4,6.1c-1.2-0.6-2.3-1.6-2.9-2.9c-0.7-1.3-0.8-2.8-0.5-4.1
				C53,10.4,56,10.8,57,12.6z"/>
			<path class="st4" d="M56.3,10.7c0.1,0,1.2-0.4,1.6-0.1c0,0.2-0.1,0.3-0.1,0.5l-0.7,1.7l0,0l-0.9-0.3L56.3,10.7z"/>
			<ellipse transform="matrix(0.3161 -0.9487 0.9487 0.3161 19.9243 57.4511)" class="st3" cx="49.8" cy="14.9" rx="0.3" ry="0.7"/>
			<path class="st2" d="M58.5,6.8c-1,1.5-1.8,1.3-2.1,2.5C56,9,55.7,8.5,55.7,7.9c0-0.9,0.7-1.6,1.6-1.6C57.8,6.3,58.2,6.5,58.5,6.8
				z"/>
			<ellipse transform="matrix(0.9701 -0.2426 0.2426 0.9701 -0.2933 14.0503)" class="st1" cx="56.9" cy="8.2" rx="0.3" ry="0.5"/>
			<path class="st5" d="M56.6,5.4c-1.8,1.3-2.9,4-3.1,6.4c0,0,0,0,0,0c-1.3-0.6-2.4-1.6-3-2.9C51.5,7,54,4.1,56.6,5.4z"/>
			
				<ellipse transform="matrix(0.9999 -1.719836e-02 1.719836e-02 0.9999 -0.1271 1.0082)" class="st6" cx="58.6" cy="7.9" rx="0.1" ry="0.2"/>
			<path class="st0" d="M58.9,8.5c-0.3,0-0.5,0-0.7,0c0.1,0.2,0.3,0.3,0.5,0.3C58.8,8.7,58.8,8.6,58.9,8.5z"/>
			<g>
				<polygon class="st6" points="57,17.2 57.2,15.6 57.4,14.5 57.5,14.2 58.7,14.4 58,17.3 				"/>
				<polygon class="st6" points="57.5,14.2 57.5,14.2 57.4,14.5 57.4,14.5 				"/>
			</g>
			<g>
				<path class="st6" d="M58.3,20.1L57,17.2l1-0.2l1,2.9C58.8,20,58.5,20,58.3,20.1z"/>
				<ellipse transform="matrix(0.928 -0.3726 0.3726 0.928 -3.3275 23.1837)" class="st7" cx="58.3" cy="20.2" rx="0.8" ry="0.4"/>
			</g>
			
				<rect x="60.5" y="9.8" transform="matrix(0.4482 -0.8939 0.8939 0.4482 24.3717 59.8893)" class="st3" width="0.5" height="0.9"/>
			<polygon class="st7" points="57.4,13.9 59.3,14.8 59.1,15.2 57.2,14.3 			"/>
			<polygon class="st6" points="59.2,15.1 61.1,10.4 60.5,10.2 58.4,12 57.3,14.2 			"/>
			<path class="st3" d="M60.4,9.9c-0.8,1.4-1.1,2.1-2,2.3l0.3-0.6l1.3-1.3l0.3-0.5L60.4,9.9z"/>
			<path class="st6" d="M60.5,9.7l-0.5,0.9l-0.1,0.1l-1.1,1.1l-0.7,0.6l0.6-1l1.3-1.2l0.3-0.5c0-0.1,0.1-0.4,0.1-0.4L60.5,9.7z"/>
			<path class="st7" d="M60.1,10.5c-1,0.5-2.6,1-3.9,1l0,0.4c1.3,0.1,3.1-0.1,4-0.4C61.1,11.2,61.1,10,60.1,10.5z"/>
			<g>
				<ellipse transform="matrix(0.2525 -0.9676 0.9676 0.2525 37.5506 65.3217)" class="st1" cx="61.1" cy="8.4" rx="1.8" ry="1.8"/>
				<path class="st2" d="M60.1,6.8c0.1,1.3,2.2,2.3,1.6,3.2c0.6-0.2,1-0.6,1.2-1.2c0.2-1-0.3-1.9-1.3-2.2C61,6.5,60.5,6.6,60.1,6.8z
					"/>
				<ellipse transform="matrix(0.4645 -0.8856 0.8856 0.4645 25.1105 59.0999)" class="st1" cx="61.4" cy="8.8" rx="0.5" ry="0.3"/>
				<ellipse transform="matrix(0.2525 -0.9676 0.9676 0.2525 36.9028 63.8071)" class="st6" cx="59.7" cy="8" rx="0.2" ry="0.1"/>
				<path class="st0" d="M59.2,8.6c0.3,0.1,0.6,0.1,0.7,0.1C59.8,8.9,59.6,9,59.3,9C59.3,8.9,59.3,8.7,59.2,8.6z"/>
			</g>
			<path class="st1" d="M56.4,11.2c-0.1-0.1-0.2,0-0.2,0.1c-0.2-0.1-0.3,0.1-0.4,0.2c-0.1,0.2-0.1,0.3,0.2,0.4
				c0.3,0.2,0.6,0.1,0.7-0.1C56.9,11.7,56.7,11.4,56.4,11.2z"/>
			<path class="st1" d="M60.9,10.3c0.1,0,0.1,0.1,0.1,0.2c0.2,0,0.1,0.2,0.1,0.3C61,11,61,11,60.8,11c-0.3-0.1-0.4-0.3-0.4-0.5
				C60.4,10.3,60.7,10.2,60.9,10.3z"/>
			<path class="st1" d="M58.8,10.8c0.4,0,1.5-0.2,1.8-0.3l0.1,0.3c-0.3,0.2-1.6,0.6-2,0.6L58.8,10.8z"/>
			<path class="st1" d="M57.2,10.2c0.4,0.2,1.2,0.5,1.7,0.6l-0.2,0.6c-0.5,0-1.1-0.3-1.4-0.3C56.4,10.8,56.3,9.8,57.2,10.2z"/>
			<path class="st2" d="M62.4,8.6c-0.9-1.2-3.6-1.2-2.8-2.8c0.3,0.7,0.6,0.5,1.3,0.7C61.6,6.7,62.5,7.4,62.4,8.6z"/>
			<path class="st2" d="M62.4,8.7c-0.6-1.4-3.3-1.8-2.3-3.2c0.2,0.7,0.5,0.6,1.2,1C62,6.7,62.7,7.5,62.4,8.7z"/>
			<path class="st2" d="M59.7,6.9c0.3,0.3,0.6,0.5,0.9,1c0.3,0.5,2-0.7,1.4-1.1C61.3,6.4,60.5,6,59.7,6.9z"/>
		</g>
	</g>
</g>
</svg>
